<?xml version="1.0" encoding="utf-8"?>
<!-- Generator: Adobe Illustrator 22.0.1, SVG Export Plug-In . SVG Version: 6.00 Build 0)  -->
<svg version="1.1" id="Layer_4" xmlns="http://www.w3.org/2000/svg" xmlns:xlink="http://www.w3.org/1999/xlink" x="0px" y="0px"
	 viewBox="0 0 560 288" style="enable-background:new 0 0 560 288;" xml:space="preserve">
<style type="text/css">
	.st0{clip-path:url(#SVGID_2_);}
	.st1{clip-path:url(#SVGID_4_);}
</style>
<g id="Layer_1_copy">
</g>
<g>
	<g>
		<g>
			<g>
				<defs>
					<rect id="SVGID_1_" x="302.7" y="97" width="113.9" height="134"/>
				</defs>
				<clipPath id="SVGID_2_">
					<use xlink:href="#SVGID_1_"  style="overflow:visible;"/>
				</clipPath>
				<path class="st0" d="M382.4,219.2c-1.3,0-2.6-0.1-3.8-0.4c-6.8-1.5-11.9-5.8-14.5-12.7c-1.4-3.8-1.8-7.3-1.9-8.8
					c-0.4-1.6-0.1-2.1,0.1-2.6c0.5-0.9,1.6-1.5,2.7-1.4c1.9,0.3,2.2,2,2.4,2.6c0.1,0.1,0.1,0.4,0.1,0.5c0.4,1.1,1.4,3.6,3.8,5
					c2.8,1.6,6.6,1.6,11.3-0.1c8.6-3.7,10.5-14.7,11-19.4c0.2-2.2,0.1-4.3-0.4-6.1c-1-3.6-2.9-6.3-5.7-7.8c-2.4-1.4-5.3-1.7-8.1-0.9
					c-0.3,0.1-0.6,0.1-0.9,0.3c-1.4,0.5-2.9-0.2-3.3-1.6c-0.5-1.4,0.2-2.9,1.6-3.3c0.4-0.1,0.9-0.3,1.2-0.4c4.1-1.1,8.4-0.7,12,1.4
					c3.9,2.2,6.8,6.1,8.2,11c0.7,2.5,0.9,5.2,0.6,8.1c-1.1,11.7-6.3,20.3-14.3,23.7c-0.1,0-0.1,0.1-0.1,0.1
					c-6.4,2.3-11,1.8-14.3,0.4c1.8,3.1,4.7,5.9,9.6,6.9c4.6,1,10.7-0.9,14.5-3c7.4-4.2,13.5-12.5,16-21.7c1.6-6.2,2.4-15.7-3.6-25.9
					c-8-13.5-20.4-12.5-29.4-9.4c-15.7,5.5-25.9,27.8-26,28c-0.5,1.1-1.9,1.8-3.1,1.4c-1.6-0.4-4.1-1.6-6.4-2.7
					c-1.4-0.6-2.8-1.3-3.7-1.6c-0.9-0.4-1.5-1.1-1.6-2.1c-0.1-0.9,0.2-1.9,1-2.4c1.2-0.9,6.1-5.1,7.3-7.3c3.3-5.8,4.2-10.2,2.9-14.7
					c-2-7.1-6.7-11-13.8-11.3c-5.6-0.3-11.5,0.9-17.7,3.8c-1.4,0.6-3,1.5-4.4,2.2c0.2,0.4,0.4,0.9,0.8,1.6l0.1,0.1
					c0.6,1.3,0.1,2.9-1.1,3.6c-1.3,0.6-2.9,0.1-3.6-1.1l-0.1-0.1c-1.1-2.1-1.1-2.1-2-3.6c-0.4-0.6-0.5-1.4-0.3-2
					c0.2-0.7,0.6-1.3,1.3-1.6c0.1-0.1,4.3-2.4,7.1-3.7c7.1-3.2,13.6-4.6,20.2-4.3c9.3,0.5,16,5.9,18.5,15.2c2.1,7.6-0.7,14-3.4,18.7
					c-1.1,1.9-3.4,4.3-5.4,6.1c0.1,0,0.1,0.1,0.1,0.1c1.2,0.6,2.5,1.1,3.6,1.6c3.2-6.2,13.2-23.4,28-28.6c15.4-5.3,28-1.2,35.6,11.7
					c6.9,11.7,6.1,22.7,4.1,29.9c-2.8,10.5-9.8,20-18.5,24.9C392.8,217.3,387.4,219.2,382.4,219.2L382.4,219.2z"/>
			</g>
		</g>
		<g>
			<g>
				<defs>
					<rect id="SVGID_3_" x="302.7" y="97" width="113.9" height="134"/>
				</defs>
				<clipPath id="SVGID_4_">
					<use xlink:href="#SVGID_3_"  style="overflow:visible;"/>
				</clipPath>
				<path class="st1" d="M331.7,231.1c-2.8,0-5.6-0.4-8.3-1.2c-13.5-4-22.2-17.2-20.7-31.5c0.3-2.3,0.6-4.3,0.9-5.9
					c0.1-1,0.4-2.1,0.4-2.5c0,0,0,0,0-0.1c0-1.4,1.1-2.6,2.5-2.7c1.3-0.1,2.6,0.9,2.7,2.5c0.2,3.1,2.1,18.2,18.7,18.2
					c8-0.7,12.3-4.3,12.3-10.1c-0.1-3.4-1.9-6.7-4.8-8.8c-5.6-3.9-13.7-6-13.8-6c-0.8-0.2-1.4-0.7-1.8-1.5
					c-0.1-0.1-1.9-4.1-2.8-10.1c-0.1-0.9,0.1-1.7,0.7-2.3c0.6-0.6,1.4-0.9,2.3-0.7c1.9,0.4,5.1,0.9,5.8,0.9c0.1,0,0.1,0,0.3,0.1
					c4.4,0.9,6.8-1.1,8.1-3c2-2.9,2-6.9,0.7-8.8c-0.4-0.6-1.2-1.4-3.1-1.1c0,0,0,0-0.1,0c-4.3,0.8-13.2,4.9-16.2,6.4
					c-1.3,0.6-2.9,0.1-3.5-1.2c-0.6-1.3-0.1-2.9,1.2-3.5c0.5-0.2,11.7-5.8,17.6-6.8c3.5-0.7,6.6,0.5,8.4,3.3
					c2.6,3.8,2.3,10.1-0.7,14.5c-2.9,4.4-7.8,6.3-13.3,5.3c-0.5-0.1-1.4-0.2-2.4-0.4c0.4,1.8,0.9,3.1,1.2,4.1
					c2.7,0.8,9.2,2.9,14.2,6.4c4.3,3,7,7.9,7.1,13c0.1,4-1.3,7.5-3.9,10.1c-3,3.1-7.5,4.8-13.3,5.3c-0.1,0-0.1,0-0.2,0
					c-11.3,0-17.2-5.8-20.2-10.9c0.3,10.4,7.1,19.5,17.1,22.5c3.8,1.1,7.8,1.3,12,0.4h0.1c6.3-1.1,10.8-3.9,13.5-8.5
					c3.9-6.7,3.3-16.2,1.2-22.3c-0.4-1.3,0.1-2.2,1-3.6c0.6-0.9,1.3-2.1,2.2-3.4c2.1-3.1,4.6-6.7,6.8-9.8c0.9-1.1,2.5-1.4,3.6-0.6
					c1.1,0.9,1.4,2.5,0.6,3.6c-4.1,5.8-7.7,11.2-8.9,13.3c2.4,7.3,2.6,17.8-2,25.6c-3.5,6-9.3,9.7-17,11
					C335.8,230.9,333.8,231.1,331.7,231.1L331.7,231.1z"/>
			</g>
		</g>
	</g>
	<path d="M369.8,173.8c-0.1,0-0.4,0-0.5-0.1c-0.1,0-0.4-0.1-0.5-0.1c-0.1-0.1-0.3-0.1-0.4-0.2s-0.3-0.2-0.4-0.4
		c-0.1-0.1-0.2-0.3-0.4-0.4c-0.1-0.1-0.1-0.3-0.2-0.4c-0.1-0.1-0.1-0.4-0.1-0.5s-0.1-0.4-0.1-0.5s0-0.4,0.1-0.5
		c0-0.1,0.1-0.4,0.1-0.5c0.1-0.1,0.1-0.3,0.2-0.4c0.1-0.1,0.2-0.3,0.4-0.4s0.3-0.2,0.4-0.4c0.1-0.1,0.3-0.1,0.4-0.2s0.4-0.1,0.5-0.1
		c0.4-0.1,0.7-0.1,1,0c0.1,0,0.4,0.1,0.5,0.1s0.3,0.1,0.4,0.2s0.3,0.2,0.4,0.4c0.1,0.1,0.2,0.3,0.4,0.4c0.1,0.1,0.1,0.3,0.2,0.4
		c0.1,0.1,0.1,0.4,0.1,0.5c0,0.1,0.1,0.4,0.1,0.5s0,0.4-0.1,0.5c0,0.1-0.1,0.4-0.1,0.5c-0.1,0.1-0.1,0.3-0.2,0.4
		c-0.1,0.1-0.2,0.3-0.4,0.4s-0.3,0.2-0.4,0.4c-0.1,0.1-0.3,0.1-0.4,0.2c-0.1,0.1-0.4,0.1-0.5,0.1C370,173.8,370,173.8,369.8,173.8
		L369.8,173.8z"/>
	<path d="M365,123c-0.7,0-1.4-0.3-1.9-0.8l-10.4-10.4c-1-1-1-2.7,0-3.7l10.4-10.4c0.5-0.5,1.1-0.8,1.9-0.8c0.7,0,1.4,0.3,1.9,0.8
		l10.4,10.5c0.5,0.5,0.8,1.1,0.8,1.9s-0.3,1.4-0.8,1.9l-10.4,10.4C366.4,122.7,365.8,123,365,123L365,123z M358.4,110l6.7,6.7
		l6.7-6.7l-6.7-6.7L358.4,110z"/>
	<path d="M366.5,144.7c-3.3,0-6.6-0.7-9.7-2.1c-7.8-3.5-13.3-9.1-16.1-16.8c-0.7-1.9-0.1-3.8,1.4-4.8c1.3-0.9,3-0.7,4.1,0.4
		c2,1.9,4.3,3.6,7.3,5c7.3,3.6,14,2.8,20.2-2.4c2.4-1.9,5.5-5.6,7.8-8.3l0.6-0.8c0.9-1.1,2.4-1.2,3.6-0.4l11.5,8.6
		c0.6,0.4,0.9,1.1,1,1.7c0.1,0.7-0.1,1.4-0.5,1.9v0.1l0,0c-5.3,7.1-13.1,13-20.8,15.8C373.2,144,369.8,144.7,366.5,144.7
		L366.5,144.7z M348.6,129.7c2.5,3.5,5.9,6.2,10.3,8.1c4.9,2.2,10.1,2.1,16.3-0.1c5.9-2.1,12.2-6.7,16.8-12l-7.6-5.5
		c-2.3,2.6-5.1,5.8-7.6,7.8c-7.8,6.4-16.8,7.5-25.9,3.1C350.2,130.6,349.4,130.2,348.6,129.7L348.6,129.7z"/>
	<g>
		<path d="M212,151c-2.6-1.6-4.5-3.9-5.9-6.9c-1.4-3-2.1-6.4-2.1-10.4c0-3.9,0.7-7.4,2.1-10.3c1.4-3,3.4-5.3,5.9-6.9
			c2.6-1.6,5.5-2.4,8.9-2.4c3.3,0,6.3,0.8,8.9,2.4c2.6,1.6,4.5,3.9,5.9,6.9c1.4,3,2.1,6.4,2.1,10.3c0,4-0.7,7.5-2.1,10.4
			c-1.4,3-3.4,5.3-5.9,6.9c-2.6,1.6-5.5,2.4-8.9,2.4C217.5,153.4,214.5,152.6,212,151z M230.8,145.9c2.3-2.9,3.5-6.9,3.5-12.3
			c0-5.2-1.2-9.2-3.6-12.1c-2.4-2.9-5.6-4.3-9.8-4.3s-7.5,1.5-9.8,4.3c-2.4,2.9-3.6,6.9-3.6,12.1c0,5.3,1.2,9.4,3.5,12.3
			c2.3,2.9,5.6,4.3,9.8,4.3C225.1,150.2,228.4,148.7,230.8,145.9z"/>
		<path d="M295.6,128.4v23c0,0.6-0.1,1-0.4,1.3c-0.3,0.3-0.7,0.5-1.2,0.5s-0.9-0.1-1.2-0.5c-0.3-0.3-0.4-0.8-0.4-1.3v-22.6
			c0-4-0.8-7-2.2-8.9c-1.4-1.8-3.8-2.8-7-2.8c-3.6,0-6.6,1.3-8.7,3.7s-3.3,5.8-3.3,10v20.6c0,0.6-0.1,1-0.4,1.3
			c-0.3,0.3-0.7,0.5-1.2,0.5c-0.6,0-0.9-0.1-1.2-0.5c-0.3-0.3-0.4-0.8-0.4-1.3v-22.6c0-4-0.7-7-2.2-8.9c-1.5-1.8-3.8-2.8-7-2.8
			c-3.7,0-6.6,1.3-8.8,3.7c-2.2,2.4-3.2,5.8-3.2,10v20.6c0,0.6-0.1,1-0.4,1.3s-0.7,0.5-1.2,0.5s-0.9-0.1-1.2-0.5s-0.4-0.8-0.4-1.3
			V116c0-1.2,0.6-1.8,1.7-1.8c0.5,0,0.9,0.1,1.2,0.5s0.4,0.8,0.4,1.3v5.6c1-2.4,2.6-4.3,4.7-5.6c2.1-1.3,4.5-2,7.3-2
			c6.1,0,10,2.5,11.7,7.6c1-2.4,2.7-4.2,4.9-5.6c2.2-1.4,4.8-2,7.7-2C291.4,114,295.6,118.8,295.6,128.4z"/>
	</g>
	<path d="M145.6,184.5c-0.2,0-0.5,0-0.7-0.1c-0.2,0-0.5-0.1-0.7-0.2c-0.2-0.1-0.4-0.2-0.6-0.3s-0.4-0.3-0.6-0.5
		c-0.2-0.2-0.3-0.4-0.5-0.6c-0.1-0.2-0.2-0.4-0.3-0.6c-0.1-0.2-0.2-0.5-0.2-0.7s-0.1-0.5-0.1-0.7s0-0.5,0.1-0.7
		c0-0.2,0.1-0.5,0.2-0.7c0.1-0.2,0.2-0.4,0.3-0.6c0.1-0.2,0.3-0.4,0.5-0.6c0.2-0.2,0.4-0.3,0.6-0.5c0.2-0.1,0.4-0.2,0.6-0.3
		c0.2-0.1,0.5-0.2,0.7-0.2c0.5-0.1,1-0.1,1.4,0c0.2,0,0.5,0.1,0.7,0.2c0.2,0.1,0.4,0.2,0.6,0.3c0.2,0.1,0.4,0.3,0.6,0.5
		c0.2,0.2,0.3,0.4,0.5,0.6c0.1,0.2,0.2,0.4,0.3,0.6c0.1,0.2,0.2,0.5,0.2,0.7s0.1,0.5,0.1,0.7s0,0.5-0.1,0.7c0,0.2-0.1,0.5-0.2,0.7
		c-0.1,0.2-0.2,0.4-0.3,0.6c-0.1,0.2-0.3,0.4-0.5,0.6c-0.2,0.2-0.4,0.3-0.6,0.5c-0.2,0.1-0.4,0.2-0.6,0.3s-0.5,0.2-0.7,0.2
		C146.1,184.5,145.9,184.5,145.6,184.5L145.6,184.5z"/>
	<g>
		<path d="M133,163.9c1,0,1.9,0.3,2.7,1s1.2,1.5,1.2,2.5c0,0.6-0.1,1.1-0.4,1.6l-27.8,59.7c-0.3,0.7-0.8,1.3-1.4,1.7
			s-1.3,0.6-1.9,0.6c-1,0-1.9-0.3-2.6-0.9c-0.8-0.6-1.1-1.4-1.1-2.4c0-0.5,0.1-1.1,0.4-1.6l6.9-14.9L89.6,169
			c-0.3-0.5-0.4-1-0.4-1.5c0-1,0.4-1.8,1.3-2.6c0.9-0.7,1.9-1.1,2.9-1.1c0.7,0,1.3,0.2,1.9,0.6s1.1,1,1.4,1.7l16.5,36.9l16.5-36.7
			C130.3,164.7,131.4,163.9,133,163.9z"/>
		<path d="M185,175.4c-1.9-3.8-4.5-6.7-8-8.7s-7.5-3.1-12-3.1s-8.5,1-12,3.1c-2.1,1.3-1.7,3.7-1.1,4.7c1.3,1.9,3.4,1.4,4.1,1.2
			c0.5-0.1,1.3-0.3,1.9-0.7c2-1.1,4.3-1.7,7-1.7c4.7,0,8.3,1.6,10.8,4.8c2.6,3.2,3.8,7.7,3.8,13.5c0,6-1.3,10.5-3.8,13.6
			s-6.2,4.7-10.9,4.7s-8.4-1.6-10.9-4.7c-1.6-2-2.6-4.5-3.2-7.6c-0.3-1.8-2-3.2-3.9-3.2l0,0c-2.5,0-4.5,2.3-3.9,4.8
			c0.5,1.9,1.1,3.8,1.9,5.5c1.9,3.8,4.5,6.7,8,8.7c3.4,2,7.4,3.1,12,3.1c4.5,0,8.5-1,12-3.1c3.5-2,6.2-4.9,8-8.7
			c1.9-3.8,2.8-8.2,2.8-13.2C187.8,183.6,186.9,179.2,185,175.4z"/>
		<path d="M241.5,164.9c0.7,0.7,1.1,1.7,1.1,2.9v41.8c0,7.2-1.8,12.6-5.5,16.2c-3.7,3.6-9.1,5.5-16.4,5.5c-7,0-12.9-1.4-17.5-4.1
			c-2.4-1.3-3.5-2.8-3.5-4.5c0-0.9,0.2-1.7,0.7-2.3s1.1-0.9,1.9-0.9c0.7,0,1.8,0.5,3.6,1.4c2.3,1.2,4.6,2.1,6.8,2.9
			c2.2,0.7,4.9,1.1,8,1.1c4.7,0,8.2-1.2,10.5-3.7c2.4-2.5,3.5-6.1,3.5-10.8v-8.5c-1.4,3.1-3.5,5.5-6.4,7.1s-6.2,2.5-10.1,2.5
			c-4.2,0-7.9-1-11.2-3c-3.2-2-5.8-4.8-7.6-8.4c-1.8-3.6-2.7-7.8-2.7-12.5s0.9-8.9,2.7-12.5s4.3-6.4,7.6-8.4s7-3,11.2-3
			c3.8,0,7.1,0.8,10,2.5c2.8,1.6,5,4,6.4,7v-5.3c0-1.2,0.3-2.1,1-2.9c0.7-0.7,1.7-1.1,2.9-1.1C239.9,163.8,240.9,164.2,241.5,164.9z
			 M230.8,200.2c2.6-3.1,3.9-7.3,3.9-12.7c0-5.3-1.3-9.5-3.9-12.6c-2.6-3.1-6.2-4.6-10.9-4.6s-8.3,1.5-11,4.6s-4,7.2-4,12.6
			c0,5.4,1.3,9.6,4,12.7c2.7,3.1,6.3,4.6,11,4.6C224.5,204.7,228.1,203.2,230.8,200.2z"/>
		<path d="M295.1,182.6v26.8c0,1.2-0.3,2.1-1,2.9c-0.7,0.7-1.6,1.1-2.8,1.1c-1.2,0-2.1-0.4-2.9-1.1c-0.7-0.7-1.1-1.7-1.1-2.9v-4.7
			c-1.3,2.8-3.2,5-5.7,6.6c-2.6,1.5-5.5,2.3-8.9,2.3c-3.1,0-5.9-0.6-8.5-1.9c-2.6-1.2-4.7-3-6.2-5.2s-2.3-4.7-2.3-7.4
			c0-3.6,0.9-6.4,2.8-8.4c1.8-2,4.9-3.4,9.1-4.3s10-1.3,17.5-1.3h2.2v-3.4c0-3.9-0.8-6.8-2.4-8.7c-1.6-1.8-4.2-2.8-7.8-2.8
			c-4.5,0-9,1.2-13.6,3.6c-1.8,1.1-3,1.7-3.7,1.7c-0.8,0-1.4-0.3-2-0.9c-0.6-0.6-0.8-1.3-0.8-2.3c0-0.9,0.3-1.7,0.8-2.4
			c0.6-0.7,1.5-1.4,2.7-2.1c2.3-1.3,4.9-2.3,7.8-3.1s5.8-1.1,8.7-1.1C289.1,163.6,295.1,170,295.1,182.6z M283.6,203.2
			c2.5-2.7,3.8-6.1,3.8-10.3V190h-1.8c-5.8,0-10.2,0.2-13.2,0.7s-5.2,1.3-6.5,2.5c-1.3,1.1-1.9,2.8-1.9,5.1c0,2.6,0.9,4.7,2.8,6.4
			s4.2,2.5,7,2.5C277.8,207.2,281,205.9,283.6,203.2z"/>
	</g>
</g>
</svg>
