<svg height="512pt" viewBox="0 -7 512.00208 512" width="512pt" xmlns="http://www.w3.org/2000/svg"><path d="m256 32.925781c-5.523438 0-10-4.476562-10-10v-12.925781c0-5.523438 4.476562-10 10-10 5.519531 0 10 4.476562 10 10v12.925781c0 5.523438-4.476562 10-10 10zm0 0"/><path d="m346.886719 101.339844c-2.558594 0-5.117188-.980469-7.070313-2.933594-3.90625-3.902344-3.902344-10.234375 0-14.140625l16.878906-16.875c3.90625-3.902344 10.238282-3.902344 14.144532.003906 3.902344 3.90625 3.902344 10.238281-.003906 14.140625l-16.878907 16.875c-1.953125 1.953125-4.511719 2.929688-7.070312 2.929688zm0 0"/><path d="m165.113281 101.339844c-2.5625 0-5.121093-.976563-7.070312-2.929688l-16.878907-16.875c-3.90625-3.902344-3.90625-10.234375 0-14.140625s10.238282-3.90625 14.140626-.003906l16.878906 16.875c3.90625 3.90625 3.90625 10.238281 0 14.140625-1.953125 1.953125-4.511719 2.933594-7.070313 2.933594zm0 0"/><path d="m473.242188 96.335938c-2.558594 0-5.117188-.976563-7.070313-2.929688-3.90625-3.90625-3.90625-10.238281 0-14.144531l6.929687-6.929688c3.90625-3.902343 10.238282-3.902343 14.144532.003907 3.90625 3.902343 3.90625 10.234374 0 14.140624l-6.933594 6.929688c-1.953125 1.953125-4.511719 2.929688-7.070312 2.929688zm0 0"/><path d="m41.820312 96.335938c-2.5625 0-5.117187-.976563-7.070312-2.929688l-6.933594-6.929688c-3.90625-3.90625-3.90625-10.234374 0-14.140624 3.902344-3.90625 10.234375-3.90625 14.140625-.003907l6.933594 6.929688c3.90625 3.90625 3.90625 10.234375 0 14.144531-1.953125 1.953125-4.511719 2.929688-7.070313 2.929688zm0 0"/><path d="m459.085938 324.152344h-.011719c-5.519531 0-9.992188 4.476562-9.992188 10 0 5.523437 4.480469 10 10.003907 10 5.523437 0 10-4.476563 10-10 0-5.523438-4.476563-10-10-10zm0 0"/><path d="m509.980469 212.507812c-1.605469-2.121093-3.984375-3.519531-6.621094-3.878906l-16.410156-2.25c-.074219-.011718-.148438-.019531-.226563-.027344-10.285156-1.175781-20.554687-1.671874-30.75-1.503906 7.324219-27.929687 8.679688-54.839844 4.308594-83.8125l-2.09375-13.90625c-.824219-5.460937-5.914062-9.21875-11.378906-8.398437l-15.648438 2.351562c-.070312.011719-.144531.023438-.21875.035157-35.574218 6.167968-68.476562 20.414062-96.515625 41.390624-17.445312-49.191406-50.046875-75.257812-64.605469-86.898437-2.324218-1.859375-5.214843-4.167969-5.957031-4.996094-1.882812-2.390625-4.753906-3.796875-7.804687-3.816406-2.839844-.015625-5.511719 1.160156-7.410156 3.21875-.410157.367187-1.402344 1.179687-2.285157 1.90625-31.886719 26.179687-54.597656 56.890625-67.652343 91.441406-28.28125-21.441406-61.597657-35.996093-97.652344-42.242187-.070313-.015625-.144532-.023438-.21875-.035156l-15.648438-2.355469c-5.453125-.820313-10.554687 2.9375-11.375 8.398437l-2.097656 13.90625c-4.316406 28.625-2.996094 56.160156 4.0625 83.808594-10.117188-.15625-20.300781.34375-30.503906 1.507812-.074219.007813-.152344.015626-.226563.027344l-16.410156 2.25c-2.632813.363282-5.015625 1.757813-6.621094 3.882813-1.601562 2.121093-2.292969 4.792969-1.9218748 7.425781l2.0937498 14.789062c8.621094 60.957032 40.183594 115.136719 88.867188 152.5625 28.457031 21.882813 61.066406 36.667969 95.480468 43.683594.0625.066406.125.132813.1875.199219l61.9375 64.046875c1.882813 1.949219 4.476563 3.046875 7.1875 3.046875h.007813c2.714844 0 5.3125-1.109375 7.195313-3.0625l61.59375-63.933594c.042968-.046875.085937-.089843.128906-.136719 34.636718-6.941406 67.457031-21.765624 96.160156-43.84375 6.761719-5.195312 13.296875-10.804687 19.421875-16.675781 3.988281-3.816406 4.125-10.148437.308594-14.136719-3.824219-3.992187-10.152344-4.125-14.140625-.304687-5.605469 5.367187-11.589844 10.503906-17.78125 15.261719-37.609375 28.925781-82.9375 44.230468-129.835938 44.230468l68.816406-60.046874c4.164063-3.628907 4.59375-9.945313.964844-14.109376-3.632812-4.160156-9.953125-4.589843-14.109375-.960937l-68.738281 59.976563c12.125-64.542969 33.210938-107.679688 64.160156-131.476563 44.136719-33.921875 98.945313-49.132813 154.34375-42.835937l6.347656.867187-.6875 4.847656c-3.019531 21.355469-9.136718 41.957031-18.183593 61.234375-2.347657 5-.195313 10.953125 4.804687 13.300782 5.003906 2.347656 10.957032.195312 13.300782-4.804688 9.894531-21.082031 16.582031-43.601562 19.882812-66.929688l2.09375-14.789062c.367188-2.632812-.324219-5.304688-1.925781-7.429688zm-254.125-142.457031c.472656.378907.964843.769531 1.476562 1.179688 15.011719 12.003906 45.785157 36.609375 60.554688 84.953125-10.71875 9.773437-20.535157 20.644531-29.285157 32.527344-14.515624 19.714843-25.445312 41.308593-32.601562 63.988281-7.152344-22.679688-18.085938-44.273438-32.601562-63.992188-8.492188-11.523437-17.984376-22.105469-28.332032-31.652343 10.921875-32.761719 31.34375-61.996094 60.789063-87.003907zm-184.363281 53.964844.605468-4.023437 5.652344.851562c52.375 9.105469 98.375 37.417969 129.542969 79.722656 26.945312 36.597656 40.296875 80.308594 38.546875 125.03125-13.011719-31.925781-30.128906-55.859375-51.65625-72.410156-34.492188-26.511719-74.945313-42.574219-117.332032-47.070312-7.839843-27.132813-9.589843-54.039063-5.359374-82.101563zm-49.496094 107.910156-.6875-4.847656 6.347656-.871094c55.398438-6.289062 110.207031 8.917969 154.339844 42.835938 30.910156 23.765625 51.800781 66.164062 63.835937 129.578125-.085937.464844-.167969.929687-.253906 1.394531l-68.15625-59.46875c-4.160156-3.628906-10.476563-3.199219-14.109375.960937-3.632812 4.164063-3.199219 10.480469.960938 14.109376l68.8125 60.042968c-46.890626-.015625-92.316407-15.371094-129.835938-44.230468-44.515625-34.214844-73.371094-83.761719-81.253906-139.503907zm271.046875 203.316407-37.207031 38.625-37.390626-38.667969c4.882813.308593 9.785157.460937 14.703126.460937 7.585937 0 15.214843-.367187 22.847656-1.105468 7.671875.742187 15.328125 1.113281 22.949218 1.113281 4.714844 0 9.417969-.144531 14.097657-.425781zm24.765625-182.054688c-21.355469 16.421875-38.71875 40.761719-51.648438 72.394531-1.746094-44.71875 11.605469-88.421875 38.546875-125.015625 31.164063-42.304687 77.167969-70.617187 129.542969-79.722656l5.648438-.851562.609374 4.023437c4.28125 28.375 2.484376 54.570313-5.660156 82.136719-42.277344 4.539062-82.621094 20.585937-117.039062 47.035156zm0 0"/></svg>