<svg xmlns="http://www.w3.org/2000/svg" width="435" height="105" viewBox="0 0 435 105"><g><g><g><g><path fill="#fff" d="M70.652 50.07c.05.35 1.178 8.715-3.604 14.684-2.655 3.324-6.598 5.22-11.739 5.64v10.86c0 .71-1.098.71-1.098 0v-10.85c-5.16-.48-9.123-2.416-11.779-5.77-4.731-5.98-3.613-14.214-3.563-14.564 1.667-11.719 13.925-25.045 15.322-26.522a.702.702 0 0 1 1.018 0c1.408 1.477 13.776 14.813 15.443 26.522M55.309 61.06l13.746-13.286c-.66-2.505-1.727-5.05-3.015-7.496L55.31 50.539zm-1.098-10.52l-10.74-10.282c-1.268 2.416-2.316 4.941-2.975 7.427L54.21 60.96zm.5-25.924c-1.518 1.637-6.838 7.636-10.691 14.644l10.201 9.762V36.435c0-.709 1.098-.709 1.098 0v12.597l10.182-9.752c-3.893-7.008-9.263-13.017-10.79-14.664M43.3 63.956c2.445 3.084 6.119 4.87 10.91 5.33v-6.798L40.206 48.942c-.09.43-.19.859-.25 1.288-.01.08-1.087 8.125 3.345 13.725m22.889.13c4.482-5.6 3.384-13.785 3.374-13.865-.05-.4-.15-.799-.23-1.198L55.31 62.588v6.708c4.782-.41 8.445-2.166 10.88-5.21"/></g><g><path fill="#fff" d="M27.56 6.219c1.167 2.026 2.335 4.053 3.513 6.079.35.609 1.297.06.948-.55L28.517 5.67c-.359-.61-1.317-.06-.958.549"/></g><g><path fill="#fff" d="M1.286 52.815h7.018c.708 0 .708-1.098 0-1.098H1.286c-.709 0-.709 1.098 0 1.098"/></g><g><path fill="#fff" d="M28.507 98.873c1.168-2.027 2.336-4.053 3.514-6.08.35-.608-.599-1.167-.948-.558-1.168 2.026-2.336 4.052-3.514 6.079-.35.619.599 1.168.948.559"/></g><g><path fill="#fff" d="M82.001 98.314c-1.167-2.027-2.335-4.053-3.513-6.08-.35-.608-1.298-.06-.949.56l3.504 6.079c.36.609 1.308.06.958-.56"/></g><g><path fill="#fff" d="M108.264 51.717h-7.017c-.709 0-.709 1.098 0 1.098h7.017c.71 0 .71-1.098 0-1.098"/></g><g><path fill="#fff" d="M81.053 5.67c-1.168 2.026-2.336 4.053-3.514 6.079-.349.609.6 1.168.949.559A1895.16 1895.16 0 0 1 82 6.228c.35-.618-.598-1.177-.948-.558"/></g><g><path fill="#fff" d="M56.657 1.966a1.964 1.964 0 0 1-1.967 1.967 1.964 1.964 0 0 1-1.966-1.967C52.724.878 53.602 0 54.69 0a1.97 1.97 0 0 1 1.967 1.966"/></g><g><path fill="#fff" d="M12.177 25.375a1.961 1.961 0 0 1 .718 2.685 1.961 1.961 0 0 1-2.685.718 1.961 1.961 0 0 1-.719-2.685 1.97 1.97 0 0 1 2.686-.718"/></g><g><path fill="#fff" d="M10.21 75.595a1.97 1.97 0 0 1 2.685.718 1.97 1.97 0 0 1-.718 2.685 1.961 1.961 0 0 1-2.686-.718 1.955 1.955 0 0 1 .72-2.685"/></g><g><path fill="#fff" d="M52.714 102.406c0-1.088.878-1.966 1.966-1.966s1.967.878 1.967 1.966a1.964 1.964 0 0 1-1.967 1.967c-1.078.01-1.966-.878-1.966-1.967"/></g><g><path fill="#fff" d="M97.194 79.008a1.961 1.961 0 0 1-.718-2.685 1.961 1.961 0 0 1 2.685-.719 1.961 1.961 0 0 1 .718 2.686 1.97 1.97 0 0 1-2.685.718"/></g><g><path fill="#fff" d="M99.16 28.788a1.97 1.97 0 0 1-2.684-.718 1.97 1.97 0 0 1 .718-2.685 1.97 1.97 0 0 1 2.685.718c.55.939.22 2.136-.718 2.685"/></g></g><g><g><path fill="#fff" d="M137.703 57.876c1.957-.06 2.486-.619 2.486-1.577V44.7c0-.937-.53-1.516-2.486-1.576v-.26h6.518c4.443 0 5.91 1.737 5.91 3.694 0 1.577-1.188 3.234-4.262 3.473v.07c3.254.18 4.92 1.498 4.92 3.694 0 2.156-1.606 4.392-6.368 4.392h-6.718v-.31zm6.788-8.045c2.486 0 3.384-1.138 3.384-3.225 0-1.886-.679-3.314-3.474-3.314h-2.126v6.549h2.216zm.27 7.886c2.785 0 3.733-1.098 3.733-3.893 0-2.047-1.158-3.554-3.903-3.554h-2.306v7.447z"/></g><g><path fill="#fff" d="M158.985 57.876c1.957-.06 2.486-.619 2.486-1.577V44.7c0-.937-.53-1.516-2.486-1.576v-.26h12.428l.07 4.742-.29.02c-1.078-2.875-2.196-4.323-4.741-4.323h-2.895V50h1.387c1.847 0 2.765-.619 3.364-3.034h.29v6.498h-.29c-.599-2.415-1.517-3.034-3.364-3.034h-1.387v7.297h2.895c2.984 0 4.262-1.518 5.43-4.592l.29.02-.11 5.01h-13.067v-.289z"/></g><g><path fill="#fff" d="M191.177 57.876c1.957-.06 2.486-.589 2.486-1.557V44.67c0-.947-.53-1.496-2.486-1.556v-.26h6.878v.26c-2.086.07-2.306.569-2.306 1.557v5.32h7.317v-5.32c0-.988-.22-1.497-2.286-1.557v-.26h6.858v.26c-1.957.07-2.486.619-2.486 1.557v11.64c0 .967.53 1.496 2.486 1.556v.29h-6.858v-.29c2.066-.06 2.286-.549 2.286-1.557v-5.87h-7.317v5.87c0 1.008.22 1.497 2.306 1.557v.29h-6.878z"/></g><g><path fill="#fff" d="M215.753 57.876c1.957-.06 2.486-.619 2.486-1.577V44.7c0-.937-.53-1.516-2.486-1.576v-.26h12.428l.07 4.742-.29.02c-1.078-2.875-2.196-4.323-4.741-4.323h-2.895V50h1.388c1.846 0 2.765-.619 3.364-3.034h.29v6.498h-.29c-.59-2.415-1.518-3.034-3.364-3.034h-1.388v7.297h2.895c2.985 0 4.262-1.518 5.42-4.592l.29.02-.11 5.01h-13.067z"/></g><g><path fill="#fff" d="M245.73 52.276h-5.29l-.7 1.827c-1.058 2.745-.708 3.444 1.298 3.773v.29h-5.09v-.29c1.427-.399 2.175-1.168 3.163-3.623l4.742-11.879h.49l4.87 13.226c.62 1.647.949 2.067 2.656 2.286v.29h-6.698v-.29c2.086-.09 2.355-.569 1.886-1.866zm-.15-.439l-2.306-6.608h-.09l-2.565 6.608z"/></g><g><path fill="#fff" d="M258.616 57.876c1.957-.06 2.486-.619 2.486-1.577V44.7c0-.937-.529-1.516-2.486-1.576v-.26h6.878v.26c-2.086.07-2.306.589-2.306 1.577v13.027h2.017c2.894 0 4.282-.949 5.56-4.373l.29.02-.22 4.792h-12.219z"/></g><g><path fill="#fff" d="M280.188 57.876c1.956-.06 2.655-.619 2.655-1.577V43.292h-1.078c-1.607 0-3.074 1.358-4.352 4.133l-.29-.02.13-4.552h13.226l.13 4.552-.28.02c-1.227-2.595-2.684-4.133-4.351-4.133h-1.079V56.3c0 .968.71 1.517 2.656 1.577v.29h-7.377v-.29z"/></g><g><path fill="#fff" d="M298.675 57.876c1.956-.06 2.485-.589 2.485-1.557V44.67c0-.947-.529-1.496-2.485-1.556v-.26h6.877v.26c-2.086.07-2.305.569-2.305 1.557v5.32h7.316v-5.32c0-.988-.22-1.497-2.286-1.557v-.26h6.848v.26c-1.956.07-2.485.619-2.485 1.557v11.64c0 .967.529 1.496 2.485 1.556v.29h-6.848v-.29c2.067-.06 2.286-.549 2.286-1.557v-5.87h-7.316v5.87c0 1.008.22 1.497 2.305 1.557v.29h-6.877z"/></g><g><path fill="#fff" d="M333.882 57.876c1.956-.06 2.485-.589 2.485-1.557V44.67c0-.947-.529-1.496-2.485-1.556v-.26h6.877v.26c-2.086.07-2.306.569-2.306 1.557v5.32h7.317v-5.32c0-.988-.22-1.497-2.286-1.557v-.26h6.858v.26c-1.956.07-2.485.619-2.485 1.557v11.64c0 .967.529 1.496 2.485 1.556v.29h-6.858v-.29c2.067-.06 2.286-.549 2.286-1.557v-5.87h-7.317v5.87c0 1.008.22 1.497 2.306 1.557v.29h-6.877z"/></g><g><path fill="#fff" d="M366.862 52.276h-5.29l-.709 1.827c-1.048 2.745-.698 3.444 1.298 3.773v.29h-5.1v-.29c1.427-.399 2.175-1.168 3.163-3.623l4.742-11.879h.48l4.88 13.226c.61 1.647.949 2.067 2.656 2.286v.29h-6.698v-.29c2.086-.09 2.345-.569 1.886-1.866zm-.15-.439l-2.305-6.608h-.09l-2.575 6.608z"/></g><g><path fill="#fff" d="M379.76 57.876c1.956-.06 2.485-.619 2.485-1.577V44.7c0-.937-.53-1.516-2.486-1.576v-.26h6.28c4.65 0 6.128 1.867 6.128 4.153 0 2.126-1.537 4.322-6.279 4.322h-1.557v4.961c0 1.008.55 1.517 2.636 1.577v.29h-7.208v-.29zm6.278-6.987c3.165 0 3.753-1.517 3.753-3.933 0-2.086-.658-3.664-3.693-3.664h-1.777v7.597h1.717z"/></g><g><path fill="#fff" d="M400.263 57.876c1.956-.06 2.485-.619 2.485-1.577V44.7c0-.937-.529-1.516-2.485-1.576v-.26h6.278c4.652 0 6.13 1.867 6.13 4.153 0 2.126-1.538 4.322-6.28 4.322h-1.557v4.961c0 1.008.55 1.517 2.636 1.577v.29h-7.207zm6.288-6.987c3.165 0 3.754-1.517 3.754-3.933 0-2.086-.66-3.664-3.694-3.664h-1.776v7.597h1.716z"/></g><g><path fill="#fff" d="M430.598 45.798c1.058-1.797 1.058-2.346-1.098-2.675v-.26h5.071v.26c-1.467.26-2.176.698-3.424 2.835l-3.144 5.31V56.3c0 .968.46 1.517 2.545 1.577v.29h-7.157v-.29c2.086-.07 2.546-.619 2.546-1.577v-4.592l-3.913-6.768c-.66-1.137-1.188-1.557-2.506-1.826v-.26h6.588v.26c-2.176.13-2.286.748-1.627 1.906l3.224 5.76z"/></g><g><path fill="#fff" d="M220.495 70.444v3.284h-3.953v-3.284h-.809v7.396h.809v-3.393h3.953v3.393h.808v-7.396z"/></g><g><path fill="#fff" d="M229.798 70.314l3.324 7.527h-.868l-.879-2.047h-3.314l-.878 2.047h-.839l3.324-7.527zm-1.437 4.801h2.725l-1.368-3.174z"/></g><g><path fill="#fff" d="M238.163 70.344v7.497h.799v-5.61l4.811 5.75.1-.03v-7.507h-.809v5.52l-4.741-5.66z"/></g><g><path fill="#fff" d="M249.672 70.344v7.497h.809v-5.61l4.801 5.75.1-.03v-7.507h-.808v5.52l-4.742-5.66z"/></g><g><path fill="#fff" d="M263.877 70.314l3.324 7.527h-.868l-.879-2.047h-3.314l-.878 2.047h-.839l3.324-7.527zm-1.437 4.801h2.725l-1.368-3.174z"/></g><g><path fill="#fff" d="M277.004 70.444v3.284h-3.953v-3.284h-.809v7.396h.809v-3.393h3.953v3.393h.808v-7.396z"/></g><g><path fill="#fff" d="M293.604 75.874l-3.204-5.57-.15.02-.29 7.517h.819l.09-5.241 2.645 4.482h.11l2.625-4.462.11 5.22h.818l-.28-7.516-.159-.02z"/></g><g><path fill="#fff" d="M305.572 70.314l3.324 7.527h-.868l-.879-2.047h-3.314l-.878 2.047h-.838l3.323-7.527zm-1.437 4.801h2.725l-1.368-3.174z"/></g><g><g><path fill="#fff" d="M317.301 77.96c-2.286 0-3.923-1.597-3.923-3.813 0-2.176 1.687-3.823 3.923-3.823.979 0 1.857.34 2.446.709l-.33.688c-.628-.359-1.477-.638-2.176-.638-1.866 0-2.974 1.317-2.974 3.064s1.178 3.055 3.044 3.055c.709 0 1.558-.27 2.176-.64l.26.69a4.696 4.696 0 0 1-2.446.708"/></g><g><path fill="#fff" d="M329.14 77.84l-1.966-2.914c-.16.01-.32.02-.5.02-.239 0-.598-.01-.838-.02v2.915h-.808v-7.327c.548-.07 1.088-.12 1.706-.12 1.907 0 2.845.948 2.845 2.226 0 1.028-.579 1.807-1.617 2.136l2.146 3.084h-.968zm-2.276-6.717c-.34 0-.758.02-1.018.08v3.004c.24.03.619.05.898.05 1.388 0 1.977-.639 1.977-1.597 0-.859-.649-1.537-1.857-1.537"/></g></g><g><path fill="#fff" d="M337.894 70.314l3.325 7.527h-.869l-.878-2.047h-3.314l-.879 2.047h-.838l3.324-7.527zm-1.437 4.801h2.725l-1.367-3.174z"/></g><g><path fill="#fff" d="M346.26 70.444v7.396h4.332v-.728h-3.524v-2.665h3.164v-.72h-3.164v-2.555h3.524v-.728z"/></g></g></g></g></svg>