<svg xmlns="http://www.w3.org/2000/svg" width="36" height="36" viewBox="0 0 36 36"><g><g><path fill="#c6c6c6" d="M35.355 36.054H0V.699h35.355zM27.56 13.039c2.406-3.319.675-9.059.704-7.527.026 1.153-1.66 3.01-3.428 4.637a11.85 11.85 0 0 0-14.305-.01C8.767 8.514 7.09 6.663 7.112 5.512c.037-1.53-1.696 4.189.692 7.508a11.878 11.878 0 1 0 19.757.02m-1.014 6.58a8.868 8.868 0 1 1-16.297-4.84c2.236.521 4.267-1.344 4.267-1.344s-.682-.505-1.632-1.274a8.837 8.837 0 0 1 9.599.007c-.945.767-1.623 1.267-1.623 1.267s2.02 1.856 4.247 1.346a8.822 8.822 0 0 1 1.438 4.836"/></g></g></svg>