<svg xmlns="http://www.w3.org/2000/svg" width="19" height="18" viewBox="0 0 19 18"><g><g><g><path fill="#cbbcb8" d="M9.159 10.831c.986 0 1.792-.802 1.792-1.792A1.797 1.797 0 0 0 9.16 7.246c-.595 0-1.126.293-1.45.748a1.79 1.79 0 0 0 1.45 2.837z"/></g><g><path fill="#cbbcb8" d="M13.103 6.814V5.09h-.225l-1.5.005.01 1.725z"/></g><g><path fill="#cbbcb8" d="M14.301 12.193a1.987 1.987 0 0 1-1.988 1.984H6.005a1.986 1.986 0 0 1-1.985-1.984V5.885a1.99 1.99 0 0 1 1.985-1.99h6.308a1.99 1.99 0 0 1 1.988 1.99zM9.16 0C4.175 0 .12 4.055.12 9.039c0 4.983 4.055 9.038 9.039 9.038 4.983 0 9.038-4.055 9.038-9.038C18.197 4.055 14.142 0 9.16 0z"/></g><g><path fill="#cbbcb8" d="M11.942 9.061a2.781 2.781 0 1 1-5.36-1.045H5.064v4.166c0 .54.437.973.973.973h6.243a.972.972 0 0 0 .973-.973V8.016h-1.518c.13.324.207.676.207 1.045z"/></g></g></g></svg>