<?xml version="1.0" encoding="utf-8"?>
<!-- Generator: Adobe Illustrator 23.0.3, SVG Export Plug-In . SVG Version: 6.00 Build 0)  -->
<svg version="1.1" id="Layer_1" xmlns="http://www.w3.org/2000/svg" xmlns:xlink="http://www.w3.org/1999/xlink" x="0px" y="0px"
	 viewBox="0 0 28 28" style="enable-background:new 0 0 28 28;" xml:space="preserve">
<style type="text/css">
	.st0{fill:#007AB9;}
</style>
<g>
	<path class="st0" d="M13.6,0C6.1,0,0,6.1,0,13.6c0,7.5,6.1,13.6,13.6,13.6c7.5,0,13.6-6.1,13.6-13.6C27.2,6.1,21.1,0,13.6,0z
		 M10,20.3H6.8v-9.8H10V20.3z M8.4,9.2L8.4,9.2c-1.1,0-1.8-0.8-1.8-1.7c0-1,0.7-1.7,1.8-1.7h0c1.1,0,1.8,0.7,1.8,1.7
		C10.2,8.4,9.5,9.2,8.4,9.2z M21.7,14.7v5.6h-3.3v-5.2c0-1.3-0.5-2.2-1.6-2.2c-0.9,0-1.4,0.6-1.7,1.2c-0.1,0.2-0.1,0.5-0.1,0.8v5.5
		h-3.3c0,0,0-8.9,0-9.8h3.3v1.4c0.4-0.7,1.2-1.6,2.9-1.6C20.1,10.3,21.7,11.7,21.7,14.7L21.7,14.7z"/>
	<path class="st0" d="M15.1,12L15.1,12C15.1,11.9,15.1,11.9,15.1,12L15.1,12z"/>
</g>
</svg>
