<svg xmlns="http://www.w3.org/2000/svg" width="109" height="105" viewBox="0 0 109 105"><g><g><g><path fill="#fff" d="M70.652 50.07c.05.35 1.178 8.715-3.604 14.684-2.655 3.324-6.598 5.22-11.739 5.64v10.86c0 .71-1.098.71-1.098 0v-10.85c-5.16-.48-9.123-2.416-11.779-5.77-4.731-5.98-3.613-14.214-3.563-14.564 1.667-11.719 13.925-25.045 15.322-26.522a.702.702 0 0 1 1.018 0c1.408 1.477 13.776 14.813 15.443 26.522M55.309 61.06l13.746-13.286c-.66-2.505-1.727-5.05-3.015-7.496L55.31 50.539zm-1.098-10.52l-10.74-10.282c-1.268 2.416-2.316 4.941-2.975 7.427L54.21 60.96zm.5-25.924c-1.518 1.637-6.838 7.636-10.691 14.644l10.201 9.762V36.435c0-.709 1.098-.709 1.098 0v12.597l10.182-9.752c-3.893-7.008-9.263-13.017-10.79-14.664M43.3 63.956c2.445 3.084 6.119 4.87 10.91 5.33v-6.798L40.206 48.942c-.09.43-.19.859-.25 1.288-.01.08-1.087 8.125 3.345 13.725m22.889.13c4.482-5.6 3.384-13.785 3.374-13.865-.05-.4-.15-.799-.23-1.198L55.31 62.588v6.708c4.782-.41 8.445-2.166 10.88-5.21"/></g><g><path fill="#fff" d="M27.56 6.219c1.167 2.026 2.335 4.053 3.513 6.079.35.609 1.297.06.948-.55L28.517 5.67c-.359-.61-1.317-.06-.958.549"/></g><g><path fill="#fff" d="M1.286 52.815h7.018c.708 0 .708-1.098 0-1.098H1.286c-.709 0-.709 1.098 0 1.098"/></g><g><path fill="#fff" d="M28.507 98.873c1.168-2.027 2.336-4.053 3.514-6.08.35-.608-.599-1.167-.948-.558-1.168 2.026-2.336 4.052-3.514 6.079-.35.619.599 1.168.948.559"/></g><g><path fill="#fff" d="M82.001 98.314c-1.167-2.027-2.335-4.053-3.513-6.08-.35-.608-1.298-.06-.949.56l3.504 6.079c.36.609 1.308.06.958-.56"/></g><g><path fill="#fff" d="M108.264 51.717h-7.017c-.709 0-.709 1.098 0 1.098h7.017c.71 0 .71-1.098 0-1.098"/></g><g><path fill="#fff" d="M81.053 5.67c-1.168 2.026-2.336 4.053-3.514 6.079-.349.609.6 1.168.949.559A1895.16 1895.16 0 0 1 82 6.228c.35-.618-.598-1.177-.948-.558"/></g><g><path fill="#fff" d="M56.657 1.966a1.964 1.964 0 0 1-1.967 1.967 1.964 1.964 0 0 1-1.966-1.967C52.724.878 53.602 0 54.69 0a1.97 1.97 0 0 1 1.967 1.966"/></g><g><path fill="#fff" d="M12.177 25.375a1.961 1.961 0 0 1 .718 2.685 1.961 1.961 0 0 1-2.685.718 1.961 1.961 0 0 1-.719-2.685 1.97 1.97 0 0 1 2.686-.718"/></g><g><path fill="#fff" d="M10.21 75.595a1.97 1.97 0 0 1 2.685.718 1.97 1.97 0 0 1-.718 2.685 1.961 1.961 0 0 1-2.686-.718 1.955 1.955 0 0 1 .72-2.685"/></g><g><path fill="#fff" d="M52.714 102.406c0-1.088.878-1.966 1.966-1.966s1.967.878 1.967 1.966a1.964 1.964 0 0 1-1.967 1.967c-1.078.01-1.966-.878-1.966-1.967"/></g><g><path fill="#fff" d="M97.194 79.008a1.961 1.961 0 0 1-.718-2.685 1.961 1.961 0 0 1 2.685-.719 1.961 1.961 0 0 1 .718 2.686 1.97 1.97 0 0 1-2.685.718"/></g><g><path fill="#fff" d="M99.16 28.788a1.97 1.97 0 0 1-2.684-.718 1.97 1.97 0 0 1 .718-2.685 1.97 1.97 0 0 1 2.685.718c.55.939.22 2.136-.718 2.685"/></g></g></g></svg>