<svg xmlns="http://www.w3.org/2000/svg" width="33" height="59" viewBox="0 0 33 59"><g><g><path fill="#fff" d="M32.652 27.07c.05.35 1.178 8.715-3.604 14.684-2.655 3.324-6.598 5.22-11.739 5.64v10.86c0 .71-1.098.71-1.098 0v-10.85c-5.16-.48-9.123-2.416-11.779-5.77C-.299 35.654.82 27.42.87 27.07 2.536 15.351 14.794 2.025 16.19.548a.702.702 0 0 1 1.018 0C18.617 2.025 30.985 15.36 32.652 27.07M17.309 38.06l13.746-13.286c-.66-2.505-1.727-5.05-3.015-7.496L17.31 27.539zm-1.098-10.52L5.471 17.257c-1.268 2.416-2.316 4.941-2.975 7.427L16.21 37.96zm.5-25.924C15.192 3.253 9.872 9.252 6.02 16.26l10.201 9.762V13.435c0-.709 1.098-.709 1.098 0v12.597l10.182-9.752c-3.893-7.008-9.263-13.017-10.79-14.664M5.3 40.956c2.445 3.084 6.119 4.87 10.91 5.33v-6.798L2.206 25.942c-.09.43-.19.859-.25 1.288-.01.08-1.087 8.125 3.345 13.725m22.889.13c4.482-5.6 3.384-13.785 3.374-13.865-.05-.4-.15-.799-.23-1.198L17.31 39.588v6.708c4.782-.41 8.445-2.166 10.88-5.21"/></g></g></svg>