<svg xmlns="http://www.w3.org/2000/svg" width="109" height="105" viewBox="0 0 109 105"><g><g><g><path fill="#fff" d="M27.56 6.219c1.167 2.026 2.335 4.053 3.513 6.079.35.609 1.297.06.948-.55L28.517 5.67c-.359-.61-1.317-.06-.958.549"/></g><g><path fill="#fff" d="M1.286 52.815h7.018c.708 0 .708-1.098 0-1.098H1.286c-.709 0-.709 1.098 0 1.098"/></g><g><path fill="#fff" d="M28.507 98.873c1.168-2.027 2.336-4.053 3.514-6.08.35-.608-.599-1.167-.948-.558-1.168 2.026-2.336 4.052-3.514 6.079-.35.619.599 1.168.948.559"/></g><g><path fill="#fff" d="M82.001 98.314c-1.167-2.027-2.335-4.053-3.513-6.08-.35-.608-1.298-.06-.949.56l3.504 6.079c.36.609 1.308.06.958-.56"/></g><g><path fill="#fff" d="M108.264 51.717h-7.017c-.709 0-.709 1.098 0 1.098h7.017c.71 0 .71-1.098 0-1.098"/></g><g><path fill="#fff" d="M81.053 5.67c-1.168 2.026-2.336 4.053-3.514 6.079-.349.609.6 1.168.949.559A1895.16 1895.16 0 0 1 82 6.228c.35-.618-.598-1.177-.948-.558"/></g><g><path fill="#fff" d="M56.657 1.966a1.964 1.964 0 0 1-1.967 1.967 1.964 1.964 0 0 1-1.966-1.967C52.724.878 53.602 0 54.69 0a1.97 1.97 0 0 1 1.967 1.966"/></g><g><path fill="#fff" d="M12.177 25.375a1.961 1.961 0 0 1 .718 2.685 1.961 1.961 0 0 1-2.685.718 1.961 1.961 0 0 1-.719-2.685 1.97 1.97 0 0 1 2.686-.718"/></g><g><path fill="#fff" d="M10.21 75.595a1.97 1.97 0 0 1 2.685.718 1.97 1.97 0 0 1-.718 2.685 1.961 1.961 0 0 1-2.686-.718 1.955 1.955 0 0 1 .72-2.685"/></g><g><path fill="#fff" d="M52.714 102.406c0-1.088.878-1.966 1.966-1.966s1.967.878 1.967 1.966a1.964 1.964 0 0 1-1.967 1.967c-1.078.01-1.966-.878-1.966-1.967"/></g><g><path fill="#fff" d="M97.194 79.008a1.961 1.961 0 0 1-.718-2.685 1.961 1.961 0 0 1 2.685-.719 1.961 1.961 0 0 1 .718 2.686 1.97 1.97 0 0 1-2.685.718"/></g><g><path fill="#fff" d="M99.16 28.788a1.97 1.97 0 0 1-2.684-.718 1.97 1.97 0 0 1 .718-2.685 1.97 1.97 0 0 1 2.685.718c.55.939.22 2.136-.718 2.685"/></g></g></g></svg>