<?xml version="1.0" encoding="utf-8"?>
<!-- Generator: Adobe Illustrator 23.0.3, SVG Export Plug-In . SVG Version: 6.00 Build 0)  -->
<svg version="1.1" id="Layer_1" xmlns="http://www.w3.org/2000/svg" xmlns:xlink="http://www.w3.org/1999/xlink" x="0px" y="0px"
	 viewBox="0 0 27 27" style="enable-background:new 0 0 27 27;" xml:space="preserve">
<style type="text/css">
	.st0{fill:#CB2027;}
</style>
<path class="st0" d="M13.5,0C6,0,0,6,0,13.5C0,21,6,27,13.5,27C21,27,27,21,27,13.5S21,0,13.5,0z M14.6,18.1L14.6,18.1
	c-1-0.1-1.4-0.6-2.2-1.1c-0.4,2.3-1,4.5-2.5,5.6c-0.5-3.5,0.7-6.1,1.3-8.8c-1-1.6,0.1-4.8,2.1-4c2.5,1-2.1,6,1,6.6
	c3.2,0.7,4.6-5.6,2.5-7.6C13.8,5.8,8.3,8.7,9,12.9c0.2,1,1.2,1.3,0.4,2.8C7.5,15.2,7,13.7,7,11.8c0.1-3.2,2.9-5.4,5.6-5.7
	c3.5-0.4,6.8,1.3,7.2,4.6C20.4,14.3,18.3,18.3,14.6,18.1z"/>
</svg>
