<svg xmlns="http://www.w3.org/2000/svg" width="50" height="33" viewBox="0 0 50 33"><g><g><path fill="#fff" d="M40.102.362h9.232l-6.612 10.44c-1.802 2.211-1.413 3.214.798 4.217 3.01 1.413 5.016 4.012 5.016 8.434 0 5.814-3.603 9.437-9.622 9.437-6.018 0-9.62-4.012-9.62-10.624 0-4.81 2.21-8.823 5.015-13.04zm-29.294 0h9.233l-6.612 10.44c-1.822 2.19-1.413 3.194.798 4.197 3.01 1.412 5.015 4.012 5.015 8.434 0 5.813-3.603 9.436-9.62 9.436C3.601 32.87 0 28.857 0 22.245c0-4.81 2.21-8.823 5.015-13.04z"/></g></g></svg>