<?xml version="1.0" encoding="utf-8"?>
<!-- Generator: Adobe Illustrator 23.0.3, SVG Export Plug-In . SVG Version: 6.00 Build 0)  -->
<svg version="1.1" id="Layer_1" xmlns="http://www.w3.org/2000/svg" xmlns:xlink="http://www.w3.org/1999/xlink" x="0px" y="0px"
	 viewBox="0 0 27 27" style="enable-background:new 0 0 27 27;" xml:space="preserve">
<style type="text/css">
	.st0{fill:#55ACEE;}
</style>
<path class="st0" d="M13.5,0C6,0,0,6,0,13.5C0,21,6,27,13.5,27C21,27,27,21,27,13.5S21,0,13.5,0z M21.8,9.7c-0.4,0.6-1,1.2-1.6,1.7
	c0,0.1,0,0.3,0,0.4c0,4.3-3.2,9.2-9.2,9.2c-1.8,0-3.5-0.5-4.9-1.4c1.7,0.2,3.4-0.3,4.8-1.3c-1.4,0-2.6-0.9-3-2.2
	c0.5,0.1,1,0.1,1.5-0.1c-1.5-0.3-2.6-1.6-2.6-3.2v0c0.4,0.2,0.9,0.4,1.5,0.4c-0.9-0.6-1.4-1.6-1.4-2.7c0-0.6,0.1-1.1,0.4-1.6
	c1.6,2,4.1,3.2,6.7,3.4c-0.3-1.1,0.1-2.3,0.9-3.1c1.3-1.2,3.3-1.2,4.6,0.2c0.7-0.1,1.4-0.4,2-0.8c-0.2,0.7-0.7,1.4-1.4,1.8
	C20.6,10.1,21.2,10,21.8,9.7L21.8,9.7z"/>
</svg>
