<?xml version="1.0"?>
<svg xmlns="http://www.w3.org/2000/svg" xmlns:xlink="http://www.w3.org/1999/xlink" version="1.1" id="Capa_1" x="0px" y="0px" viewBox="0 0 25.929 25.929" style="enable-background:new 0 0 25.929 25.929;" xml:space="preserve" width="512px" height="512px" class=""><g transform="matrix(-1 0 0 -1 25.929 25.929)"><g>
	<g id="c119_triangle">
		<path d="M25.397,21.375h-2.044L13.382,8.733c-0.103-0.125-0.259-0.201-0.419-0.201c-0.162,0-0.315,0.076-0.416,0.201L2.572,21.375    H0.531c-0.204,0-0.39-0.118-0.479-0.299c-0.088-0.184-0.063-0.404,0.062-0.563L12.547,4.752c0.101-0.122,0.254-0.197,0.416-0.197    c0.16,0,0.316,0.075,0.419,0.197l12.43,15.761c0.131,0.159,0.153,0.38,0.062,0.563C25.787,21.257,25.601,21.375,25.397,21.375z" data-original="#000000" class="active-path" fill="#000000"/>
	</g>
	<g id="Capa_1_36_">
	</g>
</g></g> </svg>
