<?xml version="1.0" encoding="UTF-8"?>
<svg width="57px" height="64px" viewBox="0 0 57 64" version="1.1" xmlns="http://www.w3.org/2000/svg" xmlns:xlink="http://www.w3.org/1999/xlink">
    <!-- Generator: sketchtool 54.1 (76490) - https://sketchapp.com -->
    <title>8C1A6C7D-C0CC-40F0-A335-6C422C480401</title>
    <desc>Created with sketchtool.</desc>
    <g id="Screens" stroke="none" stroke-width="1" fill="none" fill-rule="evenodd">
        <g id="1.-Home" transform="translate(-970.000000, -1655.000000)">
            <g id="2.0-Section" transform="translate(-118.000000, 1030.000000)">
                <g id="USP" transform="translate(1037.000000, 207.000000)">
                    <g id="Icon-3" transform="translate(51.000000, 418.000000)">
                        <path d="M55.9502,44.792 L48.1772,40.691 C47.6632,40.424 47.0252,40.621 46.7502,41.131 C46.4772,41.646 46.6752,42.287 47.1902,42.559 L54.9652,46.659 C55.1192,46.739 55.2852,46.78 55.4572,46.78 C55.8502,46.78 56.2082,46.564 56.3912,46.218 C56.6622,45.702 56.4652,45.063 55.9502,44.792" id="Fill-21" fill="#222D9F"></path>
                        <path d="M1.041,18.2236 L8.818,22.3246 C8.972,22.4046 9.138,22.4456 9.312,22.4456 C9.704,22.4456 10.062,22.2306 10.245,21.8826 C10.518,21.3686 10.319,20.7276 9.805,20.4556 L2.027,16.3566 C1.513,16.0876 0.873,16.2816 0.602,16.7956 C0.468,17.0456 0.44,17.3326 0.524,17.6036 C0.608,17.8726 0.791,18.0936 1.041,18.2236" id="Fill-23" fill="#222D9F"></path>
                        <path d="M41.2207,49.6719 C40.9117,49.1809 40.2577,49.0339 39.7637,49.3409 C39.5257,49.4899 39.3597,49.7239 39.2967,49.9979 C39.2337,50.2749 39.2827,50.5579 39.4327,50.7969 L42.2797,55.3189 C42.4747,55.6279 42.8097,55.8129 43.1747,55.8129 C43.3697,55.8129 43.5637,55.7569 43.7357,55.6509 C43.9737,55.5019 44.1397,55.2689 44.2017,54.9939 C44.2657,54.7179 44.2177,54.4339 44.0677,54.1929 L41.2207,49.6719 Z" id="Fill-25" fill="#222D9F"></path>
                        <path d="M16.7793,13.8945 C16.9743,13.8945 17.1683,13.8385 17.3403,13.7325 C17.8323,13.4215 17.9813,12.7685 17.6723,12.2755 L14.8243,7.7565 C14.5153,7.2655 13.8633,7.1195 13.3683,7.4255 C12.8763,7.7345 12.7263,8.3875 13.0363,8.8835 L15.8833,13.3995 C16.0763,13.7095 16.4113,13.8945 16.7793,13.8945" id="Fill-27" fill="#222D9F"></path>
                        <path d="M41.4297,31.5508 C41.4297,38.6978 35.6147,44.5128 28.4667,44.5128 C21.3217,44.5128 15.5087,38.6978 15.5087,31.5508 C15.5087,24.4038 21.3217,18.5888 28.4667,18.5888 C35.6147,18.5888 41.4297,24.4038 41.4297,31.5508 M28.4667,16.4788 C20.1587,16.4788 13.3987,23.2398 13.3987,31.5508 C13.3987,39.8628 20.1587,46.6238 28.4667,46.6238 C36.7787,46.6238 43.5397,39.8628 43.5397,31.5508 C43.5397,23.2398 36.7787,16.4788 28.4667,16.4788" id="Fill-1" fill="#222D9F"></path>
                        <path d="M28.4961,10.9004 C29.0781,10.9004 29.5511,10.4274 29.5511,9.8454 L29.5511,1.0554 C29.5511,0.4734 29.0781,0.000400000002 28.4961,0.000400000002 C27.9141,0.000400000002 27.4401,0.4734 27.4401,1.0554 L27.4401,9.8454 C27.4401,10.4274 27.9141,10.9004 28.4961,10.9004" id="Fill-3" fill="#222D9F"></path>
                        <path d="M28.4961,52.1748 C27.9141,52.1748 27.4401,52.6488 27.4401,53.2308 L27.4401,62.0208 C27.4401,62.6028 27.9141,63.0748 28.4961,63.0748 C29.0781,63.0748 29.5511,62.6028 29.5511,62.0208 L29.5511,53.2308 C29.5511,52.6488 29.0781,52.1748 28.4961,52.1748" id="Fill-5" fill="#222D9F"></path>
                        <path d="M39.0147,13.251 C39.1767,13.345 39.3547,13.393 39.5417,13.393 C39.9177,13.393 40.2697,13.19 40.4587,12.865 L43.1297,8.242 C43.2707,7.998 43.3087,7.714 43.2357,7.441 C43.1617,7.169 42.9887,6.941 42.7437,6.801 C42.4977,6.658 42.2107,6.62 41.9397,6.695 C41.6677,6.769 41.4417,6.943 41.3027,7.187 L38.6337,11.809 C38.4907,12.051 38.4507,12.333 38.5217,12.605 C38.5937,12.879 38.7687,13.108 39.0147,13.251" id="Fill-7" fill="#222D9F"></path>
                        <path d="M17.9756,49.6963 C17.4736,49.4113 16.8266,49.5823 16.5366,50.0833 L13.8656,54.7093 C13.7246,54.9533 13.6866,55.2383 13.7596,55.5103 C13.8326,55.7833 14.0076,56.0093 14.2516,56.1503 C14.4126,56.2433 14.5956,56.2923 14.7786,56.2923 C15.1546,56.2923 15.5056,56.0903 15.6956,55.7643 L18.3666,51.1363 C18.5076,50.8893 18.5436,50.6033 18.4686,50.3313 C18.3946,50.0603 18.2196,49.8353 17.9756,49.6963" id="Fill-9" fill="#222D9F"></path>
                        <path d="M47.8194,21.7383 L55.4634,17.3953 C55.9664,17.1083 56.1434,16.4633 55.8574,15.9563 C55.7184,15.7113 55.4934,15.5343 55.2214,15.4603 C54.9484,15.3823 54.6624,15.4213 54.4174,15.5613 L46.7734,19.9043 C46.2704,20.1913 46.0934,20.8373 46.3794,21.3433 C46.5634,21.6723 46.9164,21.8763 47.2974,21.8763 C47.4784,21.8763 47.6594,21.8283 47.8194,21.7383" id="Fill-11" fill="#222D9F"></path>
                        <path d="M9.0616,41.3398 L1.4166,45.6838 C1.1706,45.8228 0.9956,46.0508 0.9206,46.3218 C0.8466,46.5938 0.8836,46.8778 1.0236,47.1218 C1.2076,47.4508 1.5586,47.6548 1.9406,47.6548 C2.1256,47.6548 2.3076,47.6078 2.4596,47.5178 L10.1036,43.1748 C10.6076,42.8878 10.7846,42.2408 10.4986,41.7358 C10.2126,41.2318 9.5686,41.0528 9.0616,41.3398" id="Fill-13" fill="#222D9F"></path>
                        <polygon id="Clip-16" points="49.5365391 30.6002 56.988 30.6002 56.988 32.7462 49.5365391 32.7462"></polygon>
                        <path d="M56.6846,30.9502 C56.4876,30.7492 56.2226,30.6382 55.9416,30.6362 L50.5896,30.6002 C50.0126,30.6182 49.5396,31.0882 49.5366,31.6472 C49.5336,31.9292 49.6416,32.1952 49.8396,32.3962 C50.0376,32.5972 50.3016,32.7092 50.5826,32.7112 L55.9336,32.7462 C56.5116,32.7462 56.9846,32.2762 56.9886,31.6992 C56.9916,31.4182 56.8826,31.1512 56.6846,30.9502" id="Fill-15" fill="#222D9F"></path>
                        <polygon id="Clip-19" points="0 30.2631 7.45272729 30.2631 7.45272729 32.4111 0 32.4111"></polygon>
                        <path d="M6.3907,32.4111 L6.3977,32.4111 C6.9757,32.4111 7.4487,31.9411 7.4527,31.3641 C7.4547,31.0831 7.3467,30.8161 7.1487,30.6151 C6.9517,30.4141 6.6867,30.3031 6.4057,30.3011 L1.0547,30.2631 C0.4767,30.2631 0.00370000001,30.7321 -0.000299999993,31.3091 C-0.00229999999,31.5921 0.1057,31.8571 0.3037,32.0571 C0.5007,32.2601 0.7657,32.3711 1.0467,32.3731 L6.3907,32.4111 Z" id="Fill-18" fill="#222D9F"></path>
                    </g>
                </g>
            </g>
        </g>
    </g>
</svg>