<?xml version="1.0" encoding="UTF-8"?>
<svg width="67px" height="51px" viewBox="0 0 67 51" version="1.1" xmlns="http://www.w3.org/2000/svg" xmlns:xlink="http://www.w3.org/1999/xlink">
    <!-- Generator: sketchtool 54.1 (76490) - https://sketchapp.com -->
    <title>6774C404-86EA-44C3-98A6-2D884BBD401D</title>
    <desc>Created with sketchtool.</desc>
    <g id="Screens" stroke="none" stroke-width="1" fill="none" fill-rule="evenodd" opacity="0.848191034">
        <g id="1.-Home" transform="translate(-1317.000000, -1291.000000)">
            <g id="2.0-Section" transform="translate(-118.000000, 1030.000000)">
                <g id="USP" transform="translate(1037.000000, 207.000000)">
                    <g id="Icon-2" transform="translate(398.000000, 54.000000)">
                        <polygon id="Clip-2" points="0 0 67 0 67 51 0 51"></polygon>
                        <path d="M11.398583,46.5051418 L12.6366421,45.2628634 L48.8251771,45.2628634 L50.0632362,46.5051418 L11.398583,46.5051418 Z M15.40813,42.480968 L46.0613612,42.480968 L47.2994203,43.7232464 L14.1729478,43.7203596 L15.40813,42.480968 Z M1.52575682,28.1442474 L1.52575682,22.7815691 C4.75276605,22.5939283 7.80427968,21.2554238 10.1346311,19.0075831 C12.4640235,16.75878 13.9140199,13.7488289 14.2256924,10.5204446 L23.8232878,20.1680693 C21.418135,23.2963785 21.418135,27.6611926 23.8232878,30.7895018 L14.2256924,40.4207681 C13.9159379,37.189497 12.4688184,34.1766591 10.139426,31.9268938 C7.81003364,29.6732795 4.75564303,28.3328505 1.52575682,28.1442474 Z M1.52575682,35.5844463 L1.52575682,29.6780908 C4.44397051,29.8638071 7.19436055,31.1118591 9.26194804,33.1864929 C11.3276175,35.2611268 12.5714306,38.0199279 12.7593931,40.9480869 L6.87309812,40.9480869 C3.9203607,40.9480869 1.52575682,38.5462844 1.52575682,35.5844463 L1.52575682,35.5844463 Z M1.52575682,15.3721625 C1.52575682,12.4093622 3.9203607,10.008522 6.87309812,10.008522 L12.7593931,10.008522 C12.5714306,12.9376432 11.3276175,15.6945198 9.26194804,17.7701159 C7.19436055,19.8447498 4.44397051,21.0928018 1.52575682,21.2785181 L1.52575682,15.3721625 Z M44.5327274,10.008522 L36.0264653,18.5447357 C32.9087812,16.1284994 28.5607099,16.1284994 25.4439848,18.5447357 L16.9377228,10.008522 L44.5327274,10.008522 Z M59.9418164,22.8123614 L59.9418164,28.176002 C56.6965863,28.3694164 53.6364417,29.7666188 51.3588349,32.0962517 C49.0793101,34.42396 47.7443928,37.5205146 47.6110928,40.7796913 L37.6826451,30.8183696 C40.0906749,27.6900604 40.0906749,23.3271709 37.6826451,20.1998239 L47.2447577,10.536803 C47.5535533,13.7680741 49.0006727,16.7799498 51.3310241,19.0306773 C53.6604165,21.2842916 56.7148071,22.6247206 59.9427754,22.8133237 L59.9418164,22.8123614 Z M59.9418164,15.3721625 L59.9418164,21.2794803 C57.0264796,21.089915 54.2780076,19.8428252 52.2132971,17.7681914 C50.1476276,15.6925953 48.9038145,12.9347564 48.718729,10.0094842 L54.597352,10.0094842 C56.0157017,10.0094842 57.3745939,10.5743312 58.3767409,11.5798935 C59.3788879,12.5854558 59.9418164,13.9489791 59.9418164,15.3721625 L59.9418164,15.3721625 Z M59.9418164,35.5844463 C59.9418164,37.008592 59.3788879,38.371153 58.3767409,39.3776776 C57.3745939,40.3832399 56.0157017,40.9480869 54.597352,40.9480869 L49.1215058,40.9480869 C49.2078151,38.0564938 50.3624419,35.2986549 52.3648179,33.2153607 C54.3643169,31.1330288 57.0657983,29.8695806 59.9427754,29.6780908 L59.9418164,35.5844463 Z M25.4439848,32.4041751 C28.5616689,34.8204114 32.9097402,34.8204114 36.0264653,32.4041751 L44.5327274,40.9480869 L16.9367638,40.9480869 L25.4439848,32.4041751 Z M29.1169255,25.4710875 L24.91558,29.6857889 C23.0963716,27.1723642 23.0963716,23.7688485 24.91558,21.2583106 L29.1169255,25.4710875 Z M30.7337866,23.8477538 L26.5334001,19.6320902 L26.5353181,19.6320902 C29.0382881,17.8047573 32.430244,17.8047573 34.935132,19.6320902 L30.7337866,23.8477538 Z M34.935132,31.3168206 C32.430244,33.1451157 29.0382881,33.1451157 26.5353181,31.3168206 L30.7366636,27.1021192 L34.935132,31.3168206 Z M32.3544836,25.4778233 L36.5548701,21.2631219 L36.5519931,21.2631219 C38.3740786,23.7765466 38.3740786,27.1800623 36.5519931,29.693487 L32.3544836,25.4778233 Z M66.242396,14.8968058 C65.8213984,14.8968058 65.4809561,15.2412951 65.4809561,15.6637275 L65.4809561,40.7488989 C65.4809561,43.9205098 63.1064911,46.5032173 60.1882774,46.5032173 L53.3142203,46.5032173 L52.0636943,45.2551653 L57.5232377,45.2551653 C61.3294783,45.1425808 64.3282473,41.9642341 64.2352251,38.1440595 L64.2352251,13.7180366 C64.2352251,13.2946419 63.8919058,12.9511149 63.4709082,12.9511149 C63.0489515,12.9511149 62.7085093,13.2946419 62.7085093,13.7180366 L62.7085093,38.1440595 C62.8034495,41.118407 60.486524,43.6116242 57.5241967,43.7213219 L50.5350605,43.7213219 L49.2970014,42.4790435 L54.597352,42.4819303 C58.3920847,42.4819303 61.4704502,39.3930737 61.4704502,35.5844463 L61.4704502,15.3721625 C61.4704502,11.5644974 58.3920847,8.47564085 54.597352,8.47564085 L49.2989193,8.47564085 L55.8191083,1.93419332 C56.1911973,1.47904406 56.1595506,0.815084253 55.7491018,0.394576373 C55.3348171,-0.0240069852 54.6731124,-0.0605728878 54.2147141,0.30797292 L46.0613612,8.47564085 L15.409089,8.47564085 L7.26820296,0.30797292 C6.81843555,-0.11253496 6.11453517,-0.101950093 5.68011164,0.336840738 C5.24281114,0.775631569 5.22938524,1.47904406 5.65134187,1.93419332 L12.1715308,8.47564085 L6.87309812,8.47564085 C3.07836542,8.47564085 0,11.5644974 0,15.3721625 L0,35.5844463 C0,39.3930737 3.07836542,42.4819303 6.87309812,42.4819303 L12.1734488,42.4819303 L10.9353897,43.7213219 L4.97045731,43.7213219 C4.54850068,43.7213219 4.20614041,44.0658112 4.20614041,44.4882436 C4.20614041,44.9116383 4.54850068,45.2551653 4.97045731,45.2551653 L9.40675589,45.2551653 L8.17157375,46.5032173 L6.69856151,46.5032173 C6.2737279,46.4897456 5.92081872,46.8207633 5.90739283,47.2441579 C5.89204895,47.6665903 6.22194232,48.0207022 6.64293996,48.0370607 L5.65134187,49.0089439 C5.4231017,49.2216035 5.29267874,49.5179797 5.28692478,49.8307144 C5.28212982,50.1405623 5.40296286,50.4427122 5.6225721,50.6630698 C5.84218135,50.8843898 6.14042797,51.0046723 6.45210048,50.999861 C6.76377299,50.9940875 7.05626566,50.8622578 7.26820296,50.634202 L9.8804981,48.0130042 L51.597624,48.0130042 L54.2156731,50.6505604 C54.6711944,51.0681815 55.3750948,51.0498986 55.8066414,50.608221 C56.2410649,50.1646188 56.2468189,49.4573573 55.8200673,49.0089439 L54.8361411,48.0207022 L60.1806055,48.0207022 C63.9369785,48.0207022 67,44.7490162 67,40.7354273 L67,15.6637275 C67,15.2441819 66.6614757,14.9025794 66.242396,14.8968058 Z" id="Fill-1" fill="#222D9F"></path>
                    </g>
                </g>
            </g>
        </g>
    </g>
</svg>