<?xml version="1.0" encoding="UTF-8"?>
<svg width="52px" height="61px" viewBox="0 0 52 61" version="1.1" xmlns="http://www.w3.org/2000/svg" xmlns:xlink="http://www.w3.org/1999/xlink">
    <!-- Generator: sketchtool 54.1 (76490) - https://sketchapp.com -->
    <title>32325EC8-194F-4F4B-861A-02D96D995B3D</title>
    <desc>Created with sketchtool.</desc>
    <g id="Screens" stroke="none" stroke-width="1" fill="none" fill-rule="evenodd">
        <g id="1.-Home" transform="translate(-989.000000, -1291.000000)">
            <g id="2.0-Section" transform="translate(-118.000000, 1030.000000)">
                <g id="USP" transform="translate(1037.000000, 207.000000)">
                    <g id="Icon-1" transform="translate(70.000000, 54.000000)">
                        <path d="M25.5,54.4422004 C15.054419,54.4422004 6.55394437,45.9448466 6.55394437,35.4956214 C6.55394437,25.0512614 15.053446,16.5539075 25.5,16.5539075 C35.945581,16.5539075 44.4470287,25.0512614 44.4470287,35.4995135 C44.4470287,45.9448466 35.946554,54.4422004 25.5,54.4422004 M25.5,15 C14.1981441,15 5,24.1950068 5,35.4995135 C5,46.8030472 14.195225,56 25.5,56 C36.804775,56 46,46.8030472 46,35.4995135 C46,24.1950068 36.804775,15 25.5,15" id="Fill-1" fill="#1F329C"></path>
                        <g id="Group-5">
                            <polygon id="Clip-4" points="0.000192592593 0.1136125 51.3336296 0.1136125 51.3336296 61 0.000192592593 61"></polygon>
                            <path d="M43.2362667,11.1813 L43.7196741,10.7018781 C43.9633037,10.4616906 44.2907111,10.3273 44.6364148,10.3273 C44.9811556,10.3273 45.3056741,10.4616906 45.5493037,10.7018781 L49.2374519,14.3523469 C49.7420444,14.8527375 49.7420444,15.6638469 49.2374519,16.1632844 L48.7530815,16.6417531 C48.2494519,17.1411906 47.4290074,17.1411906 46.9244148,16.6417531 L43.2362667,12.9912844 C42.9936,12.7501437 42.8578222,12.4270344 42.8578222,12.0877219 C42.8578222,11.7426906 42.9936,11.4214875 43.2362667,11.1813 L43.2362667,11.1813 Z M49.7959704,35.5917844 C49.7959704,48.7620656 38.9713037,59.4751906 25.6660444,59.4751906 C12.3607852,59.4751906 1.53708148,48.7620656 1.53708148,35.5917844 C1.53708148,22.4234094 12.3607852,11.7102844 25.6660444,11.7102844 C38.9713037,11.7131437 49.7959704,22.4262687 49.7959704,35.5917844 L49.7959704,35.5917844 Z M20.1107111,6.04395625 L20.1107111,2.91675312 C20.1107111,2.20953437 20.6904148,1.6348 21.4049333,1.6348 L29.9319704,1.6348 C30.6464889,1.6348 31.2261926,2.20953437 31.2261926,2.91675312 L31.2261926,6.04395625 C31.2261926,6.75212812 30.6464889,7.32495625 29.9319704,7.32495625 L21.4049333,7.32495625 C20.6904148,7.32495625 20.1107111,6.75212812 20.1107111,6.04395625 L20.1107111,6.04395625 Z M42.1500444,14.0673625 L43.4500444,15.3550344 L42.4196741,16.373925 C38.1007852,12.6815187 32.5329333,10.3902062 26.4354519,10.2110187 L26.4354519,8.84709687 L29.9290815,8.84709687 C31.4910074,8.84709687 32.7611556,7.58897187 32.7611556,6.04395625 L32.7611556,2.91675312 C32.7611556,1.37078437 31.4910074,0.1136125 29.9290815,0.1136125 L21.4049333,0.116471875 C19.8439704,0.116471875 18.5728593,1.37364375 18.5728593,2.9196125 L18.5728593,6.04681562 C18.5728593,7.59278437 19.8439704,8.85090937 21.4049333,8.85090937 L24.898563,8.85090937 L24.898563,10.2110187 C11.1002667,10.6160969 0.000192592593,21.8439094 0.000192592593,35.5946437 C0.000192592593,49.6027219 11.5153037,61.0001906 25.6670074,61.0001906 C39.8187111,60.9973312 51.3338222,49.6008156 51.3338222,35.5917844 C51.3338222,28.4633625 48.348637,22.0183312 43.5559704,17.3994875 L44.5372296,16.4273 L45.8381926,17.7140187 C46.3899704,18.2620656 47.1141185,18.5356125 47.8411556,18.5356125 C48.5653037,18.5356125 49.2923407,18.2620656 49.8412296,17.7140187 L50.324637,17.2365031 C51.4301185,16.1423156 51.4301185,14.3647375 50.324637,13.2734094 L46.6364889,9.62294062 C45.5676,8.56497187 43.7023407,8.56497187 42.6334519,9.62294062 L42.1500444,10.1014094 C41.614637,10.6303937 41.3209333,11.3347531 41.3209333,12.0839094 C41.3209333,12.8330656 41.614637,13.5383781 42.1500444,14.0664094 L42.1500444,14.0673625 Z" id="Fill-3" fill="#1F329C"></path>
                        </g>
                        <path d="M24.9999978,38.511764 C23.629409,38.511764 22.5126679,37.4109922 22.5126679,36.0600025 C22.5126679,34.7090128 23.629409,33.608241 24.9999978,33.608241 C26.3705867,33.608241 27.4873278,34.7090128 27.4873278,36.0600025 C27.4901694,37.4109922 26.3734283,38.511764 24.9999978,38.511764 M25.7558582,32.1900286 L25.7558582,25.7459853 C25.7558582,25.3361135 25.4167629,25 25,25 C24.5841799,25 24.2441375,25.3361135 24.2441375,25.7459853 L24.2441375,32.1900286 C22.3971103,32.5401469 21,34.1376198 21,36.0572015 C21,38.232603 22.7958787,40 25,40 C27.2069585,40 28.9999957,38.2288684 28.9999957,36.0572015 C29.0028373,34.1376198 27.6028854,32.5401469 25.7558582,32.1900286" id="Fill-6" fill="#1F329C"></path>
                        <path d="M25,22 C25.5513784,22 26,21.7056573 26,21.344903 L26,19.655097 C26,19.2943427 25.5513784,19 25,19 C24.4498747,19 24,19.2943427 24,19.655097 L24,21.344903 C24,21.7056573 24.4498747,22 25,22" id="Fill-8" fill="#1F329C"></path>
                        <path d="M18.1353318,21.3541136 C17.9669782,21.0162843 17.5959909,20.9001277 17.3042288,21.0934264 C17.0139903,21.2902718 16.914197,21.7212037 17.0802652,22.0616931 L17.8648995,23.6462102 C17.9784049,23.8732032 18.1825622,24 18.3920519,24 C18.4941306,24 18.5984945,23.9698525 18.6960025,23.9060107 C18.986241,23.710052 19.0860343,23.2782334 18.9192043,22.9386307 L18.1353318,21.3541136 Z" id="Fill-10" fill="#1F329C"></path>
                        <path d="M11.353662,28.1344922 L12.9373623,28.9184777 C13.0481415,28.9740957 13.1695556,29 13.2909697,29 C13.534684,29 13.7748535,28.8902877 13.9042436,28.6952437 C14.1009876,28.4057253 13.9848909,28.0323989 13.6445771,27.864021 L12.0608768,27.0823212 C11.7214491,26.9131815 11.2898531,27.0129892 11.0939954,27.3055552 C10.8999102,27.5950736 11.0160068,27.9684001 11.353662,28.1344922" id="Fill-12" fill="#1F329C"></path>
                        <path d="M12,35.4996869 C12,35.2247965 11.7063969,35 11.345544,35 L9.65445599,35 C9.29360306,35 9,35.2247965 9,35.4996869 C9,35.7752035 9.29360306,36 9.65445599,36 L11.345544,36 C11.7063969,36 12,35.777082 12,35.4996869" id="Fill-14" fill="#1F329C"></path>
                        <path d="M12.9383536,42.0817907 L11.3539063,42.8647488 C11.0169786,43.0336669 10.8999405,43.4034605 11.0932306,43.6956431 C11.2262284,43.8904315 11.4638512,44 11.7076805,44 C11.8264919,44 11.9515099,43.9733688 12.0614547,43.9185845 L13.645902,43.1333438 C13.9837164,42.9651866 14.0998679,42.5946321 13.9065777,42.3024494 C13.7097409,42.0133104 13.2752814,41.9136335 12.9383536,42.0817907" id="Fill-16" fill="#1F329C"></path>
                        <path d="M18.6966632,47.0958431 C18.4042908,46.898921 18.0342568,47.0151227 17.865229,47.3557447 L17.0817621,48.9382175 C16.9134956,49.2761784 17.0132373,49.7099391 17.3048484,49.9068612 C17.4000217,49.9698408 17.5043317,50 17.6086417,50 C17.818023,50 18.0220746,49.8740408 18.1362826,49.6469595 L18.9197495,48.0644867 C19.0857318,47.7238648 18.9859902,47.2927651 18.6966632,47.0958431" id="Fill-18" fill="#1F329C"></path>
                        <path d="M25,49 C24.4498747,49 24,49.2943427 24,49.655097 L24,51.344903 C24,51.7056573 24.4498747,52 25,52 C25.5513784,52 26,51.7056573 26,51.344903 L26,49.655097 C26,49.2910631 25.5551378,49 25,49" id="Fill-20" fill="#1F329C"></path>
                        <path d="M34.1353433,47.3541902 C33.966992,47.0160307 33.5960097,46.8997607 33.3034897,47.0941358 C33.0140169,47.2911736 32.9142249,47.7225267 33.0802909,48.0633489 L33.8649147,49.646752 C33.9784186,49.8730792 34.1825731,50 34.3920601,50 C34.4941373,50 34.5984999,49.969823 34.6960066,49.9068064 C34.9862412,49.7097686 35.0860332,49.2784155 34.9192054,48.9375933 L34.1353433,47.3541902 Z" id="Fill-22" fill="#1F329C"></path>
                        <path d="M39.6450381,42.8665175 L38.0625299,42.0819742 C37.7251289,41.9132062 37.2920867,42.0135548 37.0954908,42.3047176 C36.8988949,42.59436 37.0157898,42.9661058 37.3549619,43.1348738 L38.9374701,43.9194171 C39.0481659,43.9741526 39.1694886,44 39.2916969,44 C39.5343422,44 39.7716742,43.8912891 39.9045092,43.6966737 C40.1011051,43.4077915 39.9842102,43.0352855 39.6450381,42.8665175" id="Fill-24" fill="#1F329C"></path>
                        <path d="M39,35.4996869 C39,35.7752035 39.2936031,36 39.654456,36 L41.345544,36 C41.7063969,36 42,35.7752035 42,35.4996869 C42,35.2247965 41.7063969,35 41.345544,35 L39.654456,35 C39.2911427,35 39,35.2247965 39,35.4996869" id="Fill-26" fill="#1F329C"></path>
                        <path d="M37.0951655,28.6963542 C37.2280959,28.8911745 37.4655982,29 37.7084177,29 C37.8280551,29 37.9521234,28.9741254 38.0628987,28.9200932 L39.6465428,28.1347235 C39.9832997,27.9657777 40.1002785,27.5959233 39.9062001,27.3036927 C39.7103493,27.0137452 39.2761101,26.914052 38.9393531,27.0807147 L37.3548229,27.8660844 C37.0154073,28.0342692 36.8993147,28.4071676 37.0951655,28.6963542" id="Fill-28" fill="#1F329C"></path>
                        <path d="M34.6962363,21.0957581 C34.4046985,20.8990106 34.0339965,21.0151093 33.8657724,21.3554294 L33.0817415,22.9391585 C32.9135174,23.2768198 33.0132339,23.7101962 33.3047717,23.9069437 C33.399921,23.9698675 33.504966,24 33.6092497,24 C33.8178171,24 34.0248622,23.8732662 34.1359967,23.6472724 L34.9192664,22.0626571 C35.0859681,21.725882 34.9862516,21.2916194 34.6962363,21.0957581" id="Fill-30" fill="#1F329C"></path>
                    </g>
                </g>
            </g>
        </g>
    </g>
</svg>