<?xml version="1.0" encoding="UTF-8"?>
<svg width="54px" height="53px" viewBox="0 0 54 53" version="1.1" xmlns="http://www.w3.org/2000/svg" xmlns:xlink="http://www.w3.org/1999/xlink">
    <!-- Generator: sketchtool 54.1 (76490) - https://sketchapp.com -->
    <title>8F151BC0-BFCF-401C-A6B2-7FE56276A97A</title>
    <desc>Created with sketchtool.</desc>
    <g id="Screens" stroke="none" stroke-width="1" fill="none" fill-rule="evenodd">
        <g id="1.-Home" transform="translate(-1343.000000, -1655.000000)">
            <g id="2.0-Section" transform="translate(-118.000000, 1030.000000)">
                <g id="USP" transform="translate(1037.000000, 207.000000)">
                    <g id="Icon-4" transform="translate(424.000000, 418.000000)">
                        <polygon id="Clip-2" points="0 0 54 0 54 53 0 53"></polygon>
                        <path d="M50.0766436,42.6233771 L52.1886201,40.5531105 L52.1886201,42.6233771 L50.0766436,42.6233771 Z M45.2952967,37.8400027 L52.1886201,31.0839936 L52.1886201,38.0405597 L47.5146721,42.6216126 L45.2976967,42.6216126 L45.2952967,37.8400027 Z M43.4839168,51.2202765 L1.81257986,51.2202765 L1.81257986,10.3719178 L8.70530327,10.3719178 L8.70530327,14.7530018 L8.70530327,43.5108862 C8.70530327,44.0025745 9.11089877,44.4001598 9.61249319,44.4001598 L43.4863168,44.4001598 L43.4839168,51.2202765 Z M10.5172831,6.60015092 L15.0850324,2.12261136 C15.1882312,2.02145061 15.2560305,1.90440997 15.30103,1.77560645 L21.5703603,1.77560645 L14.6116376,8.59689948 L10.5166831,8.59689948 L10.5172831,6.60015092 Z M12.8752569,1.77560645 L10.5172831,4.08701201 L10.5172831,1.77560645 L12.8752569,1.77560645 Z M45.2958967,28.253257 L52.1886201,21.595468 L52.1886201,28.5726191 L45.2958967,35.3298045 L45.2958967,28.253257 Z M43.4839168,20.6785516 L43.4839168,27.5092549 L27.8324908,42.6233771 L21.0963656,42.6233771 L43.4839168,20.6785516 Z M43.4839168,11.3147125 L43.4839168,18.1671771 L18.6615926,42.4992787 C18.6219931,42.5380962 18.5889935,42.5798544 18.5583938,42.6233771 L11.9188676,42.6233771 L43.4839168,11.3147125 Z M10.5172831,12.6103935 L10.5172831,10.3725059 L12.8002578,10.3725059 L10.5172831,12.6103935 Z M22.4583505,10.3725059 L10.5172831,22.0771578 L10.5172831,15.1211798 L15.3616293,10.3725059 L22.4583505,10.3725059 Z M33.930823,8.59689948 L26.8341018,8.59689948 L33.6146265,1.94793262 C33.6686259,1.89499967 33.7106254,1.83500899 33.748425,1.77560645 L40.8871457,1.77560645 L33.930823,8.59689948 Z M43.6759147,8.59689948 L36.4921945,8.59689948 L43.2793191,1.94322747 C43.3309185,1.89264709 43.3729181,1.83500899 43.4107177,1.77560645 L50.5518383,1.77560645 L43.6759147,8.59689948 Z M10.5166831,34.0588255 L34.6802147,10.3725059 L41.8849346,10.3725059 L10.5166831,41.4864949 L10.5166831,34.0588255 Z M10.5166831,24.5820627 C10.530483,24.570888 10.5472828,24.5614777 10.5610827,24.5479504 L25.022122,10.3725059 L32.1188431,10.3725059 L10.5166831,31.5480392 L10.5166831,24.5820627 Z M52.1880201,9.63497348 L45.2952967,16.3915707 L45.2952967,9.51558026 L52.1880201,2.68075993 L52.1880201,9.63497348 Z M52.1880201,19.1035022 L45.2952967,25.7583505 L45.2952967,18.9029452 L52.1880201,12.1469361 L52.1880201,19.1035022 Z M24.0915323,1.7761946 L31.228453,1.7761946 L24.2697303,8.59689948 L17.1730092,8.59689948 L23.9601338,1.94381561 C24.0117332,1.89323524 24.0537327,1.83559713 24.0915323,1.7761946 L24.0915323,1.7761946 Z M43.4833169,39.6173735 L43.4833169,42.6245533 L40.4155509,42.6245533 L43.4833169,39.6173735 Z M37.9969778,42.4845751 C37.9519783,42.5280977 37.9123788,42.573973 37.8793791,42.6245533 L30.4124621,42.6245533 L43.4833169,30.002397 L43.4833169,37.1054109 L37.9969778,42.4845751 Z M53.0922101,0 L9.60949323,0 C9.1078988,0 8.70230331,0.397585281 8.70230331,0.889273587 L8.70230331,8.59689948 L0.90718992,8.59689948 C0.405595493,8.59689948 0,8.99448476 0,9.48617307 L0,52.1107264 C0,52.6024147 0.405595493,53 0.90718992,53 L44.3905068,53 C44.8921012,53 45.2976967,52.6024147 45.2976967,52.1107264 L45.2952967,44.4001598 L53.0928101,44.4001598 C53.5944045,44.4001598 54,44.0031627 54,43.5114744 L54,0.886921011 C54,0.397585281 53.5944045,0 53.0928101,0 L53.0922101,0 Z" id="Fill-1" fill="#222D9F"></path>
                    </g>
                </g>
            </g>
        </g>
    </g>
</svg>