<svg xmlns="http://www.w3.org/2000/svg" width="20" height="20" viewBox="0 0 20 20"><g><g><path fill="#233488" d="M12.5 11.565a2.903 2.903 0 0 1-2.511 1.44 2.774 2.774 0 0 1-1.457-.4 2.995 2.995 0 0 1-1.055-1.063 2.81 2.81 0 0 1-.39-1.451c0-.526.13-1.01.39-1.451A2.904 2.904 0 0 1 9.99 7.2 2.877 2.877 0 0 1 12.5 8.65c.26.45.39.933.39 1.451 0 .534-.13 1.021-.39 1.463zm-.539 1.931a3.813 3.813 0 0 0 1.433-1.417 3.828 3.828 0 0 0 .528-1.965c0-.709-.176-1.364-.528-1.966a3.988 3.988 0 0 0-1.433-1.44 3.799 3.799 0 0 0-1.972-.537 3.86 3.86 0 0 0-1.984.537 3.961 3.961 0 0 0-1.445 1.44 3.828 3.828 0 0 0-.528 1.966c0 .708.176 1.364.528 1.965a3.79 3.79 0 0 0 1.445 1.417 4.013 4.013 0 0 0 1.995.515c.703 0 1.357-.172 1.961-.514zm6.042-8.603c-.115.114-.273.171-.472.171h-2.116a.61.61 0 0 1-.449-.17c-.115-.115-.172-.27-.172-.468V2.329c0-.197.053-.357.16-.478.108-.122.261-.183.46-.183.721-.015 1.435-.015 2.14 0a.61.61 0 0 1 .449.171c.115.114.172.27.172.468v2.119c0 .197-.057.353-.172.467zm-16.329.044V.754l-.091.023C.635 1.508.123 2.43.046 3.543c-.03.29-.046.64-.046 1.051 0 .884.008 1.234.023 1.051v.869l.115.023h6.078c.076 0 .152-.038.229-.114a5.382 5.382 0 0 1 2.27-1.246 4.967 4.967 0 0 1 2.524-.012 5.276 5.276 0 0 1 2.27 1.235.396.396 0 0 0 .321.137h6.147c0 .198.008-.267.023-1.394 0-.534-.008-.99-.023-1.372a3.653 3.653 0 0 0-.562-1.874A4.045 4.045 0 0 0 17.993.514 3.74 3.74 0 0 0 16.078 0H5.229v4.937h-.825V.023h-.528v4.914H3.05V.114L2.844.16c-.183.06-.29.11-.321.149-.03.038-.046.14-.046.308v4.32zM15.07 9.69c.061.808-.069 1.6-.39 2.377a4.85 4.85 0 0 1-1.285 1.828 5.017 5.017 0 0 1-1.926 1.075 5.196 5.196 0 0 1-2.19.171 4.875 4.875 0 0 1-2.076-.788 4.897 4.897 0 0 1-2.041-2.56c-.55-1.6-.337-3.14.642-4.617H0v8.96c0 .7.18 1.348.539 1.942.36.594.837 1.067 1.433 1.417a3.62 3.62 0 0 0 1.95.503h12.156c.703 0 1.353-.171 1.95-.514a3.865 3.865 0 0 0 1.422-1.406 3.746 3.746 0 0 0 .527-1.943V7.154h-5.803c.52.808.818 1.653.895 2.537z"/></g></g></svg>