<svg xmlns="http://www.w3.org/2000/svg" width="20" height="20" viewBox="0 0 20 20"><g><g><path fill="#233488" d="M12.994 14.926a.621.621 0 0 1-.297.205c-.167.061-.35.046-.548-.045l-2.56-1.943-1.555-1.234v-.046l4.755-4.297.137-.206c0-.091-.061-.114-.183-.069l-.16.069-6.057 3.84-2.515-.846-.205-.114c-.137-.091-.214-.198-.229-.32a.262.262 0 0 1 .08-.24.915.915 0 0 1 .24-.171L14.046 5.53l.205-.068c.168-.046.305-.053.412-.023.137.03.206.137.206.32l-1.783 9.006c-.03.045-.061.099-.092.16zM4.95 1.37A9.882 9.882 0 0 0 1.36 4.96 9.706 9.706 0 0 0 0 10.011a10.003 10.003 0 0 0 1.36 5.052A9.882 9.882 0 0 0 4.95 18.65 9.916 9.916 0 0 0 10 20c1.813 0 3.497-.45 5.051-1.349a9.882 9.882 0 0 0 3.589-3.588A10.003 10.003 0 0 0 20 10.01a9.706 9.706 0 0 0-1.36-5.051 9.882 9.882 0 0 0-3.589-3.589A9.916 9.916 0 0 0 10 .023V0a10.09 10.09 0 0 0-5.051 1.371z"/></g></g></svg>