<svg xmlns="http://www.w3.org/2000/svg" width="25" height="20" viewBox="0 0 25 20"><g><g><path fill="#233488" d="M25 2.363a10.678 10.678 0 0 1-2.568 2.644v.647c0 1.688-.314 3.376-.942 5.063a15.047 15.047 0 0 1-2.797 4.614 13.854 13.854 0 0 1-4.566 3.375C12.205 19.57 10.122 20 7.877 20c-1.427 0-2.816-.197-4.167-.59A14.286 14.286 0 0 1 0 17.75c.4.037.809.056 1.227.056 1.18 0 2.312-.188 3.396-.563a10.69 10.69 0 0 0 2.968-1.575 5.175 5.175 0 0 1-2.968-1.027 4.876 4.876 0 0 1-1.798-2.49 5.365 5.365 0 0 0 2.283-.084 4.99 4.99 0 0 1-2.083-.942 5.03 5.03 0 0 1-1.47-1.772A5.218 5.218 0 0 1 1 7.117v-.085a4.87 4.87 0 0 0 2.34.647 5.127 5.127 0 0 1-1.67-1.814 4.895 4.895 0 0 1-.613-2.405c0-.9.228-1.744.685-2.532a14.576 14.576 0 0 0 4.652 3.713A14.633 14.633 0 0 0 12.3 6.217a5.785 5.785 0 0 1-.114-1.154c0-.919.228-1.762.685-2.531a5.142 5.142 0 0 1 1.87-1.843C15.53.23 16.38 0 17.294 0c.723 0 1.407.14 2.054.422a5.044 5.044 0 0 1 1.684 1.181A10.057 10.057 0 0 0 24.287.366c-.19.6-.48 1.139-.87 1.617s-.852.877-1.385 1.196A10.531 10.531 0 0 0 25 2.363z"/></g></g></svg>