<svg height="512pt" viewBox="-29 0 512 512" width="512pt" xmlns="http://www.w3.org/2000/svg" style="fill: #fff;"><path d="m452.875 353.328125c-1.84375-6.785156-5.347656-12.832031-10.15625-17.703125l5.808594-10.140625c7.351562-12.832031 3.039062-29.265625-9.585938-36.851563-.132812-.085937-.269531-.167968-.40625-.246093l-56.261718-32.234375c.003906-.347656.011718-.691406.015624-1.035156l56.730469-33.066407c.167969-.097656.332031-.199219.488281-.308593 12.5-7.710938 16.648438-24.125 9.222657-36.863282l-5.886719-10.09375c4.773438-4.90625 8.234375-10.976562 10.027344-17.777344 2.742187-10.410156 1.265625-21.265624-4.15625-30.5625-9.292969-15.9375-27.914063-23.121093-44.957032-18.695312l-5.226562-8.957031c-7.523438-12.90625-24.148438-17.289063-37.074219-9.769531l-11.042969 6.4375c-3.578124 2.082031-4.789062 6.675781-2.703124 10.253906 2.085937 3.578125 6.679687 4.789062 10.257812 2.703125l11.039062-6.433594c5.773438-3.359375 13.203126-1.402344 16.566407 4.363281l4.570312 7.835938c-7.484375 5.441406-12.828125 13.222656-15.21875 22.289062-.007812.03125-.011719.058594-.019531.089844l-3.125-5.359375-1.121094-1.929687c-1-1.71875-2.644531-2.972657-4.566406-3.480469-1.925781-.511719-3.972656-.230469-5.695312.769531l-26.480469 15.433594c-4.304688-4.082032-8.839844-7.921875-13.585938-11.492188l11.949219-6.792968c3.597656-2.046876 4.859375-6.625 2.8125-10.226563-2.050781-3.601563-6.628906-4.859375-10.226562-2.8125l-18.457032 10.492187c-.988281-.589843-1.980468-1.167968-2.980468-1.734374v-62.910157c0-.167969-.003907-.332031-.015626-.5-.320312-14.707031-12.425781-26.597656-27.203124-26.597656h-11.703126c-4.761718-16.953125-20.347656-29.421875-38.800781-29.421875s-34.039062 12.46875-38.800781 29.421875h-10.367188c-14.949218 0-27.113281 12.15625-27.113281 27.097656v63.910157c-.664062.386718-1.324219.777343-1.980469 1.171874l-15.878906-9.097656c-3.59375-2.058594-8.175781-.816406-10.238281 2.777344-2.058594 3.59375-.8125 8.175781 2.78125 10.234375l9.535156 5.464844c-4.765625 3.625-9.316406 7.511719-13.628906 11.652343l-26.339844-15.09375c-3.585937-2.054687-8.160156-.820312-10.222656 2.757813l-4.21875 7.351563c-.007813-.027344-.011719-.054688-.019531-.085938-2.457032-9.050781-7.855469-16.792969-15.382813-22.175781l4.507813-7.867188c3.320312-5.792969 10.742187-7.804687 16.539062-4.484375l14.46875 8.292969c3.59375 2.058594 8.175782.816406 10.234375-2.777344 2.058594-3.597656.816407-8.179687-2.777343-10.238281l-14.46875-8.292969c-12.976563-7.429687-29.578126-2.925781-37.007813 10.042969l-5.15625 8.992188c-17.074219-4.296876-35.644531 3.019531-44.816406 19.027343-5.355469 9.339844-6.75 20.203125-3.929688 30.589844 1.839844 6.789063 5.347657 12.832031 10.15625 17.707031l-5.808593 10.132813c-2.363282 4.117187-3.609376 8.789062-3.609376 13.515625 0 9.679687 5.199219 18.707031 13.597657 23.578125l56.5625 32.414062c.007812 1.042969.027343 2.085938.058593 3.125l-55.515624 30.722657c-.214844.121093-.425782.25-.625.390624-12.507813 7.707032-16.660157 24.125-9.230469 36.855469l5.886719 10.101563c-4.773438 4.90625-8.234376 10.976562-10.027344 17.78125-2.742188 10.40625-1.265625 21.261718 4.15625 30.558594 7.476562 12.832031 21.003906 19.992187 34.882812 19.992187 3.367188 0 6.75-.425781 10.078125-1.289063l5.222657 8.953126c3.644531 6.253906 9.507812 10.714843 16.511718 12.558593 2.300782.601563 4.632813.902344 6.949219.902344 4.734375 0 9.410156-1.25 13.613281-3.699219l55.140625-32.132812v64.632812c0 .167969.003907.335938.019531.5.316407 14.714844 12.421876 26.609375 27.199219 26.609375h11.707031c4.757813 16.949219 20.34375 29.417969 38.796876 29.417969 18.453124 0 34.039062-12.46875 38.800781-29.417969h10.367187c14.949219 0 27.113282-12.164062 27.113282-27.109375v-11.78125c0-4.144531-3.359376-7.5-7.5-7.5-4.144532 0-7.5 3.355469-7.5 7.5v11.78125c0 6.675782-5.4375 12.109375-12.113282 12.109375h-9.074218c-.972657-9.503906-5.257813-18.039062-11.683594-24.429687h8.480468c4.140626 0 7.5-3.355469 7.5-7.5v-32.753906c5.777344-1.722657 11.414063-3.773438 16.890626-6.132813v14.421875c0 4.144531 3.359374 7.5 7.5 7.5 4.144531 0 7.5-3.355469 7.5-7.5v-21.871094c.257812-.144531.515624-.285156.769531-.433594l57.765625 33.097657c4.242187 2.429687 8.867187 3.582031 13.4375 3.582031 9.410156 0 18.570312-4.894531 23.570312-13.625l5.152344-8.988281c3.234375.8125 6.519531 1.222656 9.789062 1.222656 13.984376 0 27.59375-7.277344 35.03125-20.253906 5.351563-9.335938 6.75-20.203125 3.929688-30.589844zm-22.117188-52.109375c.097657.058594.191407.117188.289063.175781 5.792969 3.355469 7.796875 10.820313 4.464844 16.632813l-5.171875 9.027344c-8.730469-3.886719-18.269532-4.410157-27.007813-2.015626l4.929688-8.601562c.988281-1.722656 1.25-3.773438.730469-5.691406-.523438-1.921875-1.785157-3.554688-3.511719-4.542969l-27.441407-15.71875c1.382813-5.769531 2.441407-11.667969 3.15625-17.664063zm-203.457031 93.121094c-77.195312 0-140-62.789063-140-139.96875 0-77.175782 62.804688-139.964844 140-139.964844 76.0625 0 138.148438 60.960938 139.953125 136.582031v.105469c.027344 1.089844.042969 2.183594.042969 3.277344 0 77.179687-62.800781 139.96875-139.996094 139.96875zm-163.347656-77.640625 17.402344-10.136719c2.660156 7.410156 5.863281 14.566406 9.570312 21.410156l-3.476562 2.027344c-3.578125 2.085938-4.789063 6.675781-2.703125 10.253906 1.390625 2.394532 3.90625 3.726563 6.484375 3.726563 1.28125 0 2.582031-.328125 3.769531-1.019531l3.707031-2.160157c4.125 6.117188 8.679688 11.925781 13.613281 17.382813l-18.046874 10.519531zm192.585937-214.515625c-7.597656-1.457032-15.390624-2.355469-23.332031-2.652344v-2.089844c0-4.140625-3.359375-7.5-7.5-7.5s-7.5 3.359375-7.5 7.5v2.238282c-7.449219.433593-14.757812 1.386718-21.886719 2.839843v-18.671875h60.21875zm100.097657 237.488281 4.019531 2.300781c1.175781.675782 2.457031.996094 3.722656.996094 2.601563 0 5.128906-1.355469 6.515625-3.773438 2.058594-3.59375.8125-8.175781-2.78125-10.234374l-3.8125-2.1875c3.652344-6.875 6.796875-14.054688 9.394531-21.492188l17.820313 10.207031-29.941406 52.230469-18.398438-10.546875c4.886719-5.5 9.386719-11.347656 13.460938-17.5zm32.792969-199.375c1.722656-6.535156 5.886718-12.007813 11.722656-15.410156 4-2.328125 8.378906-3.4375 12.703125-3.4375 8.714843 0 17.207031 4.496093 21.902343 12.550781 3.402344 5.835938 4.328126 12.648438 2.605469 19.183594-1.722656 6.535156-5.882812 12.003906-11.722656 15.410156-12.054687 7.019531-27.574219 2.933594-34.601563-9.117188-3.40625-5.835937-4.332031-12.648437-2.609374-19.179687zm24.535156 46.730469c5.585937 0 11.222656-1.183594 16.550781-3.601563l5.253906 9.007813c3.375 5.785156 1.425781 13.261718-4.347656 16.667968-.121094.070313-.238281.144532-.351563.222657l-49.609374 28.914062c-.632813-6.0625-1.617188-12.019531-2.929688-17.855469l27.289062-15.910156c1.71875-1 2.96875-2.644531 3.476563-4.566406.507813-1.925781.230469-3.972656-.773437-5.6875l-4.992188-8.566406c3.390625.90625 6.898438 1.375 10.433594 1.375zm-52.496094-43.726563 30.316406 51.992188-17.410156 10.152343c-2.5-7.492187-5.554688-14.734374-9.121094-21.671874l3.039063-1.773438c3.578125-2.085938 4.789062-6.675781 2.703125-10.253906-2.085938-3.578125-6.675782-4.789063-10.253906-2.703125l-2.980469 1.734375c-3.984375-6.1875-8.394531-12.082032-13.191407-17.628906zm-73.050781-86.742187c0 .121094.003906.238281.011719.355468v55.066407c-5.476563-2.359375-11.113282-4.410157-16.894532-6.132813v-29.5c0-4.140625-3.355468-7.5-7.5-7.5h-9.921875c6.421875-6.386718 10.714844-14.921875 11.683594-24.425781h10.414063c6.699218 0 12.175781 5.441406 12.207031 12.136719zm-62.710938-41.558594c13.953125 0 25.300781 11.347656 25.300781 25.296875 0 13.945313-11.347656 25.292969-25.300781 25.292969s-25.300781-11.347656-25.300781-25.292969c0-13.949219 11.347656-25.296875 25.300781-25.296875zm-61.28125 41.519531c0-6.671875 5.4375-12.097656 12.113281-12.097656h9.074219c.972657 9.503906 5.261719 18.039063 11.6875 24.425781h-8.480469c-4.144531 0-7.5 3.359375-7.5 7.5v30.019532c-5.785156 1.800781-11.421874 3.9375-16.894531 6.375zm-71.707031 87.761719 16.710938 9.574219c-4.765626 5.582031-9.144532 11.5-13.089844 17.71875l-2.699219-1.546875c-3.59375-2.058594-8.175781-.816406-10.234375 2.777344-2.0625 3.59375-.816406 8.179687 2.777344 10.238281l2.738281 1.566406c-3.523437 6.960937-6.535156 14.21875-8.988281 21.730469l-17.152344-9.824219zm-74.351562-8.742188c4.671874-8.144531 13.214843-12.710937 21.996093-12.710937 4.261719 0 8.582031 1.078125 12.539063 3.34375 5.863281 3.359375 10.066406 8.800781 11.835937 15.320313 1.769531 6.523437.894531 13.339843-2.464843 19.203124-6.9375 12.101563-22.429688 16.304688-34.535157 9.367188-5.863281-3.359375-10.066406-8.800781-11.835937-15.320312-1.769532-6.519532-.894532-13.339844 2.464844-19.203126zm-1.203126 64.488282c0-2.113282.558594-4.203125 1.621094-6.054688l5.1875-9.046875c5.25 2.335938 10.792969 3.480469 16.28125 3.480469 3.632813 0 7.242188-.503906 10.722656-1.460938l-4.9375 8.617188c-.988281 1.726562-1.253906 3.773438-.730468 5.695312.519531 1.917969 1.78125 3.550782 3.507812 4.542969l27.050782 15.492188c-1.273438 5.835937-2.222657 11.792969-2.816407 17.851562l-49.796875-28.535156c-3.757812-2.179687-6.089844-6.234375-6.089844-10.582031zm7.15625 102.871094c.066407-.039063.136719-.082032.207032-.125l49.226562-27.246094c.753906 5.523437 1.804688 10.953125 3.128906 16.277344l-26.960937 15.710937c-1.71875 1.003906-2.96875 2.644531-3.476563 4.570313-.507812 1.921874-.230468 3.96875.773438 5.6875l4.996094 8.570312c-8.761719-2.335938-18.296875-1.742188-27 2.207031l-5.246094-9c-3.371094-5.777343-1.421875-13.246093 4.351562-16.652343zm-4.335937 75.101562c-3.402344-5.839844-4.328125-12.648438-2.609375-19.183594 1.722656-6.535156 5.886719-12.007812 11.726562-15.410156 3.996094-2.328125 8.375-3.4375 12.699219-3.4375 8.714844 0 17.207031 4.496094 21.902344 12.550781 3.402344 5.835938 4.332031 12.652344 2.609375 19.183594-1.722656 6.535156-5.886719 12.007813-11.722656 15.410156-12.058594 7.023438-27.578125 2.933594-34.605469-9.113281zm66.746094 32.007812c-2.796875 1.632813-6.058594 2.078126-9.1875 1.253907-3.128907-.824219-5.746094-2.816407-7.375-5.605469l-4.570313-7.839844c7.484375-5.441406 12.828125-13.222656 15.21875-22.289062.007813-.03125.011719-.058594.019532-.089844l3.125 5.359375 1.121093 1.929687c1 1.722657 2.640625 2.976563 4.566407 3.484376.632812.167968 1.277343.25 1.917968.25 1.316406 0 2.621094-.347657 3.777344-1.023438l27.933594-16.28125c4.464844 4.050781 9.167968 7.839844 14.082031 11.355469zm140.417969 86.992188c-13.949219 0-25.300782-11.347656-25.300782-25.296875 0-13.945313 11.351563-25.292969 25.300782-25.292969 13.953124 0 25.304687 11.347656 25.304687 25.292969 0 13.949219-11.351563 25.296875-25.304687 25.296875zm-40.09375-29.417969h-10.410157c-6.699219 0-12.175781-5.449219-12.207031-12.148437 0-.117188-.003906-.238282-.011719-.355469v-59.074219c5.472657 2.4375 11.109375 4.574219 16.894531 6.375v33.273438c0 4.144531 3.355469 7.5 7.5 7.5h9.921876c-6.425782 6.390625-10.714844 14.925781-11.6875 24.429687zm69.484374-39.429687h-60.21875v-21.925782c7.589844 1.546876 15.382813 2.535157 23.328126 2.921876v5.410156c0 4.140625 3.359374 7.5 7.5 7.5 4.144531 0 7.5-3.359375 7.5-7.5v-5.398438c7.445312-.347656 14.753906-1.230468 21.890624-2.597656zm112.878907-19.1875-51.070313-29.261719c4.878906-3.554687 9.542969-7.382813 13.972656-11.46875l28.300782 16.226563c1.175781.671874 2.457031.992187 3.722656.992187 2.597656 0 5.121094-1.351563 6.511719-3.765625l4.207031-7.339844c.007812.027344.011719.058594.019531.085938 2.457031 9.050781 7.859375 16.792968 15.382813 22.175781l-4.507813 7.871094c-3.320312 5.792969-10.742187 7.804687-16.539062 4.484375zm66.511719-32.503906c-6.933594 12.101562-22.429688 16.304687-34.53125 9.367187-5.863282-3.359375-10.070313-8.800781-11.839844-15.320313-1.769532-6.523437-.894532-13.34375 2.46875-19.203124 6.9375-12.105469 22.425781-16.308594 34.53125-9.367188 5.863281 3.359375 10.070312 8.800781 11.839844 15.320312 1.769531 6.519532.894531 13.339844-2.46875 19.203126zm0 0"/><path d="m198.765625 193.957031-46.761719-6.542969c-2.894531-.402343-5.773437.34375-8.105468 2.101563-2.335938 1.761719-3.84375 4.324219-4.246094 7.21875l-8.1875 58.480469c-.40625 2.894531.339844 5.773437 2.101562 8.109375 1.761719 2.332031 4.324219 3.839843 7.21875 4.246093l46.765625 6.542969c.515625.070313 1.027344.105469 1.539063.105469 2.363281 0 4.648437-.761719 6.566406-2.207031 2.332031-1.761719 3.839844-4.324219 4.246094-7.222657l8.183594-58.476562c.40625-2.898438-.339844-5.777344-2.097657-8.109375-1.765625-2.332031-4.328125-3.839844-7.222656-4.246094zm-13.15625 64.738281-38.726563-5.417968 7.058594-50.445313 38.726563 5.417969zm0 0"/><path d="m240.089844 187.871094-13.492188-32.164063c-1.601562-3.820312-6-5.617187-9.816406-4.015625-3.820312 1.605469-5.617188 6-4.015625 9.820313l13.492187 32.164062c1.203126 2.871094 3.988282 4.601563 6.917969 4.601563.96875 0 1.953125-.1875 2.898438-.585938 3.820312-1.605468 5.617187-6 4.015625-9.820312zm0 0"/></svg>