<?xml version="1.0"?>
<svg xmlns="http://www.w3.org/2000/svg" viewBox="0 0 64 64" width="512" height="512" style="fill: #fff;"><g id="calander-gift_box-party-celebration" data-name="calander-gift box-party-celebration"><path d="M61,6H56V4a2,2,0,0,0-2-2H50a2,2,0,0,0-2,2V6H16V4a2,2,0,0,0-2-2H10A2,2,0,0,0,8,4V6H3A1,1,0,0,0,2,7V34H4V22H8V20H4V18H60v8h2V7A1,1,0,0,0,61,6ZM50,4h4l0,6H50ZM10,4h4l0,6H10ZM4,16V8H8v2a2,2,0,0,0,2,2h4a2,2,0,0,0,2-2V8H48v2a2,2,0,0,0,2,2h4a2,2,0,0,0,2-2V8h4v8Z"/><path d="M43,9H21a1,1,0,0,0-1,1v4a1,1,0,0,0,1,1H43a1,1,0,0,0,1-1V10A1,1,0,0,0,43,9Zm-1,4H22V11H42Z"/><rect x="10" y="20" width="2" height="2"/><path d="M61,49H58.816A2.966,2.966,0,0,0,59,48V36h1a1,1,0,0,0,1-1V31a3,3,0,0,0-3-3H53.949A2.5,2.5,0,0,0,51.5,25H50a1,1,0,0,0-.707.293L49,25.586l-.293-.293A1,1,0,0,0,48,25H46.5a2.5,2.5,0,0,0-2.449,3H40a3,3,0,0,0-3,3v4a1,1,0,0,0,1,1h1V48a2.966,2.966,0,0,0,.184,1H37V43.722A1.993,1.993,0,0,0,38,42V38a2,2,0,0,0-2-2H31a4,4,0,0,0-4-4H24.828a2.978,2.978,0,0,0-2.121.879L21,34.586l-1.707-1.707A2.978,2.978,0,0,0,17.172,32H15a4,4,0,0,0-4,4H5a2,2,0,0,0-2,2v4a2,2,0,0,0,2,2V60H4V46H2V61a1,1,0,0,0,1,1H61a1,1,0,0,0,1-1V50A1,1,0,0,0,61,49Zm-1,4H49V51H60ZM45,51h2v2H45Zm-2,2H32V51H43Zm7-19H48V30h2Zm-2,2h2V49H48Zm9,12a1,1,0,0,1-1,1H52V36h5Zm2-17v3H52V30h6A1,1,0,0,1,59,31ZM46,27.5a.5.5,0,0,1,.5-.5h1.086l.707.707a1,1,0,0,0,1.414,0L50.414,27H51.5a.5.5,0,0,1,0,1h-5A.5.5,0,0,1,46,27.5ZM39,31a1,1,0,0,1,1-1h6v4H39Zm2,17V36h5V49H42A1,1,0,0,1,41,48ZM31,49a1,1,0,0,0-1,1V60H25V44H35v5ZM24,38v4H18V38Zm-1,6V60H19V44Zm13-6,0,4H26V38ZM24.121,34.293A1,1,0,0,1,24.828,34H27a2,2,0,0,1,2,2H22.414ZM15,34h2.172a1,1,0,0,1,.707.293L19.586,36H13A2,2,0,0,1,15,34ZM5,38H16v4H5ZM7,58h3V56H7V44H17V60H7Zm25-3H43v5H32Zm13,5V55h2v5Zm4,0V55H60v5Z"/><rect x="12" y="56" width="2" height="2"/><rect x="60" y="38" width="2" height="9"/></g></svg>
