<svg xmlns="http://www.w3.org/2000/svg" width="154" height="84" viewBox="0 0 154 84"><defs><clipPath id="l10ya"><path d="M142.93 16.66h9.497v9.497h-9.497z"/></clipPath></defs><g><g><g><path fill="none" stroke="#309665" stroke-miterlimit="50" stroke-width="2.54" d="M66.3 57.231v0V2.2v0l57.031 32.927v0"/></g><g><path fill="none" stroke="#309665" stroke-miterlimit="50" stroke-width="2.54" d="M15.27 35.28a6 6 0 1 1-12.002-.002 6 6 0 0 1 12.002.002z"/></g><g><path fill="none" stroke="#a7d129" stroke-miterlimit="50" stroke-width="2.54" d="M75.73 62.756l71.943-41.536"/></g><g><path fill="none" stroke="#309665" stroke-miterlimit="50" stroke-width="2.54" d="M14.46 38.27l42.3 24.421"/></g><g><path fill="none" stroke="#309665" stroke-miterlimit="50" stroke-width="2.54" d="M77.108 68.04c0 5.97-4.84 10.81-10.81 10.81-5.969 0-10.808-4.84-10.808-10.81 0-5.97 4.839-10.81 10.808-10.81 5.97 0 10.81 4.84 10.81 10.81z"/></g><g><g/><g clip-path="url(#l10ya)"><path fill="#309665" d="M152.428 21.408a4.75 4.75 0 1 1-9.499 0 4.75 4.75 0 0 1 9.499 0"/></g></g></g></g></svg>