<svg xmlns="http://www.w3.org/2000/svg" width="176" height="110" viewBox="0 0 176 110"><g><g><g><g><path fill="none" stroke="#309665" stroke-miterlimit="50" stroke-width="2.54" d="M119.18 103.383V43.76"/></g><g><path fill="none" stroke="#a7d129" stroke-miterlimit="50" stroke-width="2.54" d="M124.34 34.702L171.334 7.57"/></g><g><path fill="none" stroke="#a7d129" stroke-miterlimit="50" stroke-width="2.54" d="M5.12 37.68v0l57.03 32.926v0l51.803-29.908v0"/></g></g><g><path fill="none" stroke="#a7d129" stroke-miterlimit="50" stroke-width="2.54" d="M62.15 70.603V4.79"/></g><g><g><path fill="none" stroke="#309665" stroke-miterlimit="50" stroke-width="2.54" d="M125.18 37.76a6 6 0 1 1-12.002-.002 6 6 0 0 1 12.002.002z"/></g><g><path fill="#309665" d="M66.898 4.748a4.749 4.749 0 1 1-9.497 0 4.749 4.749 0 0 1 9.497 0"/></g><g><path fill="#309665" d="M122.296 103.378a3.117 3.117 0 1 1-6.235.001 3.117 3.117 0 0 1 6.235-.001"/></g><g><path fill="#309665" d="M174.456 7.568a3.118 3.118 0 1 1-6.236 0 3.118 3.118 0 0 1 6.236 0"/></g><g><path fill="#309665" d="M8.236 37.758a3.118 3.118 0 1 1-6.236 0 3.118 3.118 0 0 1 6.236 0"/></g><g><path fill="none" stroke="#309665" stroke-miterlimit="50" stroke-width="2.54" d="M62.15 4.79l52.236 29.37"/></g></g></g></g></svg>