<svg xmlns="http://www.w3.org/2000/svg" width="185" height="114" viewBox="0 0 185 114"><g><g><g><path fill="none" stroke="#a7d129" stroke-miterlimit="50" stroke-width="2.54" d="M70.14 67.805L170.434 10.27"/></g><g><g><path fill="none" stroke="#309665" stroke-miterlimit="50" stroke-width="2.54" d="M70.83 78.37l47.718 27.528"/></g><g><path fill="none" stroke="#a7d129" stroke-miterlimit="50" stroke-width="2.54" d="M4.36 40.02l47.715 27.528"/></g><g><path fill="none" stroke="#309665" stroke-miterlimit="50" stroke-width="2.54" d="M71.912 73.689c0 5.97-4.873 10.81-10.886 10.81-6.011 0-10.886-4.84-10.886-10.81 0-5.97 4.875-10.809 10.886-10.809 3.758 0 7.071 1.89 9.027 4.766a10.7 10.7 0 0 1 1.86 6.043z"/></g><g><path fill="#309665" d="M7.8 40.198c0 1.722-1.405 3.118-3.14 3.118s-3.14-1.396-3.14-3.118c0-1.723 1.405-3.118 3.14-3.118s3.14 1.395 3.14 3.118"/></g><g><path fill="#309665" d="M123.335 105.898c0 2.623-2.141 4.749-4.782 4.749-2.642 0-4.783-2.126-4.783-4.749 0-2.622 2.141-4.748 4.783-4.748 2.64 0 4.782 2.126 4.782 4.748"/></g><g><path fill="none" stroke="#309665" stroke-miterlimit="50" stroke-width="2.54" d="M181.706 7.27c0 3.313-2.706 6-6.043 6-3.338 0-6.043-2.687-6.043-6 0-3.314 2.705-6 6.043-6 3.337 0 6.043 2.686 6.043 6z"/></g></g></g></g></svg>