<svg xmlns="http://www.w3.org/2000/svg" width="606" height="570" viewBox="0 0 606 570"><defs><clipPath id="hsoza"><path d="M1 265.66h6.236v6.216H1z"/></clipPath></defs><g><g transform="rotate(-180 302.5 286.5)"><g><path fill="none" stroke="#a7d129" stroke-miterlimit="50" stroke-width="2.54" d="M345.92 137.58v65.495"/></g><g><path fill="none" stroke="#a7d129" stroke-miterlimit="50" stroke-width="2.54" d="M232.242 334.212v0l-57.031-32.822v0l-57.031 32.823v65.647l57.031 32.821v0l57.031-32.822v0"/></g><g><path fill="none" stroke="#a7d129" stroke-miterlimit="50" stroke-width="2.54" d="M289.21 164.252V104.76"/></g><g><path fill="none" stroke="#a7d129" stroke-miterlimit="50" stroke-width="2.54" d="M336.686 394.362v0l-47.476-27.323v0V176.3v0"/></g><g><path fill="none" stroke="#a7d129" stroke-miterlimit="50" stroke-width="2.54" d="M346.24 459.6v-48.89"/></g><g><path fill="none" stroke="#a7d129" stroke-miterlimit="50" stroke-width="2.54" d="M232.18 268.72V465.5l57.031 32.824v0l51.802-29.814v0"/></g><g><path fill="none" stroke="#e84e1b" stroke-miterlimit="50" stroke-width="2.54" d="M4.12 334.213v65.647l57.031 32.821v0l57.031-32.822v0-65.647 0L61.151 301.39v0z"/></g><g><path fill="none" stroke="#a7d129" stroke-miterlimit="50" stroke-width="2.54" d="M289.214 301.39L180.41 364.043"/></g><g><path fill="none" stroke="#a7d129" stroke-miterlimit="50" stroke-width="2.54" d="M355.4 405.124v0l47.877 27.555v0l57.031-32.823v0-59.586 0"/></g><g><path fill="none" stroke="#309665" stroke-miterlimit="50" stroke-width="2.54" d="M465.45 331.217l51.825-29.827"/></g><g><path fill="none" stroke="#a7d129" stroke-miterlimit="50" stroke-width="2.54" d="M574.302 399.855v0l-57.031 32.823v0l-57.031-32.822v0-59.586 0"/></g><g><path fill="none" stroke="#e84e1b" stroke-miterlimit="50" stroke-width="2.54" d="M4.12 268.72l57.031 32.823"/></g><g><path fill="none" stroke="#a7d129" stroke-miterlimit="50" stroke-width="2.54" d="M460.301 399.863v0L403.27 367.04v0l-48.04 27.649v0"/></g><g><path fill="none" stroke="#a7d129" stroke-miterlimit="50" stroke-width="2.54" d="M175.06 104.76l57.03 32.823"/></g><g><path fill="none" stroke="#a7d129" stroke-miterlimit="50" stroke-width="2.54" d="M288.89 104.76v0l57.03 32.823v0l57.032-32.823v0"/></g><g><path fill="none" stroke="#a7d129" stroke-miterlimit="50" stroke-width="2.54" d="M294.54 167.337l51.703-29.757"/></g><g><path fill="none" stroke="#a7d129" stroke-miterlimit="50" stroke-width="2.54" d="M232.18 137.58l51.968 29.91"/></g><g><path fill="none" stroke="#a7d129" stroke-miterlimit="50" stroke-width="2.54" d="M346.24 137.587v0l57.03 32.823v0l57.032-32.823v0V71.94v0"/></g><g><path fill="none" stroke="#309665" stroke-miterlimit="50" stroke-width="2.54" d="M526.71 164.975l71.943-41.405"/></g><g><path fill="none" stroke="#309665" stroke-miterlimit="50" stroke-width="2.54" d="M460.24 71.94v65.647l47.49 27.33v0"/></g><g><path fill="none" stroke="#a7d129" stroke-miterlimit="50" stroke-width="2.54" d="M289.21 498.327V432.72"/></g><g><path fill="none" stroke="#a7d129" stroke-miterlimit="50" stroke-width="2.54" d="M61.15 432.531v0V104.76v0l57.647-32.822v0l57.031 32.822v0l57.031-32.822v0V6.29v0"/></g><g><path fill="none" stroke="#a7d129" stroke-miterlimit="50" stroke-width="2.54" d="M346.24 389.16v-54.87"/></g><g><path fill="none" stroke="#a7d129" stroke-miterlimit="50" stroke-width="2.54" d="M184.12 165.103l104.775-60.343"/></g><g><path fill="none" stroke="#a7d129" stroke-miterlimit="50" stroke-width="2.54" d="M118.8 137.41l47.377 27.441"/></g><g><path fill="none" stroke="#a7d129" stroke-miterlimit="50" stroke-width="2.54" d="M175.21 160.198V104.76"/></g><g><g><path fill="#309665" d="M293.958 432.683a4.741 4.741 0 0 1-4.749 4.734 4.741 4.741 0 0 1-4.749-4.734c0-2.614 2.126-4.733 4.749-4.733 2.623 0 4.749 2.12 4.749 4.733"/></g><g><path fill="#309665" d="M351.297 203.083a4.741 4.741 0 0 1-4.749 4.734 4.741 4.741 0 0 1-4.748-4.734 4.74 4.74 0 0 1 4.748-4.733c2.623 0 4.749 2.12 4.749 4.733"/></g><g><path fill="#309665" d="M122.927 465.354a4.741 4.741 0 0 1-4.749 4.734 4.741 4.741 0 0 1-4.748-4.734 4.742 4.742 0 0 1 4.748-4.734 4.742 4.742 0 0 1 4.749 4.734"/></g><g><path fill="#309665" d="M579.057 399.864a4.74 4.74 0 0 1-4.748 4.733c-2.623 0-4.749-2.12-4.749-4.733a4.741 4.741 0 0 1 4.749-4.734 4.741 4.741 0 0 1 4.748 4.734"/></g><g><path fill="#309665" d="M65.898 564.794c0 2.615-2.127 4.734-4.749 4.734a4.741 4.741 0 0 1-4.749-4.734 4.742 4.742 0 0 1 4.749-4.734c2.622 0 4.749 2.12 4.749 4.734"/></g><g><path fill="#309665" d="M603.397 123.763a4.741 4.741 0 0 1-4.748 4.734 4.741 4.741 0 0 1-4.749-4.734c0-2.614 2.126-4.733 4.749-4.733a4.74 4.74 0 0 1 4.748 4.733"/></g><g><path fill="#309665" d="M122.216 137.588a3.113 3.113 0 0 1-3.118 3.108 3.112 3.112 0 0 1-3.118-3.108 3.112 3.112 0 0 1 3.118-3.108 3.112 3.112 0 0 1 3.118 3.108"/></g><g><path fill="#309665" d="M235.976 6.288a3.113 3.113 0 0 1-3.118 3.108 3.113 3.113 0 0 1-3.118-3.108 3.112 3.112 0 0 1 3.118-3.108 3.112 3.112 0 0 1 3.118 3.108"/></g><g><path fill="#309665" d="M463.366 71.938a3.113 3.113 0 0 1-3.118 3.108 3.112 3.112 0 0 1-3.118-3.108 3.112 3.112 0 0 1 3.118-3.108 3.112 3.112 0 0 1 3.118 3.108"/></g><g><path fill="#309665" d="M406.066 104.758a3.113 3.113 0 0 1-3.118 3.108 3.112 3.112 0 0 1-3.118-3.108 3.112 3.112 0 0 1 3.118-3.108 3.112 3.112 0 0 1 3.118 3.108"/></g><g><path fill="#309665" d="M349.356 334.288a3.113 3.113 0 0 1-3.118 3.108 3.112 3.112 0 0 1-3.118-3.108 3.112 3.112 0 0 1 3.118-3.108 3.113 3.113 0 0 1 3.118 3.108"/></g><g><path fill="#309665" d="M577.426 465.588a3.113 3.113 0 0 1-3.118 3.108 3.112 3.112 0 0 1-3.118-3.108 3.112 3.112 0 0 1 3.118-3.108 3.113 3.113 0 0 1 3.118 3.108"/></g><g><g/><g clip-path="url(#hsoza)"><path fill="#309665" d="M7.236 268.768a3.113 3.113 0 0 1-3.118 3.108A3.113 3.113 0 0 1 1 268.768a3.113 3.113 0 0 1 3.118-3.108 3.113 3.113 0 0 1 3.118 3.108"/></g></g><g><path fill="none" stroke="#309665" stroke-miterlimit="50" stroke-width="2.54" d="M175.21 432.53v0l-57.03 32.823V531l57.03 32.823v0L232.241 531v0-65.646 0"/></g><g><path fill="none" stroke="#309665" stroke-miterlimit="50" stroke-width="2.54" d="M61.15 563.822v0L118.18 531v0-65.646 0L61.15 432.53v0"/></g><g><path fill="none" stroke="#309665" stroke-miterlimit="50" stroke-width="2.54" d="M232.18 465.36v65.647"/></g><g><path fill="none" stroke="#309665" stroke-miterlimit="50" stroke-width="2.54" d="M574.302 465.506v0l-57.031 32.823v0l-57.031-32.823v0-65.647 0l114.062-65.647v0l-57.031-32.822v0"/></g><g><path fill="none" stroke="#309665" stroke-miterlimit="50" stroke-width="2.54" d="M123.3 271.675v0l51.908 29.875v0l57.031-32.823v0l-.061-65.647v0"/></g><g><path fill="none" stroke="#309665" stroke-miterlimit="50" stroke-width="2.54" d="M118.18 203.08v59.505"/></g><g><path fill="none" stroke="#309665" stroke-miterlimit="50" stroke-width="2.54" d="M118.18 203.083L61.15 170.26"/></g><g><path fill="none" stroke="#309665" stroke-miterlimit="50" stroke-width="2.54" d="M232.18 203.08v0l.001 65.647v0l57.03 32.822v0l57.032-32.822v0l57.03 32.822v65.49"/></g><g><path fill="none" stroke="#309665" stroke-miterlimit="50" stroke-width="2.54" d="M460.24 137.434v65.647l57.03 32.822v0l57.032-32.823v0-65.647 0L517.27 104.61v0z"/></g><g><path fill="none" stroke="#309665" stroke-miterlimit="50" stroke-width="2.54" d="M517.27 498.327V235.9"/></g><g><path fill="none" stroke="#309665" stroke-miterlimit="50" stroke-width="2.54" d="M175.21 372.57v125.837l56.97-32.901v0"/></g><g><path fill="none" stroke="#309665" stroke-miterlimit="50" stroke-width="2.54" d="M232.244 399.862L180.41 370.03"/></g><g><path fill="none" stroke="#309665" stroke-miterlimit="50" stroke-width="2.54" d="M345.92 203.08l114.383 65.647"/></g><g><path fill="none" stroke="#309665" stroke-miterlimit="50" stroke-width="2.54" d="M118.18 203.083l47.25-27.213"/></g><g><path fill="none" stroke="#309665" stroke-miterlimit="50" stroke-width="2.54" d="M184.8 175.633v0l47.379 27.441v0l51.969-29.784v0"/></g><g><path fill="none" stroke="#309665" stroke-miterlimit="50" stroke-width="2.54" d="M175.21 301.392V181.75"/></g><g><path fill="none" stroke="#309665" stroke-miterlimit="50" stroke-width="2.54" d="M356.729 399.936c0 5.951-4.84 10.776-10.81 10.776-5.969 0-10.809-4.825-10.809-10.776s4.84-10.776 10.809-10.776c5.97 0 10.81 4.825 10.81 10.776z"/></g><g><path fill="none" stroke="#309665" stroke-miterlimit="50" stroke-width="2.54" d="M528.079 170.246c0 5.951-4.84 10.776-10.81 10.776-5.969 0-10.809-4.825-10.809-10.776s4.84-10.776 10.809-10.776c5.97 0 10.81 4.825 10.81 10.776z"/></g><g><path fill="none" stroke="#309665" stroke-miterlimit="50" stroke-width="2.54" d="M185.868 170.975c0 5.951-4.839 10.776-10.809 10.776-5.969 0-10.809-4.825-10.809-10.776s4.84-10.775 10.809-10.775c3.731 0 7.021 1.884 8.963 4.751a10.705 10.705 0 0 1 1.846 6.024z"/></g><g><path fill="none" stroke="#309665" stroke-miterlimit="50" stroke-width="2.54" d="M466.3 334.291c0 3.303-2.687 5.981-6 5.981-3.314 0-6-2.678-6-5.98 0-3.303 2.686-5.982 6-5.982 3.313 0 6 2.679 6 5.981z"/></g><g><path fill="none" stroke="#309665" stroke-miterlimit="50" stroke-width="2.54" d="M352.241 465.581c0 3.303-2.687 5.981-6 5.981-3.314 0-6.001-2.678-6.001-5.98 0-3.303 2.687-5.982 6.001-5.982 3.313 0 6 2.679 6 5.981z"/></g><g><path fill="none" stroke="#309665" stroke-miterlimit="50" stroke-width="2.54" d="M181.21 367.032c0 1.09-.292 2.11-.803 2.99a6 6 0 0 1-5.197 2.991c-3.313 0-6-2.678-6-5.98 0-3.304 2.687-5.983 6-5.983s6 2.679 6 5.982z"/></g><g><path fill="none" stroke="#309665" stroke-miterlimit="50" stroke-width="2.54" d="M295.391 170.411c0 3.303-2.687 5.981-6 5.981-3.314 0-6.001-2.678-6.001-5.98 0-3.304 2.687-5.982 6.001-5.982 3.313 0 6 2.678 6 5.981z"/></g><g><path fill="none" stroke="#309665" stroke-miterlimit="50" stroke-width="2.54" d="M124.181 268.561c0 3.303-2.687 5.981-6 5.981-3.314 0-6.001-2.678-6.001-5.98 0-3.303 2.687-5.982 6.001-5.982 3.313 0 6 2.679 6 5.981z"/></g><g><path fill="none" stroke="#309665" stroke-miterlimit="50" stroke-width="2.54" d="M517.27 104.61v54.858"/></g><g><path fill="none" stroke="#309665" stroke-miterlimit="50" stroke-width="2.54" d="M403.27 301.553v0l57.031-32.824v0-65.646 0L403.27 170.26v0l-57.03 32.823v0"/></g></g></g></g></svg>