<svg xmlns="http://www.w3.org/2000/svg" width="301" height="277" viewBox="0 0 301 277"><g><g><g><path fill="none" stroke="#a7d129" stroke-miterlimit="50" stroke-width="2.54" d="M66.24 166.494V117.45"/></g><g><path fill="none" stroke="#a7d129" stroke-miterlimit="50" stroke-width="2.54" d="M14.38 202.356l46.637-26.926"/></g><g><path fill="none" stroke="#a7d129" stroke-miterlimit="50" stroke-width="2.54" d="M75.4 111.849v0l47.877 27.642v0l57.031-32.927v0V46.79v0"/></g><g><path fill="none" stroke="#a7d129" stroke-miterlimit="50" stroke-width="2.54" d="M185.45 37.706l46.792-27.016"/></g><g><path fill="none" stroke="#a7d129" stroke-miterlimit="50" stroke-width="2.54" d="M294.302 106.563v0l-57.031 32.927v0l-57.031-32.926v0V46.79v0"/></g><g><path fill="none" stroke="#a7d129" stroke-miterlimit="50" stroke-width="2.54" d="M180.301 106.557v0L123.27 73.63v0l-48.04 27.736v0"/></g><g><path fill="none" stroke="#a7d129" stroke-miterlimit="50" stroke-width="2.54" d="M9.21 199.706V139.53"/></g><g><path fill="none" stroke="#a7d129" stroke-miterlimit="50" stroke-width="2.54" d="M66.24 95.834V40.79"/></g><g><g><path fill="#309665" d="M13.958 139.488a4.749 4.749 0 1 1-9.497 0 4.749 4.749 0 0 1 9.497 0"/></g><g><path fill="#309665" d="M299.057 106.559a4.748 4.748 0 1 1-9.497 0 4.748 4.748 0 0 1 9.497 0"/></g><g><path fill="#309665" d="M69.356 40.788a3.118 3.118 0 1 1-6.236 0 3.118 3.118 0 0 1 6.236 0"/></g><g><path fill="#309665" d="M126.396 269.798a3.118 3.118 0 1 1-6.236 0 3.118 3.118 0 0 1 6.236 0"/></g><g><path fill="#309665" d="M297.426 172.498a3.118 3.118 0 1 1-6.236 0 3.118 3.118 0 0 1 6.236 0"/></g><g><path fill="none" stroke="#309665" stroke-miterlimit="50" stroke-width="2.54" d="M66.24 238.113V178.49"/></g><g><path fill="none" stroke="#309665" stroke-miterlimit="50" stroke-width="2.54" d="M71.44 175.489v0l51.836 29.928v0l57.031-32.927v0"/></g><g><path fill="none" stroke="#309665" stroke-miterlimit="50" stroke-width="2.54" d="M294.302 172.412v0l-57.031 32.927v0l-57.031-32.927v0-65.854 0l114.062-65.854v0L242.228 10.64v0"/></g><g><path fill="none" stroke="#309665" stroke-miterlimit="50" stroke-width="2.54" d="M237.27 205.345V13.3"/></g><g><path fill="none" stroke="#309665" stroke-miterlimit="50" stroke-width="2.54" d="M123.27 139.49v131.557"/></g><g><path fill="none" stroke="#309665" stroke-miterlimit="50" stroke-width="2.54" d="M14.35 208.292v0l51.895 29.824v0l57.031-32.696v0"/></g><g><path fill="none" stroke="#309665" stroke-miterlimit="50" stroke-width="2.54" d="M76.729 106.64c0 5.97-4.84 10.81-10.81 10.81-5.969 0-10.809-4.84-10.809-10.81 0-5.97 4.84-10.81 10.809-10.81 5.97 0 10.81 4.84 10.81 10.81z"/></g><g><path fill="none" stroke="#309665" stroke-miterlimit="50" stroke-width="2.54" d="M186.3 40.79a6 6 0 1 1-12.002-.002 6 6 0 0 1 12.002.002z"/></g><g><path fill="none" stroke="#309665" stroke-miterlimit="50" stroke-width="2.54" d="M243 7.36a6 6 0 1 1-12.002-.002A6 6 0 0 1 243 7.36z"/></g><g><path fill="none" stroke="#309665" stroke-miterlimit="50" stroke-width="2.54" d="M72.241 172.49a6 6 0 1 1-12.002-.002 6 6 0 0 1 12.002.002z"/></g><g><path fill="none" stroke="#309665" stroke-miterlimit="50" stroke-width="2.54" d="M15.001 205.36a6 6 0 1 1-12.002-.002 6 6 0 0 1 12.002.002z"/></g></g></g></g></svg>