<svg xmlns="http://www.w3.org/2000/svg" width="520" height="566" viewBox="0 0 520 566"><g><g><path fill="none" stroke="#a7d129" stroke-miterlimit="50" stroke-width="2.54" d="M286.92 136.46v65.702"/></g><g><path fill="none" stroke="#a6cb12" stroke-miterlimit="50" stroke-width="2.54" d="M230.21 163.21v-59.68"/></g><g><path fill="none" stroke="#a7d129" stroke-miterlimit="50" stroke-width="2.54" d="M277.686 394.04v0l-47.476-27.409v0V175.29v0"/></g><g><path fill="none" stroke="#a7d129" stroke-miterlimit="50" stroke-width="2.54" d="M287.24 459.494V410.45"/></g><g><path fill="none" stroke="#a7d129" stroke-miterlimit="50" stroke-width="2.54" d="M296.4 404.849v0l47.877 27.642v0l57.031-32.927v0-59.774 0"/></g><g><path fill="none" stroke="#a7d129" stroke-miterlimit="50" stroke-width="2.54" d="M406.45 330.701l51.825-29.921"/></g><g><path fill="none" stroke="#a7d129" stroke-miterlimit="50" stroke-width="2.54" d="M515.302 399.563v0l-57.031 32.927v0l-57.031-32.926v0-59.774 0"/></g><g><path fill="none" stroke="#a7d129" stroke-miterlimit="50" stroke-width="2.54" d="M401.301 399.557v0L344.27 366.63v0l-48.04 27.736v0"/></g><g><path fill="none" stroke="#a6cb12" stroke-miterlimit="50" stroke-width="2.54" d="M116.06 103.53l57.03 32.927"/></g><g><path fill="none" stroke="#a7d129" stroke-miterlimit="50" stroke-width="2.54" d="M229.89 103.53v0l57.03 32.927v0l57.032-32.927v0"/></g><g><path fill="none" stroke="#a7d129" stroke-miterlimit="50" stroke-width="2.54" d="M173.09 70.604v0l57.031 32.927v0l57.031-32.927v0V4.75v0"/></g><g><path fill="none" stroke="#a7d129" stroke-miterlimit="50" stroke-width="2.54" d="M235.54 166.311l51.703-29.851"/></g><g><path fill="none" stroke="#a6cb12" stroke-miterlimit="50" stroke-width="2.54" d="M173.18 136.46l51.968 30.004"/></g><g><path fill="none" stroke="#a7d129" stroke-miterlimit="50" stroke-width="2.54" d="M287.24 136.454v0l57.03 32.927v0l57.032-32.927v0V70.6v0"/></g><g><path fill="none" stroke="#a7d129" stroke-miterlimit="50" stroke-width="2.54" d="M401.24 70.6v65.854l47.49 27.417v0"/></g><g><path fill="none" stroke="#a7d129" stroke-miterlimit="50" stroke-width="2.54" d="M230.21 498.344V432.53"/></g><g><path fill="none" stroke="#a7d129" stroke-miterlimit="50" stroke-width="2.54" d="M2.15 432.337v0V103.53v0l57.647-32.926v0l57.031 32.926v0l57.031-32.926v0V4.75v0"/></g><g><path fill="none" stroke="#a6cb12" stroke-miterlimit="50" stroke-width="2.54" d="M287.24 388.834V333.79"/></g><g><path fill="none" stroke="#a7d129" stroke-miterlimit="50" stroke-width="2.54" d="M125.12 164.064l104.775-60.534"/></g><g><path fill="none" stroke="#309665" stroke-miterlimit="50" stroke-width="2.54" d="M59.8 136.28l47.377 27.528"/></g><g><path fill="none" stroke="#309665" stroke-miterlimit="50" stroke-width="2.54" d="M116.21 159.143V103.53"/></g><g><path fill="#309665" d="M234.958 432.488a4.749 4.749 0 1 1-9.497 0 4.749 4.749 0 0 1 9.497 0"/></g><g><path fill="#309665" d="M292.297 202.158a4.749 4.749 0 1 1-9.497 0 4.749 4.749 0 0 1 9.497 0"/></g><g><path fill="#309665" d="M520.057 399.559a4.748 4.748 0 1 1-9.497 0 4.748 4.748 0 0 1 9.497 0"/></g><g><path fill="#309665" d="M291.668 4.749a4.749 4.749 0 1 1-9.497-.001 4.749 4.749 0 0 1 9.497.001"/></g><g><path fill="#309665" d="M176.976 4.748a3.118 3.118 0 1 1-6.236 0 3.118 3.118 0 0 1 6.236 0"/></g><g><path fill="#309665" d="M404.366 70.598a3.118 3.118 0 1 1-6.236 0 3.118 3.118 0 0 1 6.236 0"/></g><g><path fill="#309665" d="M347.066 103.528a3.118 3.118 0 1 1-6.236 0 3.118 3.118 0 0 1 6.236 0"/></g><g><path fill="#309665" d="M290.356 333.788a3.118 3.118 0 1 1-6.236 0 3.118 3.118 0 0 1 6.236 0"/></g><g><path fill="#309665" d="M347.396 562.798a3.118 3.118 0 1 1-6.236 0 3.118 3.118 0 0 1 6.236 0"/></g><g><path fill="#309665" d="M518.426 465.498a3.118 3.118 0 1 1-6.236 0 3.118 3.118 0 0 1 6.236 0"/></g><g><path fill="none" stroke="#309665" stroke-miterlimit="50" stroke-width="2.54" d="M287.24 531.113V471.49"/></g><g><path fill="none" stroke="#309665" stroke-miterlimit="50" stroke-width="2.54" d="M292.44 468.489v0l51.836 29.928v0l57.031-32.927v0"/></g><g><path fill="none" stroke="#309665" stroke-miterlimit="50" stroke-width="2.54" d="M515.302 465.414v0l-57.031 32.927v0l-57.031-32.927v0-65.854 0l114.062-65.854v0l-57.031-32.926v0"/></g><g><path fill="none" stroke="#309665" stroke-miterlimit="50" stroke-width="2.54" d="M173.24 268.014l-.06-65.854"/></g><g><path fill="none" stroke="#309665" stroke-miterlimit="50" stroke-width="2.54" d="M173.18 202.16v0l.001 65.854v0l57.03 32.926v0l57.032-32.926v0l57.03 32.926v65.696"/></g><g><path fill="none" stroke="#309665" stroke-miterlimit="50" stroke-width="2.54" d="M401.24 136.308v65.854l57.03 32.925v0l57.032-32.926v0-65.854 0L458.27 103.38v0z"/></g><g><path fill="none" stroke="#309665" stroke-miterlimit="50" stroke-width="2.54" d="M458.27 498.346V235.09"/></g><g><path fill="none" stroke="#309665" stroke-miterlimit="50" stroke-width="2.54" d="M344.27 432.49v131.557"/></g><g><path fill="none" stroke="#309665" stroke-miterlimit="50" stroke-width="2.54" d="M230.21 498.34v0l57.031 32.775v0l57.031-32.696v0"/></g><g><path fill="none" stroke="#309665" stroke-miterlimit="50" stroke-width="2.54" d="M286.92 202.16l114.383 65.854"/></g><g><path fill="none" stroke="#309665" stroke-miterlimit="50" stroke-width="2.54" d="M59.18 202.159l47.25-27.299"/></g><g><path fill="none" stroke="#309665" stroke-miterlimit="50" stroke-width="2.54" d="M125.8 174.63v0l47.379 27.528v0l51.969-29.878v0"/></g><g><path fill="none" stroke="#309665" stroke-miterlimit="50" stroke-width="2.54" d="M116.21 300.78V180.76"/></g><g><path fill="none" stroke="#309665" stroke-miterlimit="50" stroke-width="2.54" d="M297.729 399.64c0 5.97-4.84 10.81-10.81 10.81-5.969 0-10.809-4.84-10.809-10.81 0-5.97 4.84-10.81 10.809-10.81 5.97 0 10.81 4.84 10.81 10.81z"/></g><g><path fill="none" stroke="#309665" stroke-miterlimit="50" stroke-width="2.54" d="M469.079 169.22c0 5.97-4.84 10.81-10.81 10.81-5.969 0-10.809-4.84-10.809-10.81 0-5.97 4.84-10.81 10.809-10.81 5.97 0 10.81 4.84 10.81 10.81z"/></g><g><path fill="none" stroke="#309665" stroke-miterlimit="50" stroke-width="2.54" d="M126.868 169.949c0 5.97-4.839 10.81-10.809 10.81-5.969 0-10.809-4.84-10.809-10.81 0-5.97 4.84-10.809 10.809-10.809 3.731 0 7.021 1.89 8.963 4.766a10.762 10.762 0 0 1 1.846 6.043z"/></g><g><path fill="none" stroke="#309665" stroke-miterlimit="50" stroke-width="2.54" d="M407.3 333.79a6 6 0 1 1-12.002-.002 6 6 0 0 1 12.002.002z"/></g><g><path fill="none" stroke="#309665" stroke-miterlimit="50" stroke-width="2.54" d="M293.241 465.49a6 6 0 1 1-12.002-.002 6 6 0 0 1 12.002.002z"/></g><g><path fill="none" stroke="#309665" stroke-miterlimit="50" stroke-width="2.54" d="M236.391 169.38a6 6 0 1 1-12.002-.002 6 6 0 0 1 12.002.002z"/></g><g><path fill="none" stroke="#309665" stroke-miterlimit="50" stroke-width="2.54" d="M458.27 103.38v55.031"/></g><g><path fill="none" stroke="#309665" stroke-miterlimit="50" stroke-width="2.54" d="M344.27 300.937v0l57.031-32.927v0-65.853 0L344.27 169.23v0l-57.03 32.927v0"/></g></g></svg>