<svg xmlns="http://www.w3.org/2000/svg" width="325" height="436" viewBox="0 0 325 436"><g><g><g><g><path fill="none" stroke="#a7d129" stroke-miterlimit="50" stroke-width="2.54" d="M65.92 69.46v65.702"/></g><g><path fill="none" stroke="#a7d129" stroke-miterlimit="50" stroke-width="2.54" d="M9.21 96.21V36.53"/></g><g><path fill="none" stroke="#a7d129" stroke-miterlimit="50" stroke-width="2.54" d="M56.686 327.04v0L9.21 299.631v0V108.29v0"/></g><g><path fill="none" stroke="#a7d129" stroke-miterlimit="50" stroke-width="2.54" d="M66.24 392.494V343.45"/></g><g><path fill="none" stroke="#a7d129" stroke-miterlimit="50" stroke-width="2.54" d="M75.4 337.849v0l47.877 27.642v0l57.031-32.927v0-59.774 0"/></g><g><path fill="none" stroke="#a7d129" stroke-miterlimit="50" stroke-width="2.54" d="M185.45 263.701l51.825-29.921"/></g><g><path fill="none" stroke="#a7d129" stroke-miterlimit="50" stroke-width="2.54" d="M294.302 332.563v0l-57.031 32.927v0l-57.031-32.926v0-59.774 0"/></g><g><path fill="none" stroke="#a7d129" stroke-miterlimit="50" stroke-width="2.54" d="M180.301 332.557v0L123.27 299.63v0l-48.04 27.736v0"/></g><g><path fill="none" stroke="#a7d129" stroke-miterlimit="50" stroke-width="2.54" d="M8.89 36.53v0l57.03 32.927v0l57.032-32.927v0"/></g><g><path fill="none" stroke="#a7d129" stroke-miterlimit="50" stroke-width="2.54" d="M14.54 99.311L66.243 69.46"/></g><g><path fill="none" stroke="#a7d129" stroke-miterlimit="50" stroke-width="2.54" d="M66.24 69.454v0l57.03 32.927v0l57.032-32.927v0V3.6v0"/></g><g><path fill="none" stroke="#a7d129" stroke-miterlimit="50" stroke-width="2.54" d="M246.71 96.936L318.653 55.4"/></g><g><path fill="none" stroke="#a7d129" stroke-miterlimit="50" stroke-width="2.54" d="M180.24 3.6v65.854l47.49 27.417v0"/></g><g><path fill="none" stroke="#a7d129" stroke-miterlimit="50" stroke-width="2.54" d="M66.24 321.834V266.79"/></g><g><g><path fill="#309665" d="M71.297 135.158a4.749 4.749 0 1 1-9.497 0 4.749 4.749 0 0 1 9.497 0"/></g><g><path fill="#309665" d="M299.057 332.559a4.748 4.748 0 1 1-9.497 0 4.748 4.748 0 0 1 9.497 0"/></g><g><path fill="#309665" d="M323.397 55.588a4.749 4.749 0 1 1-9.497 0 4.749 4.749 0 0 1 9.497 0"/></g><g><path fill="#309665" d="M183.366 3.598a3.118 3.118 0 1 1-6.236 0 3.118 3.118 0 0 1 6.236 0"/></g><g><path fill="#309665" d="M126.066 36.528a3.118 3.118 0 1 1-6.236 0 3.118 3.118 0 0 1 6.236 0"/></g><g><path fill="#309665" d="M69.356 266.788a3.118 3.118 0 1 1-6.236 0 3.118 3.118 0 0 1 6.236 0"/></g><g><path fill="#309665" d="M297.426 398.498a3.118 3.118 0 1 1-6.236 0 3.118 3.118 0 0 1 6.236 0"/></g><g><path fill="none" stroke="#309665" stroke-miterlimit="50" stroke-width="2.54" d="M294.302 398.414v0l-57.031 32.927v0l-57.031-32.927v0-65.854 0l114.062-65.854v0l-57.031-32.926v0"/></g><g><path fill="none" stroke="#309665" stroke-miterlimit="50" stroke-width="2.54" d="M9.21 233.936v0l57.032-32.926v0l57.03 32.926v65.696"/></g><g><path fill="none" stroke="#309665" stroke-miterlimit="50" stroke-width="2.54" d="M180.24 69.308v65.854l57.03 32.925v0l57.032-32.926v0-65.854 0L237.27 36.38v0z"/></g><g><path fill="none" stroke="#309665" stroke-miterlimit="50" stroke-width="2.54" d="M237.27 431.346V168.09"/></g><g><path fill="none" stroke="#309665" stroke-miterlimit="50" stroke-width="2.54" d="M65.92 135.16l114.383 65.854"/></g><g><path fill="none" stroke="#309665" stroke-miterlimit="50" stroke-width="2.54" d="M76.729 332.64c0 5.97-4.84 10.81-10.81 10.81-5.969 0-10.809-4.84-10.809-10.81 0-5.97 4.84-10.81 10.809-10.81 5.97 0 10.81 4.84 10.81 10.81z"/></g><g><path fill="none" stroke="#309665" stroke-miterlimit="50" stroke-width="2.54" d="M248.079 102.22c0 5.97-4.84 10.81-10.81 10.81-5.969 0-10.809-4.84-10.809-10.81 0-5.97 4.84-10.81 10.809-10.81 5.97 0 10.81 4.84 10.81 10.81z"/></g><g><path fill="none" stroke="#309665" stroke-miterlimit="50" stroke-width="2.54" d="M186.3 266.79a6 6 0 1 1-12.002-.002 6 6 0 0 1 12.002.002z"/></g><g><path fill="none" stroke="#309665" stroke-miterlimit="50" stroke-width="2.54" d="M72.241 398.49a6 6 0 1 1-12.002-.002 6 6 0 0 1 12.002.002z"/></g><g><path fill="none" stroke="#309665" stroke-miterlimit="50" stroke-width="2.54" d="M15.391 102.38a6 6 0 1 1-12.002-.002 6 6 0 0 1 12.002.002z"/></g><g><path fill="none" stroke="#309665" stroke-miterlimit="50" stroke-width="2.54" d="M237.27 36.38v55.031"/></g><g><path fill="none" stroke="#309665" stroke-miterlimit="50" stroke-width="2.54" d="M123.27 233.937v0l57.031-32.927v0-65.853 0L123.27 102.23v0l-57.03 32.927v0"/></g></g></g></g></g></svg>