<svg id="Layer_1" data-name="Layer 1" xmlns="http://www.w3.org/2000/svg" xmlns:xlink="http://www.w3.org/1999/xlink" viewBox="0 0 123.03 131.1"><defs><style>.cls-1,.cls-3,.cls-5{fill:none;}.cls-2{clip-path:url(#clip-path);}.cls-3,.cls-5{stroke:#fff;stroke-miterlimit:50;}.cls-3{stroke-width:4px;}.cls-4{fill:#fff;}.cls-5{stroke-linecap:round;stroke-width:2px;}</style><clipPath id="clip-path" transform="translate(33.61 2)"><circle class="cls-1" cx="25.16" cy="7" r="7"/></clipPath></defs><title>icon-9</title><g class="cls-2"><path class="cls-3" d="M18.16,7a7,7,0,0,1,7-7h0a7,7,0,0,1,7,7h0a7,7,0,0,1-7,7h0A7,7,0,0,1,18.16,7Z" transform="translate(33.61 2)"/></g><path class="cls-4" d="M11.91,96.3a1.41,1.41,0,1,1,1.44-1.43,1.43,1.43,0,0,1-1.44,1.43m0-5.13a3.7,3.7,0,1,0,3.7,3.7,3.71,3.71,0,0,0-3.7-3.7m37.22-4.94a1.12,1.12,0,0,0-1.08.85s0,.08,0,.13a.75.75,0,0,0,0,.15h0a1.11,1.11,0,0,0,.88,1.18,2.65,2.65,0,0,1-.53,5.25h-1a.86.86,0,0,0-.23,0,.68.68,0,0,0-.2.07l-.17.11a1.29,1.29,0,0,0-.17.16s-.05,0-.06,0a.67.67,0,0,0-.06.12,1.36,1.36,0,0,0-.1.21.85.85,0,0,0,0,.22.61.61,0,0,0,0,.13s0,0,0,.08a.78.78,0,0,0,0,.22,1.18,1.18,0,0,0,.07.2,1.13,1.13,0,0,0,.12.18,1.22,1.22,0,0,0,.15.17.34.34,0,0,1,.06.06,2.65,2.65,0,0,1-1.58,4.78H21.83a1.69,1.69,0,0,1-1.68-1.69.7.7,0,0,0,0-.14,2.4,2.4,0,0,0,0-.28V80.86a4.37,4.37,0,0,0-.75-2.44L29,65a1.1,1.1,0,0,0,.21-.66V57.12a.76.76,0,0,1,.77-.76h2a3.4,3.4,0,0,1,3.4,3.4V72.23a1.14,1.14,0,0,0,1.13,1.13h14a2.75,2.75,0,0,1,2.79,2.39A2.64,2.64,0,0,1,51,78.65h-.25a1.14,1.14,0,1,0,0,2.27h0a2.65,2.65,0,1,1,0,5.3ZM4.53,100.62a2.11,2.11,0,0,1-2.1-2.11V80.86a2.1,2.1,0,0,1,2.1-2.1H15.78a2.1,2.1,0,0,1,2.1,2.1V98.51a2.11,2.11,0,0,1-2.1,2.11ZM26.86,59.23l.12.07V64l-.62.86c-4.86-4-7.42-8.28-7.6-12.89ZM31,45.51,23.58,39A57.25,57.25,0,0,1,31,30.84Zm2.26-.24V30.68a56.06,56.06,0,0,1,7.55,8.43Zm4.45,14.49a5.91,5.91,0,0,0-.1-1l7.83-6.92V52c-.24,4.57-2.84,8.87-7.73,12.8ZM33.21,48.2,42,41a22,22,0,0,1,3.17,7.94l-8.57,7.57a5.68,5.68,0,0,0-3.42-2.29ZM19,49.11a22.21,22.21,0,0,1,3.34-8.2L31,48.53v5.56H30a3,3,0,0,0-2.93,2.29ZM53.84,79.79a4.69,4.69,0,0,0,.53-.47,4.91,4.91,0,0,0,1.25-3.79,5,5,0,0,0-5-4.44H37.66V67.67c6.33-4.62,9.7-9.85,10-15.53.22-4.23-1.28-8.74-4.46-13.48,0,0,0,0,0-.06l0,0a60.84,60.84,0,0,0-10.31-11.3,1,1,0,0,0-.23-.13l-.11-.07a.92.92,0,0,0-.28,0,.7.7,0,0,0-.14,0h0l-.19,0a1,1,0,0,0-.25.07s0,0,0,0a1.59,1.59,0,0,0-.33.25h0a1.06,1.06,0,0,0-.21.31c-9.9,8.8-14.8,17-14.54,24.33.19,5.33,3.07,10.27,8.55,14.68L17.67,76.94a4.31,4.31,0,0,0-1.89-.45H4.53A4.37,4.37,0,0,0,.16,80.86V98.51a4.37,4.37,0,0,0,4.37,4.37H15.78a4.33,4.33,0,0,0,3.12-1.32,3.91,3.91,0,0,0,2.93,1.32H45.15A4.93,4.93,0,0,0,50.07,98a4.85,4.85,0,0,0-.48-2.09,4.87,4.87,0,0,0,2.69-7.65,4.89,4.89,0,0,0,1.56-8.44Z" transform="translate(33.61 2)"/><path class="cls-5" d="M7.21,10.73A60.5,60.5,0,0,0,48.6,124.44h0A60.51,60.51,0,0,0,25.83,7.1" transform="translate(33.61 2)"/></svg>