<svg xmlns="http://www.w3.org/2000/svg" width="125" height="130" viewBox="0 0 125 130"><defs><clipPath id="t2y6a"><path fill="#fff" d="M53.46 7a7 7 0 0 1 14 0 7 7 0 0 1-14 0z"/></clipPath></defs><g><g><g transform="rotate(-20 62.5 67.5)"><path fill="none" stroke="#135334" stroke-linecap="round" stroke-miterlimit="50" stroke-width="2" d="M62.383 6.95C28.759 6.873 1.563 33.92 1.64 67.362c.077 33.441 27.397 60.613 61.02 60.69v0c33.625.076 60.82-26.971 60.743-60.412-.061-26.896-17.746-49.737-42.159-57.687"/></g><g><path fill="none" stroke="#135334" stroke-miterlimit="50" stroke-width="4" d="M53.46 7a7 7 0 0 1 7-7h0a7 7 0 0 1 7 7v0a7 7 0 0 1-7 7h0a7 7 0 0 1-7-7z" clip-path="url(&quot;#t2y6a&quot;)"/></g><g><g><path fill="#135334" d="M81.703 60.61c-.243.185-.5.373-.765.565a1.129 1.129 0 0 0-.25 1.585 1.144 1.144 0 0 0 1.596.249c.278-.2.542-.396.798-.587a1.13 1.13 0 0 0 .223-1.59 1.151 1.151 0 0 0-1.602-.221m-4.745 3.14c-.269.155-.543.311-.824.466-.55.305-.75.995-.443 1.543a1.143 1.143 0 0 0 1.554.44c.295-.164.585-.327.867-.492a1.13 1.13 0 0 0 .409-1.552 1.148 1.148 0 0 0-1.563-.405m-38.504 3.694c-.3-.097-.602-.196-.903-.3a1.147 1.147 0 0 0-1.453.704 1.134 1.134 0 0 0 .709 1.443c.316.107.63.21.941.31a1.145 1.145 0 0 0 1.44-.728 1.134 1.134 0 0 0-.734-1.43m28.063.764c-.302.087-.608.172-.916.254-.61.162-.97.784-.808 1.39a1.142 1.142 0 0 0 1.4.801c.323-.086.643-.174.96-.265.605-.175.954-.804.779-1.406a1.145 1.145 0 0 0-1.415-.774m-23.989 2.713c.326.074.65.146.972.214a1.143 1.143 0 0 0 1.356-.875 1.138 1.138 0 0 0-.881-1.346c-.31-.064-.62-.132-.93-.204a1.14 1.14 0 0 0-1.372.85c-.142.61.24 1.22.855 1.361m18.436-1.484c-.31.049-.622.095-.937.137a1.134 1.134 0 1 0 .303 2.248c.332-.044.662-.092.99-.143a1.137 1.137 0 0 0 .95-1.298 1.144 1.144 0 0 0-1.306-.944m-5.63.52h-.032a49.5 49.5 0 0 1-.951.017 1.14 1.14 0 0 0-1.133 1.145 1.14 1.14 0 0 0 1.143 1.124h.01c.334-.003.666-.01.993-.018a1.139 1.139 0 0 0 1.111-1.165 1.139 1.139 0 0 0-1.141-1.104m-25.65-15.063a2.42 2.42 0 0 1 2.427-2.409 2.42 2.42 0 0 1 2.426 2.409 2.42 2.42 0 0 1-2.426 2.408 2.42 2.42 0 0 1-2.426-2.408m7.136 0c0-2.579-2.113-4.679-4.71-4.679-2.598 0-4.712 2.1-4.712 4.679s2.114 4.678 4.712 4.678c2.597 0 4.71-2.099 4.71-4.678m49.614-16.791c2.731 0 4.954 2.206 4.954 4.919 0 2.713-2.223 4.919-4.954 4.919-2.732 0-4.954-2.206-4.954-4.919 0-2.713 2.222-4.919 4.954-4.919m0 12.107c3.991 0 7.24-3.224 7.24-7.188 0-3.964-3.249-7.189-7.24-7.189s-7.238 3.225-7.238 7.189 3.247 7.188 7.238 7.188m6.904 16.036h-.007a2.437 2.437 0 0 0-1.968 1.05c-.426.638-.52 1.346-.597 1.915-.018.134-.036.269-.058.4-.069.392-.207.6-.189.626-.072-.018-.247-.18-.305-.38-.103-.36-.06-.832-.01-1.332.015-.166.03-.333.042-.498a9.777 9.777 0 0 0-.99-5.01 1.142 1.142 0 0 0-.74-.597 1.15 1.15 0 0 0-.938.168 24.993 24.993 0 0 0-7.141 7.586l-.257.43c-.94 1.59-1.595 2.57-3.14 2.674a3.646 3.646 0 0 1-2.449-.773c-1.35-1.057-1.86-2.633-2.027-4.034l.214-.088c.58-.25.845-.917.594-1.493-.154-.353-.473-.57-.827-.64.115-1.147.608-3.94 2.76-4.975.356-.171.766-.295 1.2-.427.408-.123.829-.251 1.256-.431 2.24-.95 3.591-2.9 4.628-4.77l3.242 3.17c.158.155.35.256.553.3h.004c0 .002 0 .002.003.002h.006l.003.002a1.235 1.235 0 0 0 .304.02h.002c.194-.01.386-.072.554-.181v-.001c.004 0 .004-.002.004-.002l.002-.001c0-.002 0-.002.003-.002-.001-.005.002-.002.003-.002.003-.006.002-.002.003-.002l.003-.002.002-.002.003-.002c.054-.037.105-.08.153-.126l3.538-3.461A29.78 29.78 0 0 1 93.65 66.28c-.102-.016-.203-.035-.31-.035zM77.486 90.177c-.24-.26-.49-.514-.74-.77-.855-.873-1.664-1.7-2.101-2.678-.433-.97-.506-2.104-.52-3.186-.014-1.138.063-2.405.74-3.174.62-.706 1.807-1.007 3.169-.814.829.12 1.649.385 2.517.664.578.187 1.158.373 1.746.52 2.97.747 6.176.494 9.012-.648a30.14 30.14 0 0 1-11.694 13.618c-.296-1.147-.995-2.314-2.129-3.532zm-22.194 7.025c-1.16-1.208-1.863-3.602-1.85-5.23.003-.43.047-.87.088-1.31.129-1.368.275-2.92-.602-4.29-.831-1.297-2.46-2.083-4.36-2.103-.992-.025-1.97.17-2.897.344-.385.073-.771.146-1.158.203a14.145 14.145 0 0 1-6.396-.543c-.076-.025-.152-.018-.229-.027a30.18 30.18 0 0 1-3.73-8.723c1.69.109 3.336 1.282 3.901 2.945.158.468.423 1.254 1.246 1.609.248.105.493.158.735.158.75 0 1.479-.501 2.175-1.5.857-1.227 2.122-2.145 3.46-3.116.76-.552 1.545-1.121 2.275-1.767A14.09 14.09 0 0 0 49.69 72c.497-.084.902-.473.952-.996.01-.11-.015-.211-.035-.314 2.989-4.795 3.2-11.22.158-16.094a32.717 32.717 0 0 0-.583-.888c-.632-.942-1.23-1.831-1.36-2.773-.091-.662.05-1.417.185-2.147l1.411-7.59a30.37 30.37 0 0 1 13.075-2.935c3.883 0 7.654.727 11.222 2.145-.043.204-.09.406-.122.613-.604 3.905.746 7.84 3.592 10.513l2.51 2.454c-1.114 2.088-2.134 3.622-3.83 4.34-.332.14-.68.244-1.026.348-.498.152-1.013.307-1.53.556-2.304 1.108-3.824 3.764-4.066 7.104-.25 3.448.791 6.27 2.934 7.948a5.983 5.983 0 0 0 3.65 1.268c.123 0 .246-.004.37-.012 2.826-.191 4.006-2.186 4.954-3.788l.247-.413a22.703 22.703 0 0 1 5.308-6.02 7.52 7.52 0 0 1 .262 2.55c-.01.146-.025.293-.039.44-.062.657-.134 1.4.09 2.173.36 1.24 1.628 2.34 3.06 1.942.974-.27 1.66-1.154 1.88-2.428.029-.16.051-.324.073-.488.047-.347.09-.678.252-.914.128.095.275.15.426.185-.005.346.001.69-.016 1.038a29.727 29.727 0 0 1-1.236 7.124c-2.796 1.81-6.363 2.413-9.599 1.599-.54-.136-1.072-.308-1.603-.48-.92-.296-1.874-.602-2.893-.75-2.137-.31-4.085.276-5.219 1.566-1.184 1.344-1.323 3.128-1.303 4.695.016 1.26.113 2.729.715 4.077.603 1.349 1.593 2.36 2.551 3.34.237.24.473.482.701.728 1.127 1.209 1.675 2.26 1.685 3.208A30.214 30.214 0 0 1 65.64 98.24a30.692 30.692 0 0 1-10.348-1.038zM44.848 87.06c.417-.061.833-.14 1.25-.218.854-.161 1.654-.305 2.448-.305.866.01 1.966.29 2.454 1.053.457.713.364 1.709.255 2.86a17.87 17.87 0 0 0-.098 1.505c-.009 1.236.277 2.739.83 4.124a30.24 30.24 0 0 1-12.136-9.083c1.652.267 3.343.307 4.997.064zM31.253 47.812c.291-.034.581-.051.867-.051 1.743 0 3.387.618 4.702 1.78a7.026 7.026 0 0 1 2.377 5.26c0 1.922-.762 3.71-2.165 5.063a1.664 1.664 0 0 0-.077.069l-4.847 4.743-4.867-4.76c-1.72-1.613-2.497-3.887-2.135-6.238.47-3.041 3.055-5.508 6.145-5.866zm15.508.565c-.161.864-.343 1.843-.202 2.866.2 1.459 1.01 2.663 1.724 3.725.184.274.367.547.54.825 2.584 4.139 2.334 9.8-.29 13.892-.574 0-1.066.41-1.132.987-.019.158-.002.31.04.455-.316.36-.649.712-1.011 1.032-.647.57-1.354 1.085-2.103 1.628-1.433 1.04-2.915 2.115-3.99 3.657a4.023 4.023 0 0 1-.147.2c-.916-2.657-3.69-4.516-6.51-4.392a29.553 29.553 0 0 1-.427-4.963c0-.536.023-1.067.05-1.595l5.243-5.127a9.311 9.311 0 0 0 2.939-6.766 9.267 9.267 0 0 0-1.63-5.223 30.252 30.252 0 0 1 7.98-6.986zm39.687-15.112c2.394 0 4.652.852 6.454 2.453a9.62 9.62 0 0 1 3.235 7.18c0 2.64-1.048 5.094-2.97 6.94a.76.76 0 0 0-.092.08l-6.64 6.499-6.664-6.515c-2.352-2.208-3.416-5.32-2.92-8.536.647-4.187 4.207-7.567 8.464-8.038.381-.042.758-.063 1.133-.063zm8.217 18.288a11.908 11.908 0 0 0 3.757-8.654c0-3.382-1.457-6.616-3.997-8.872-2.537-2.254-5.95-3.33-9.362-2.953-4.283.473-7.993 3.328-9.662 7.165a32.555 32.555 0 0 0-11.908-2.244c-9.843 0-18.95 4.31-25.159 11.847-1.996-1.76-4.673-2.59-7.345-2.284-4.16.482-7.505 3.68-8.139 7.777-.47 3.05.585 6.129 2.806 8.215l5.36 5.24c-.022.498-.047.995-.047 1.499 0 8.918 3.767 17.524 10.336 23.612 6.09 5.645 13.885 8.683 22.16 8.683.773 0 1.552-.027 2.332-.08 16.391-1.123 29.365-14.267 30.18-30.575a32.14 32.14 0 0 0-3.49-16.246z"/></g></g></g></g></svg>