<svg xmlns="http://www.w3.org/2000/svg" width="125" height="130" viewBox="0 0 125 130"><defs><clipPath id="6c56a"><path fill="#fff" d="M53 7a7 7 0 0 1 14 0 7 7 0 0 1-14 0z"/></clipPath></defs><g><g><g transform="rotate(-20 62.5 67.5)"><path fill="none" stroke="#135334" stroke-linecap="round" stroke-miterlimit="50" stroke-width="2" d="M62.54 7.04c-33.413 0-60.5 27.087-60.5 60.5s27.087 60.5 60.5 60.5v0c33.413 0 60.5-27.087 60.5-60.5 0-26.874-17.522-49.655-41.764-57.543"/></g><g><path fill="none" stroke="#135334" stroke-miterlimit="50" stroke-width="4" d="M53 7a7 7 0 0 1 7-7v0a7 7 0 0 1 7 7v0a7 7 0 0 1-7 7v0a7 7 0 0 1-7-7z" clip-path="url(&quot;#6c56a&quot;)"/></g><g><g><path fill="#135334" d="M83.553 75.672H63.998a1.135 1.135 0 0 0 0 2.27h19.555a1.135 1.135 0 0 0 0-2.27m0-12.916H63.998a1.135 1.135 0 0 0 0 2.27h19.555a1.135 1.135 0 0 0 0-2.27m0-12.916H63.998a1.135 1.135 0 0 0 0 2.27h19.555a1.135 1.135 0 0 0 0-2.27M55.624 79.262a2.458 2.458 0 0 1-2.455-2.455 2.457 2.457 0 0 1 2.455-2.455 2.457 2.457 0 0 1 2.455 2.455 2.458 2.458 0 0 1-2.455 2.455m0-7.179a4.729 4.729 0 0 0-4.723 4.724 4.73 4.73 0 0 0 4.723 4.724 4.73 4.73 0 0 0 4.724-4.724 4.73 4.73 0 0 0-4.724-4.724m0-5.737a2.458 2.458 0 0 1-2.455-2.455 2.457 2.457 0 0 1 2.455-2.455 2.457 2.457 0 0 1 2.455 2.455 2.458 2.458 0 0 1-2.455 2.455m0-7.179a4.729 4.729 0 0 0-4.723 4.724 4.73 4.73 0 0 0 4.723 4.724 4.73 4.73 0 0 0 4.724-4.724 4.73 4.73 0 0 0-4.724-4.724m0-5.737a2.458 2.458 0 0 1-2.455-2.455 2.457 2.457 0 0 1 2.455-2.455 2.457 2.457 0 0 1 2.455 2.455 2.458 2.458 0 0 1-2.455 2.455m0-7.18a4.729 4.729 0 0 0-4.723 4.725 4.73 4.73 0 0 0 4.723 4.724 4.73 4.73 0 0 0 4.724-4.724 4.73 4.73 0 0 0-4.724-4.724M44.13 93.512a.615.615 0 0 1-.616-.615V34.885c0-.34.276-.615.616-.615h39.759v7.05c0 .626.508 1.133 1.134 1.133h7.051v50.444c0 .34-.277.615-.616.615zm40.699 5.91c0 .34-.276.615-.616.615H36.885a.615.615 0 0 1-.616-.615V41.41c0-.339.276-.615.616-.615h4.36v52.102a2.888 2.888 0 0 0 2.885 2.885h40.699zm1.329-63.549l4.312 4.312h-4.312zm8.11 5.076c-.013-.036-.022-.071-.038-.105a1.134 1.134 0 0 0-.219-.325l-.001-.002-8.184-8.184-.004-.003a1.126 1.126 0 0 0-.324-.218c-.033-.015-.065-.024-.099-.036a1.116 1.116 0 0 0-.313-.063c-.022-.001-.04-.013-.063-.013H44.13a2.888 2.888 0 0 0-2.885 2.885v3.641h-4.36A2.888 2.888 0 0 0 34 41.41v58.012a2.888 2.888 0 0 0 2.885 2.885h47.328a2.888 2.888 0 0 0 2.885-2.885v-3.64h4.36a2.888 2.888 0 0 0 2.884-2.885V41.32c0-.025-.012-.045-.014-.07a1.11 1.11 0 0 0-.06-.301z"/></g></g></g></g></svg>