<svg xmlns="http://www.w3.org/2000/svg" width="125" height="130" viewBox="0 0 125 130"><defs><clipPath id="2ybna"><path fill="#fff" d="M53.39 6a6 6 0 0 1 6-6h2a6 6 0 0 1 6 6v2a6 6 0 0 1-6 6h-2a6 6 0 0 1-6-6z"/></clipPath></defs><g><g><g transform="rotate(-20 62.5 67.5)"><path fill="none" stroke="#135334" stroke-linecap="round" stroke-miterlimit="50" stroke-width="2" d="M62.303 6.95C28.679 6.873 1.483 33.92 1.56 67.362c.077 33.441 27.397 60.613 61.02 60.69v0c33.625.076 60.82-26.971 60.743-60.412-.061-26.896-17.746-49.737-42.159-57.687"/></g><g><path fill="none" stroke="#135334" stroke-miterlimit="50" stroke-width="4" d="M53.39 6a6 6 0 0 1 6-6h2a6 6 0 0 1 6 6v2a6 6 0 0 1-6 6h-2a6 6 0 0 1-6-6z" clip-path="url(&quot;#2ybna&quot;)"/></g><g><g><g><path fill="#135334" d="M36.9 71.493c-.54.4-1.243.6-2.11.6-.629 0-1.136-.1-1.523-.297-.388-.2-.688-.451-.9-.757a5.806 5.806 0 0 1-.595-1.143c-.152-.384-.333-.674-.546-.87a1.114 1.114 0 0 0-.782-.292c-.38 0-.694.126-.94.376a1.246 1.246 0 0 0-.368.904c0 .605.205 1.229.614 1.87.41.64.943 1.153 1.599 1.538.924.533 2.098.8 3.52.8 1.188 0 2.214-.195 3.08-.585.864-.391 1.522-.932 1.971-1.622.45-.69.674-1.468.674-2.334 0-.722-.129-1.333-.389-1.831a3.423 3.423 0 0 0-1.081-1.235c-.463-.326-1.024-.602-1.682-.83a22.043 22.043 0 0 0-2.208-.625 37.203 37.203 0 0 1-1.397-.371 4.388 4.388 0 0 1-.836-.352 1.983 1.983 0 0 1-.65-.537 1.195 1.195 0 0 1-.235-.742c0-.462.232-.858.694-1.186.461-.33 1.07-.494 1.824-.494.813 0 1.403.152 1.77.454.368.303.682.725.944 1.265.204.378.392.65.566.816.173.166.428.249.762.249.367 0 .674-.14.92-.415a1.37 1.37 0 0 0 .369-.933 2.61 2.61 0 0 0-.295-1.162c-.197-.397-.508-.777-.935-1.138-.426-.361-.962-.651-1.607-.87-.647-.217-1.413-.326-2.298-.326-1.108 0-2.071.164-2.891.493-.82.329-1.446.799-1.879 1.41-.433.613-.65 1.313-.65 2.1 0 .827.206 1.519.616 2.076.41.557.964.996 1.662 1.318.699.323 1.565.604 2.601.845.774.176 1.392.342 1.855.498.462.156.84.382 1.13.679.293.296.439.682.439 1.157 0 .599-.271 1.099-.812 1.499m65.673 7.797a18.23 18.23 0 0 1-13.52 6.002c-4.99 0-9.63-1.964-13.099-5.551a1.183 1.183 0 0 0-.098-.116L64.864 68.468H74l8.711 10.584a1.146 1.146 0 0 0 1.608.16 1.128 1.128 0 0 0 .162-1.596l-7.53-9.148h6.178l5.514 6.698a1 1 0 0 0 1.403.14.986.986 0 0 0 .141-1.393l-4.481-5.445h7.767c.55 0 .998-.444.998-.991a.995.995 0 0 0-.998-.99h-7.676l4.366-4.921a.985.985 0 0 0-.088-1.397 1.001 1.001 0 0 0-1.407.089l-5.528 6.229H77.04l7.416-8.357a1.13 1.13 0 0 0-.102-1.601 1.147 1.147 0 0 0-1.612.101l-8.747 9.857h-9.521L75.87 54.91c3.83-4.024 9.226-6.054 14.817-5.571 8.556.742 15.45 7.42 16.393 15.881.58 5.207-1.02 10.204-4.506 14.07m6.777-14.32c-1.063-9.532-8.828-17.056-18.465-17.89-6.293-.546-12.363 1.741-16.663 6.257l-12.177 12.37-12.164-12.356C45.982 49.255 40.71 47 35.037 47a20.523 20.523 0 0 0-15.22 6.756c-3.927 4.354-5.73 9.976-5.076 15.834 1.063 9.534 8.83 17.058 18.47 17.891.609.053 1.215.08 1.82.08 5.627-.001 10.963-2.264 14.858-6.358.026-.028.05-.057.073-.086l4.985-5.059.067 3.367a1.14 1.14 0 0 0 1.142 1.112h.023a1.14 1.14 0 0 0 1.12-1.157l-.119-6.008a1.123 1.123 0 0 0-.36-.797c-.007-.008-.01-.017-.016-.024-.261-.253-.61-.34-.947-.295l-5.848-.114a1.123 1.123 0 0 0-1.165 1.111 1.14 1.14 0 0 0 1.12 1.157l3.346.066-5.074 5.149a1.026 1.026 0 0 0-.097.113c-3.826 3.966-9.185 5.959-14.731 5.484-8.557-.74-15.453-7.419-16.397-15.882-.58-5.207 1.02-10.204 4.507-14.07a18.225 18.225 0 0 1 13.52-6.001c5.038 0 9.721 2.003 13.185 5.641l.033-.033c.346.418.962 1.044 2.002 2.101L60.4 67.28l-2.359 2.393a1.13 1.13 0 0 0 .017 1.604 1.147 1.147 0 0 0 1.616-.017l2.326-2.361 12.204 12.304c3.9 4.1 9.173 6.358 14.851 6.358 5.801 0 11.35-2.463 15.222-6.757 3.926-4.354 5.728-9.977 5.075-15.834"/></g></g></g></g></g></svg>