<svg xmlns="http://www.w3.org/2000/svg" width="125" height="130" viewBox="0 0 125 130"><defs><clipPath id="zpt5a"><path fill="#fff" d="M53 7a7 7 0 0 1 14 0 7 7 0 0 1-14 0z"/></clipPath></defs><g><g><g transform="rotate(-20 62.5 67.5)"><path fill="none" stroke="#135334" stroke-linecap="round" stroke-miterlimit="50" stroke-width="2" d="M62.54 7.04c-33.413 0-60.5 27.087-60.5 60.5s27.087 60.5 60.5 60.5v0c33.413 0 60.5-27.087 60.5-60.5 0-26.874-17.522-49.655-41.764-57.543"/></g><g><path fill="none" stroke="#135334" stroke-miterlimit="50" stroke-width="4" d="M53 7a7 7 0 0 1 7-7v0a7 7 0 0 1 7 7v0a7 7 0 0 1-7 7v0a7 7 0 0 1-7-7z" clip-path="url(&quot;#zpt5a&quot;)"/></g><g><g><path fill="#135334" d="M57.448 45.67a5.353 5.353 0 0 0 4.21 5.221v-5.22a1.134 1.134 0 0 1 2.267 0v5.22c2.404-.523 4.211-2.662 4.211-5.22a5.353 5.353 0 0 0-5.344-5.349 5.352 5.352 0 0 0-5.344 5.348zm-8.57 26.967c1.156 0 2.22-.378 3.095-1.004l-4.063-3.635a1.135 1.135 0 0 1 1.51-1.692l4.07 3.64a5.292 5.292 0 0 0 .733-2.656 5.353 5.353 0 0 0-5.344-5.349 5.353 5.353 0 0 0-5.344 5.35 5.352 5.352 0 0 0 5.344 5.346zm22.844-5.793c0 .947.267 1.823.7 2.595l3.893-3.445a1.134 1.134 0 0 1 1.501 1.7l-3.899 3.45a5.293 5.293 0 0 0 3.148 1.048 5.352 5.352 0 0 0 5.344-5.348 5.352 5.352 0 0 0-5.344-5.347 5.35 5.35 0 0 0-5.343 5.347zm-7.796 13.13v30.096a1.135 1.135 0 1 1-2.269 0V80.29l-7.951-7.112a7.576 7.576 0 0 1-4.824 1.728c-4.2 0-7.617-3.417-7.617-7.616 0-4.2 3.417-7.617 7.617-7.617s7.617 3.416 7.617 7.617c0 1.553-.47 2.998-1.272 4.204l6.43 5.751V53.192c-3.661-.55-6.481-3.709-6.481-7.522 0-4.2 3.417-7.617 7.616-7.617 4.2 0 7.616 3.417 7.616 7.617 0 3.813-2.819 6.972-6.482 7.522v23.753l6.748-5.967a7.574 7.574 0 0 1-1.228-4.134c0-4.199 3.416-7.616 7.616-7.616 4.2 0 7.616 3.417 7.616 7.616 0 4.201-3.416 7.617-7.616 7.617a7.575 7.575 0 0 1-4.886-1.782zm-1.404-52.568a1.125 1.125 0 0 1-.738-.38 1.138 1.138 0 0 1 .1-1.6l.161-.143a1.13 1.13 0 0 1 1.495 0l.425.376c.468.415.512 1.132.1 1.6a1.123 1.123 0 0 1-.849.385c-.244 0-.488-.078-.694-.238m-3.697 3.907l-1.563-1.64.403-.386a1.128 1.128 0 0 1 1.598.04c.429.456.411 1.173-.041 1.605zm7.8-.133l1.002-1.062.044-.046.027-.029.49-.502.402.387c.449.435.462 1.154.029 1.605a1.12 1.12 0 0 1-.813.346c-.283 0-.566-.105-.785-.317zm1.002-1.062l-.226.234.775-.819-.478.51-.028.029zm-13.996 5.945c-.278 0-.557-.102-.775-.309a1.137 1.137 0 0 1-.047-1.604l.394-.417a1.128 1.128 0 0 1 1.598-.037c.452.432.47 1.15.038 1.604l-.386.407a1.123 1.123 0 0 1-.822.356m17.355-.511a1.137 1.137 0 0 1 .043-1.603 1.129 1.129 0 0 1 1.599.044l.391.417a1.138 1.138 0 0 1-.052 1.604 1.125 1.125 0 0 1-1.598-.053zM49.48 40.728a1.137 1.137 0 0 1-.869-1.86l.37-.442a1.129 1.129 0 0 1 1.593-.135 1.14 1.14 0 0 1 .134 1.6l-.358.428a1.13 1.13 0 0 1-.87.409m25.62-.571a1.137 1.137 0 0 1 .139-1.598 1.126 1.126 0 0 1 1.592.14l.367.442a1.136 1.136 0 0 1-.87 1.858c-.325 0-.648-.14-.87-.411zM45.665 45.67a1.136 1.136 0 0 1-.922-1.79l.335-.47a1.127 1.127 0 0 1 1.578-.257c.506.367.62 1.076.255 1.584l-.323.454a1.13 1.13 0 0 1-.923.479m33.208-.652a1.139 1.139 0 0 1 .264-1.583 1.129 1.129 0 0 1 1.577.266l.33.47c.36.512.237 1.22-.273 1.58a1.128 1.128 0 0 1-1.575-.276zm-37.122 5.764c-.543-.308-.735-1-.428-1.546l.287-.503a1.128 1.128 0 0 1 1.545-.412c.54.315.725 1.01.41 1.551l-.274.481a1.13 1.13 0 0 1-1.54.43m40.438-.612a1.137 1.137 0 0 1 .42-1.548 1.128 1.128 0 0 1 1.543.423l.284.505a1.136 1.136 0 0 1-.987 1.686 1.13 1.13 0 0 1-.989-.583zm-43.025 6.29a1.135 1.135 0 0 1-.627-1.476l.22-.538a1.13 1.13 0 1 1 2.086.872l-.209.513a1.13 1.13 0 0 1-1.47.629m45.706-.824a1.137 1.137 0 0 1 .62-1.48 1.128 1.128 0 0 1 1.473.623l.216.545a1.134 1.134 0 0 1-1.052 1.546 1.13 1.13 0 0 1-1.054-.724zm-47.344 6.841a1.133 1.133 0 0 1-.875-1.342l.125-.574a1.129 1.129 0 1 1 2.203.501l-.117.537a1.13 1.13 0 0 1-1.336.878m49.151-1.081a1.13 1.13 0 1 1 2.21-.479c.04.192.08.384.118.575a1.134 1.134 0 0 1-1.11 1.355 1.131 1.131 0 0 1-1.107-.914l-.11-.537M37.13 68.699c-.62 0-1.124-.5-1.13-1.123L36 67.277l.001-.292a1.131 1.131 0 0 1 1.13-1.122h.011c.625.007 1.124.52 1.118 1.147l-.002.26.002.283a1.132 1.132 0 0 1-1.118 1.146zm51.327-2.483a1.131 1.131 0 0 1 1.127 1.137c0 .2-.003.398-.007.596a1.133 1.133 0 0 1-1.13 1.105h-.03a1.132 1.132 0 0 1-1.1-1.164c.005-.18.007-.362.008-.543a1.131 1.131 0 0 1 1.13-1.13h.002m-49.422 7.24a1.135 1.135 0 0 1-1.096 1.416c-.504 0-.963-.342-1.093-.854a30.302 30.302 0 0 1-.14-.576 1.134 1.134 0 0 1 .844-1.362 1.127 1.127 0 0 1 1.357.847c.04.177.083.353.128.53m48.93-1.03c.606.15.976.765.826 1.374-.046.191-.096.382-.147.572a1.132 1.132 0 0 1-1.386.8 1.136 1.136 0 0 1-.796-1.392c.047-.174.092-.35.135-.525.15-.609.762-.98 1.369-.829M40.93 78.547c.081.163.162.326.245.488a1.138 1.138 0 0 1-.486 1.529 1.13 1.13 0 0 1-1.523-.489 32.202 32.202 0 0 1-.263-.525 1.136 1.136 0 0 1 .514-1.52 1.127 1.127 0 0 1 1.513.517m45.09-.199c.558.282.78.965.5 1.524a21.78 21.78 0 0 1-.271.525 1.127 1.127 0 0 1-1.527.47 1.136 1.136 0 0 1-.468-1.534c.084-.16.167-.32.248-.483.28-.559.961-.784 1.518-.502M44.438 84.1a1.135 1.135 0 0 1-.892 1.83c-.336 0-.67-.15-.893-.437a26.13 26.13 0 0 1-.354-.467 1.136 1.136 0 0 1 .225-1.588 1.128 1.128 0 0 1 1.582.226zm36.836-.167c.38-.497 1.09-.59 1.585-.209.495.382.588 1.094.208 1.591a30.52 30.52 0 0 1-.36.463 1.127 1.127 0 0 1-1.589.181 1.137 1.137 0 0 1-.18-1.594l.336-.432m-32.761 4.674c.45.435.462 1.153.03 1.604a1.126 1.126 0 0 1-1.6.029l-.413-.405a1.137 1.137 0 0 1-.011-1.604 1.127 1.127 0 0 1 1.598-.012zm28.708-.148a1.127 1.127 0 0 1 1.598.021 1.136 1.136 0 0 1-.02 1.604l-.415.402a1.125 1.125 0 0 1-1.598-.037 1.137 1.137 0 0 1 .037-1.604l.398-.386m-24.073 4.146a1.135 1.135 0 0 1-.696 2.03c-.242 0-.487-.079-.693-.24l-.45-.355a1.137 1.137 0 0 1-.188-1.593 1.127 1.127 0 0 1 1.587-.188zm19.456-.132a1.124 1.124 0 0 1 1.586.194 1.135 1.135 0 0 1-.193 1.592l-.456.355a1.127 1.127 0 0 1-1.585-.21 1.138 1.138 0 0 1 .21-1.59l.438-.34M58.16 96.161c.523.342.672 1.044.332 1.57a1.132 1.132 0 0 1-1.565.332l-.48-.317a1.138 1.138 0 0 1-.318-1.573 1.129 1.129 0 0 1 1.568-.318l.463.306m9.44-.116a1.129 1.129 0 0 1 1.565.326 1.135 1.135 0 0 1-.324 1.57l-.482.315a1.125 1.125 0 0 1-1.563-.338 1.137 1.137 0 0 1 .337-1.568l.467-.305"/></g></g></g></g></svg>