<svg xmlns="http://www.w3.org/2000/svg" width="125" height="130" viewBox="0 0 125 130"><defs><clipPath id="2f9wa"><path fill="#fff" d="M53 7a7 7 0 0 1 14 0 7 7 0 0 1-14 0z"/></clipPath></defs><g><g><g transform="rotate(-20 62.5 67.5)"><path fill="none" stroke="#135334" stroke-linecap="round" stroke-miterlimit="50" stroke-width="2" d="M62.54 7.04c-33.413 0-60.5 27.087-60.5 60.5s27.087 60.5 60.5 60.5v0c33.413 0 60.5-27.087 60.5-60.5 0-26.874-17.522-49.655-41.764-57.543"/></g><g><path fill="none" stroke="#135334" stroke-miterlimit="50" stroke-width="4" d="M53 7a7 7 0 0 1 7-7v0a7 7 0 0 1 7 7v0a7 7 0 0 1-7 7v0a7 7 0 0 1-7-7z" clip-path="url(&quot;#2f9wa&quot;)"/></g><g><g><path fill="#135334" d="M51.693 64.264a1.137 1.137 0 0 1 1.468-.647c.584.226.874.883.647 1.467a9.035 9.035 0 0 0 .784 8.155c1.869 2.963 5.196 4.58 8.682 4.198a1.144 1.144 0 0 1 1.249 1.007 1.135 1.135 0 0 1-1.007 1.25c-.417.044-.833.065-1.245.065-3.89 0-7.488-1.963-9.598-5.31a11.43 11.43 0 0 1-.98-10.185m17.077 10.51a9.038 9.038 0 0 0 2.403-4.376 9.053 9.053 0 0 0-1.177-6.869 9.03 9.03 0 0 0-5.852-4.06 1.134 1.134 0 1 1 .461-2.22 11.268 11.268 0 0 1 7.31 5.071 11.296 11.296 0 0 1 1.47 8.58 11.295 11.295 0 0 1-2.679 5.13l2.996.082a1.134 1.134 0 0 1-.03 2.268h-.032l-6.007-.165a1.134 1.134 0 0 1-1.104-1.12l-.072-6.009a1.134 1.134 0 0 1 1.12-1.147h.014c.62 0 1.126.498 1.134 1.12l.045 3.715M62.31 89.503c-4.899 0-9.77-1.687-13.66-4.975a1.134 1.134 0 0 1 1.464-1.732c6.014 5.08 14.653 5.879 21.499 1.99a18.82 18.82 0 0 0 8.849-21.502 1.134 1.134 0 1 1 2.183-.615 21.084 21.084 0 0 1-9.912 24.09 21.079 21.079 0 0 1-10.423 2.744M79.928 60.16c-.074 0-.148-.008-.223-.022l-5.893-1.177a1.134 1.134 0 0 1 .444-2.225l3.38.675a18.713 18.713 0 0 0-10.333-7.215 18.724 18.724 0 0 0-14.326 1.785 18.837 18.837 0 0 0-9.423 18.604 1.136 1.136 0 0 1-1.128 1.266 1.134 1.134 0 0 1-1.125-1.003A21.098 21.098 0 0 1 51.856 50.01a21 21 0 0 1 16.05-2 20.964 20.964 0 0 1 11.565 8.068l.76-3.16a1.133 1.133 0 1 1 2.206.531l-1.407 5.843a1.136 1.136 0 0 1-1.102.869M67.534 38.814a1.134 1.134 0 1 1 .393-2.234c15.448 2.717 26.66 16.092 26.66 31.803 0 3.524-.563 6.99-1.676 10.3a1.135 1.135 0 1 1-2.15-.723 30.01 30.01 0 0 0 1.559-9.577c0-14.607-10.424-27.043-24.786-29.569m15.649 51.138a1.133 1.133 0 1 1 1.578 1.629c-6.055 5.866-14.034 9.096-22.467 9.096C44.487 100.677 30 86.19 30 68.384c0-17.13 13.409-31.18 30.28-32.224l-2.153-2.239a1.134 1.134 0 0 1 1.636-1.573l4.165 4.333a1.134 1.134 0 0 1 0 1.572l-4.165 4.332a1.134 1.134 0 0 1-1.636-1.572l2.505-2.606c-15.786.866-28.363 13.979-28.363 29.977 0 16.555 13.469 30.024 30.025 30.024a29.873 29.873 0 0 0 20.889-8.456M57.323 56.92a2.458 2.458 0 0 0-2.456 2.456 2.457 2.457 0 0 0 2.455 2.454c1.354 0 2.455-1.1 2.455-2.454a2.458 2.458 0 0 0-2.455-2.456m0 7.179a4.728 4.728 0 0 1-4.723-4.723 4.73 4.73 0 0 1 4.723-4.725 4.731 4.731 0 0 1 4.724 4.725 4.729 4.729 0 0 1-4.724 4.723M44.803 75.293a2.458 2.458 0 0 0-2.455 2.456 2.457 2.457 0 0 0 2.455 2.454c1.354 0 2.455-1.1 2.455-2.454a2.458 2.458 0 0 0-2.455-2.456m0 7.179a4.729 4.729 0 0 1-4.724-4.723 4.731 4.731 0 0 1 4.724-4.725 4.731 4.731 0 0 1 4.724 4.725 4.729 4.729 0 0 1-4.724 4.723m43.841 4.91a2.458 2.458 0 0 0 2.455-2.454 2.457 2.457 0 0 0-2.455-2.455 2.457 2.457 0 0 0-2.455 2.455 2.458 2.458 0 0 0 2.455 2.455m0-7.18a4.73 4.73 0 0 1 4.724 4.725 4.73 4.73 0 0 1-4.724 4.724 4.73 4.73 0 0 1-4.724-4.724 4.73 4.73 0 0 1 4.724-4.724"/></g></g></g></g></svg>