<svg id="Layer_1" data-name="Layer 1" xmlns="http://www.w3.org/2000/svg" xmlns:xlink="http://www.w3.org/1999/xlink" viewBox="0 0 123.03 130.7"><defs><style>.cls-1,.cls-3,.cls-5{fill:none;}.cls-2{clip-path:url(#clip-path);}.cls-3,.cls-5{stroke:#fff;stroke-miterlimit:50;}.cls-3{stroke-width:4px;}.cls-4{fill:#fff;}.cls-5{stroke-linecap:round;stroke-width:2px;}</style><clipPath id="clip-path" transform="translate(158.12 3.8)"><circle class="cls-1" cx="-98.49" cy="5.2" r="7"/></clipPath></defs><title>icon-8</title><g class="cls-2"><path class="cls-3" d="M-105.49,5.2a7,7,0,0,1,7-7h0a7,7,0,0,1,7,7h0a7,7,0,0,1-7,7h0A7,7,0,0,1-105.49,5.2Z" transform="translate(158.12 3.8)"/></g><path class="cls-4" d="M-83.28,50.33a1.14,1.14,0,0,1,1.14,1.13,1.14,1.14,0,0,1-1.14,1.14H-110.1a1.14,1.14,0,0,1-1.13-1.14,1.14,1.14,0,0,1,1.13-1.13h26.82m-28.84-2.78a1.13,1.13,0,0,1-1.14-1.13,1.14,1.14,0,0,1,1.14-1.14h30.87a1.14,1.14,0,0,1,1.14,1.14,1.13,1.13,0,0,1-1.14,1.13h-30.87m42.18,40.8a3.94,3.94,0,0,0,4-3.94V79.93h-61.23v4.48a3.94,3.94,0,0,0,4,3.94Zm-18.39,2.27h-16.53L-107,98.29H-86.2ZM-123.27,46a4,4,0,0,0-4,3.95V77.66H-66V49.94a4,4,0,0,0-4-3.95h-.41V74a1.12,1.12,0,0,1-1.13,1.13A1.12,1.12,0,0,1-72.61,74V38.84h-48V74a1.13,1.13,0,0,1-1.14,1.13A1.13,1.13,0,0,1-122.86,74V46Zm53.33-2.27a6.23,6.23,0,0,1,6.22,6.22V84.41a6.21,6.21,0,0,1-6.22,6.21H-86l2.12,7.67h4.08a1.15,1.15,0,0,1,1.14,1.14,1.13,1.13,0,0,1-1.14,1.13h-33.67a1.14,1.14,0,0,1-1.14-1.13,1.15,1.15,0,0,1,1.14-1.14h4.1l2.13-7.67h-16.06a6.22,6.22,0,0,1-6.22-6.21V49.94a6.24,6.24,0,0,1,6.22-6.22h.41V31.34a1.14,1.14,0,0,1,1.13-1.14h50.25a1.13,1.13,0,0,1,1.13,1.14V43.72ZM-92.86,64.45a57,57,0,0,1,8.6,8.35,1.13,1.13,0,0,1-.19,1.59A1.12,1.12,0,0,1-86,74.2h0a55.62,55.62,0,0,0-8.28-8L-96,64.72V74a1.13,1.13,0,0,1-1.14,1.13A1.13,1.13,0,0,1-98.31,74v-6.7s0-.06,0-.09V64.74L-100,66.18a56.11,56.11,0,0,0-8.28,8,1.13,1.13,0,0,1-1.58.2h0a1.14,1.14,0,0,1-.2-1.59,57,57,0,0,1,8.6-8.35c1.06-.9,2.12-1.8,3.16-2.71V58.18a1.13,1.13,0,0,1,1.17-1.1,1.13,1.13,0,0,1,1.1,1.1V61.7c1.11,1,2.18,1.88,3.2,2.75" transform="translate(158.12 3.8)"/><path class="cls-5" d="M-117.3,8.53a60.52,60.52,0,0,0-36.16,77.55,60.51,60.51,0,0,0,77.55,36.15h0A60.49,60.49,0,0,0-39.75,44.69,60.53,60.53,0,0,0-98.68,4.9" transform="translate(158.12 3.8)"/></svg>