<svg xmlns="http://www.w3.org/2000/svg" width="125" height="130" viewBox="0 0 125 130"><defs><clipPath id="1hqfa"><path fill="#fff" d="M53.45 7a7 7 0 0 1 14 0 7 7 0 0 1-14 0z"/></clipPath></defs><g><g><g transform="rotate(-20 62.5 67.5)"><path fill="none" stroke="#135334" stroke-linecap="round" stroke-miterlimit="50" stroke-width="2" d="M62.373 6.95C28.749 6.873 1.553 33.92 1.63 67.362c.077 33.441 27.397 60.613 61.02 60.69v0c33.625.076 60.82-26.971 60.743-60.412-.061-26.896-17.746-49.737-42.159-57.687"/></g><g><path fill="none" stroke="#135334" stroke-miterlimit="50" stroke-width="4" d="M53.45 7a7 7 0 0 1 7-7v0a7 7 0 0 1 7 7v0a7 7 0 0 1-7 7v0a7 7 0 0 1-7-7z" clip-path="url(&quot;#1hqfa&quot;)"/></g><g><g><path fill="#135334" d="M98.006 91.909a.947.947 0 0 1 0 1.345.96.96 0 0 1-1.355 0l-2.583-2.566c-3.395.9-6.487 1.364-9.248 1.364-7.348 0-12.431-3.186-15.182-9.517-1.149.178-2.305.29-3.463.29a22.43 22.43 0 0 1-14.768-5.539L27.7 100.825a1.138 1.138 0 0 1-.808.332c-.292 0-.584-.11-.807-.332a1.128 1.128 0 0 1 0-1.604l23.684-23.516c-3.865-4.127-6.004-9.455-6.004-15.121 0-5.944 2.33-11.532 6.564-15.735a22.37 22.37 0 0 1 13.312-6.362l-2.485-2.566a1.129 1.129 0 0 1 .033-1.604 1.148 1.148 0 0 1 1.615.031l4.194 4.333a1.128 1.128 0 0 1 0 1.572l-4.194 4.332a1.142 1.142 0 0 1-.824.348c-.285 0-.57-.105-.791-.316a1.129 1.129 0 0 1-.033-1.604l2.124-2.193a20.085 20.085 0 0 0-11.336 5.634c-3.8 3.774-5.895 8.792-5.895 14.13 0 5.338 2.094 10.356 5.895 14.13a20.036 20.036 0 0 0 8.526 5.029c-.726-6.652-.832-14.225-.299-22.562.04-.625.578-1.12 1.213-1.06.102.007.191.045.284.076 10.47-.649 17.85-.589 24.166.206a19.807 19.807 0 0 0-5.43-9.949 20.11 20.11 0 0 0-9.646-5.331 1.133 1.133 0 0 1-.853-1.362c.142-.61.756-.992 1.372-.847 4.065.94 7.78 2.992 10.744 5.935 3.546 3.522 5.627 7.942 6.295 12.528.04.117.054.24.053.369a22.229 22.229 0 0 1-.347 7.671c8.042 3.934 10.51 11.938 7.309 23.836l2.675 2.656m-4.257-4.228c1.96-8.008 1.15-13.859-2.506-17.678l-.887 14.311 3.393 3.367M89.41 68.449a15.428 15.428 0 0 0-1.894-1.161 22.07 22.07 0 0 1-5.362 8.883l6.385 6.349.87-14.071m-3.208-9.71c-5.86-.796-12.655-.923-22.153-.408l16.424 16.308a19.861 19.861 0 0 0 5.729-15.9M62.827 80.264c5.526.919 11.36-.441 15.946-4.104L62.316 59.819c-.373 7.543-.2 14.404.511 20.445m17.92-2.802a22.282 22.282 0 0 1-9.183 4.689c.455.988.977 1.884 1.563 2.689l14.254-.79-6.635-6.588m-6.007 9.193c3.849 3.6 9.723 4.408 17.754 2.47l-3.296-3.272-14.458.802"/></g></g></g></g></svg>