<svg xmlns="http://www.w3.org/2000/svg" width="125" height="130" viewBox="0 0 125 130"><defs><clipPath id="1kuia"><path fill="#fff" d="M53.49 7a7 7 0 0 1 14 0 7 7 0 0 1-14 0z"/></clipPath></defs><g><g><g transform="rotate(-20 62.5 67.5)"><path fill="none" stroke="#135334" stroke-linecap="round" stroke-miterlimit="50" stroke-width="2" d="M62.413 6.95C28.789 6.873 1.593 33.92 1.67 67.362c.077 33.441 27.397 60.613 61.02 60.69v0c33.625.076 60.82-26.971 60.743-60.412-.061-26.896-17.746-49.737-42.159-57.687"/></g><g><path fill="none" stroke="#135334" stroke-miterlimit="50" stroke-width="4" d="M53.49 7a7 7 0 0 1 7-7v0a7 7 0 0 1 7 7v0a7 7 0 0 1-7 7v0a7 7 0 0 1-7-7z" clip-path="url(&quot;#1kuia&quot;)"/></g><g><g><path fill="#135334" d="M53.017 50.558a1.127 1.127 0 0 1 0 1.604 1.147 1.147 0 0 1-1.619 0L49.218 50a1.126 1.126 0 0 1-.002-1.603 1.151 1.151 0 0 1 1.619 0l2.182 2.161m21.07 1.608a1.146 1.146 0 0 1-1.619 0 1.127 1.127 0 0 1 0-1.604l2.183-2.161a1.152 1.152 0 0 1 1.618 0 1.127 1.127 0 0 1 0 1.604l-2.182 2.16m-9.878-4.679c0 .626-.514 1.135-1.147 1.135a1.142 1.142 0 0 1-1.148-1.135v-3.057c0-.626.514-1.134 1.148-1.134a1.14 1.14 0 0 1 1.147 1.134v3.057m6.52 17.968a8.359 8.359 0 0 0 .759-3.51 8.423 8.423 0 0 0-2.518-6.024 8.553 8.553 0 0 0-6.06-2.488h-.032a8.555 8.555 0 0 0-6.065 2.489 8.425 8.425 0 0 0-2.518 6.024c0 1.237.26 2.427.775 3.539l2.148 4.314a17.28 17.28 0 0 1 1.329 3.673c1.092.354 2.178.539 3.202.603v-3.361l-3.351-2.93a1.129 1.129 0 0 1-.102-1.601 1.15 1.15 0 0 1 1.612-.102l1.84 1.609V65.56l-2.508-2.194a1.129 1.129 0 0 1-.102-1.601 1.149 1.149 0 0 1 1.613-.1l.998.873v-2.771c0-.626.512-1.134 1.143-1.134s1.143.508 1.143 1.134v2.692l1.012-.821a1.146 1.146 0 0 1 1.608.16c.4.484.328 1.199-.162 1.595l-2.458 1.996v2.458l2.212-1.794a1.145 1.145 0 0 1 1.608.16c.4.485.328 1.2-.16 1.595l-3.66 2.968v3.273a16.363 16.363 0 0 0 3.203-.583 17.212 17.212 0 0 1 1.329-3.67l2.162-4.343m-7.819 16.27c1.742 0 3.2-1.16 3.676-2.735-.917.22-2.268.46-3.856.46-1.094 0-2.292-.114-3.522-.428a3.844 3.844 0 0 0 3.665 2.704h.037m-.201-5.347c-1.173 0-2.452-.126-3.765-.44.02.216.04.43.05.646 3.435 1.17 6.888.278 7.795 0 .012-.225.032-.448.054-.672-.987.223-2.353.44-3.928.459-.008 0-.015.005-.023.005-.006 0-.01-.003-.017-.004-.057 0-.109.006-.166.006m.205-25.215a10.83 10.83 0 0 1 7.67 3.15 10.67 10.67 0 0 1 3.188 7.632c0 1.564-.33 3.072-.98 4.484l-2.177 4.375a15.028 15.028 0 0 0-1.57 6.669v.43c0 3.358-2.752 6.09-6.135 6.09h-.037c-3.383 0-6.135-2.732-6.135-6.09v-.43c0-2.3-.542-4.607-1.569-6.67l-2.163-4.343a10.67 10.67 0 0 1-.995-4.515 10.67 10.67 0 0 1 3.189-7.631 10.834 10.834 0 0 1 7.674-3.151h.04M87.198 67.78c-.712 2.282-1.47 4.284-2.254 5.951-3.323 7.062-3.158 15.556.443 22.72l.2.392a1.131 1.131 0 0 1-.62 1.58l-22.612 8.339a1.125 1.125 0 0 1-.89-.04 1.133 1.133 0 0 1-.59-.661l-4.292-12.643-8.155-.158c-5.715-.109-10.366-4.816-10.366-10.492v-6.183h-3.789c-.81 0-1.564-.399-2.017-1.066a2.403 2.403 0 0 1-.239-2.257l6.122-15.017c.124-2.498 1.877-24.923 23.586-25.867l-2.38-2.457a1.129 1.129 0 0 1 .032-1.604 1.148 1.148 0 0 1 1.616.031l4.194 4.332c.221.23.32.527.312.822 0 .01.005.018.005.029-.002.065-.031.119-.045.181-.016.066-.022.132-.049.196a1.042 1.042 0 0 1-.157.242c-.024.032-.036.072-.066.103l-4.194 4.332a1.146 1.146 0 0 1-1.616.031 1.129 1.129 0 0 1-.032-1.604l2.295-2.37c-8.414.412-14.515 4.345-18.138 11.719-2.948 5.998-3.087 12.086-3.088 12.147a1.147 1.147 0 0 1-.084.406l-6.195 15.199c-.006.018-.029.072.015.138.045.064.104.064.123.064h4.932c.63 0 1.142.509 1.142 1.135v7.318c0 4.449 3.645 8.139 8.125 8.225l8.958.173a1.14 1.14 0 0 1 1.061.771l4.173 12.291 20.324-7.496c-3.562-7.622-3.617-16.517-.114-23.962.74-1.572 1.46-3.477 2.141-5.661 1.533-4.915 1.89-9.955 1.03-14.576-2.39-12.868-12.106-16.497-17.685-17.516a1.133 1.133 0 1 1 .414-2.23c6.156 1.123 16.879 5.129 19.518 19.334.926 4.98.547 10.395-1.094 15.659"/></g></g></g></g></svg>