<svg xmlns="http://www.w3.org/2000/svg" xmlns:xlink="http://www.w3.org/1999/xlink" viewBox="0 0 123.03 131.03"><defs><style>.cls-1,.cls-3,.cls-5{fill:none;}.cls-2{clip-path:url(#clip-path);}.cls-3,.cls-5{stroke:#fff;stroke-miterlimit:50;}.cls-3{stroke-width:4px;}.cls-4{fill:#fff;}.cls-5{stroke-linecap:round;stroke-width:2px;}</style><clipPath id="clip-path" transform="translate(32.45 1.93)"><circle class="cls-1" cx="26.8" cy="7.07" r="7"/></clipPath></defs><title>icon-10</title><g id="Layer_1" data-name="Layer 1"><g class="cls-2"><path class="cls-3" d="M19.8,7.07a7,7,0,0,1,7-7h0a7,7,0,0,1,7,7h0a7,7,0,0,1-7,7h0A7,7,0,0,1,19.8,7.07Z" transform="translate(32.45 1.93)"/></g><path class="cls-4" d="M21.82,50.63a1.13,1.13,0,0,1,0,1.6,1.15,1.15,0,0,1-1.61,0l-2.16-2.16a1.14,1.14,0,0,1,1.54-1.67.46.46,0,0,1,.07.07l2.16,2.16m20.93,1.6a1.13,1.13,0,0,1-1.6,0h0a1.13,1.13,0,0,1,0-1.6h0l2.17-2.16a1.13,1.13,0,1,1,1.6,1.6h0l-2.16,2.16m-9.82-4.68a1.14,1.14,0,1,1-2.27,0v-3a1.14,1.14,0,1,1,2.27,0h0v3m6.48,18A8.53,8.53,0,0,0,37.66,56a8.43,8.43,0,0,0-6-2.49h0a8.51,8.51,0,0,0-7.75,12L26,69.87a17.67,17.67,0,0,1,1.32,3.67,12.8,12.8,0,0,0,3.17.6V70.78l-3.32-2.93a1.13,1.13,0,0,1,1.5-1.7l1.82,1.61V65.63L28,63.43a1.13,1.13,0,0,1,1.43-1.76l.07.06,1,.88V59.84a1.15,1.15,0,0,1,1.17-1.11,1.14,1.14,0,0,1,1.1,1.11v2.69l1-.82a1.13,1.13,0,0,1,1.59.15h0a1.13,1.13,0,0,1-.15,1.59h0l-2.44,2v2.46l2.2-1.8a1.12,1.12,0,0,1,1.59.16h0a1.15,1.15,0,0,1-.16,1.6l-3.64,3v3.28a15.51,15.51,0,0,0,3.18-.59,17.87,17.87,0,0,1,1.32-3.67l2.15-4.34M31.65,81.79a3.82,3.82,0,0,0,3.64-2.73,16.91,16.91,0,0,1-3.82.46A14.16,14.16,0,0,1,28,79.09a3.81,3.81,0,0,0,3.63,2.7h0m-.2-5.34A16.25,16.25,0,0,1,27.71,76c0,.21,0,.43.05.64a13.23,13.23,0,0,0,7.73,0l.06-.67a19.12,19.12,0,0,1-3.9.46h-.2m.2-25.22A10.79,10.79,0,0,1,42.43,62a10.82,10.82,0,0,1-1,4.49L39.3,70.87a15,15,0,0,0-1.56,6.67V78a6.1,6.1,0,0,1-6.09,6.09h0A6.09,6.09,0,0,1,25.52,78v-.43A15.12,15.12,0,0,0,24,70.87l-2.14-4.34a10.78,10.78,0,0,1,9.79-15.3h0M55.76,67.85a47.9,47.9,0,0,1-2.24,6A26.35,26.35,0,0,0,54,96.52l.2.39a1.13,1.13,0,0,1-.5,1.53l-.11,0L31.1,106.83a1.13,1.13,0,0,1-1.47-.7L25.36,93.49l-8.09-.16A10.55,10.55,0,0,1,7,82.84V76.65H3.21A2.41,2.41,0,0,1,.8,74.23a2.52,2.52,0,0,1,.17-.9l6.08-15c.12-2.49,1.86-24.92,23.42-25.86L28.11,30a1.13,1.13,0,0,1,1.63-1.57l4.17,4.33a1.13,1.13,0,0,1,.31.82v0a1.16,1.16,0,0,1,0,.18,1.46,1.46,0,0,1,0,.2.91.91,0,0,1-.16.24.53.53,0,0,1-.06.1l-4.17,4.33a1.13,1.13,0,0,1-1.6,0,1.14,1.14,0,0,1,0-1.61l2.28-2.37c-8.36.41-14.42,4.35-18,11.72A32.46,32.46,0,0,0,9.31,58.58a1.1,1.1,0,0,1-.08.4L3.08,74.18a.14.14,0,0,0,0,.14.12.12,0,0,0,.12.06h4.9a1.13,1.13,0,0,1,1.13,1.14v7.32a8.26,8.26,0,0,0,8.07,8.22l8.9.17a1.14,1.14,0,0,1,1.05.78L31.4,104.3l20.18-7.5a28.62,28.62,0,0,1-.11-24,44.91,44.91,0,0,0,2.12-5.66,30.69,30.69,0,0,0,1-14.58c-2.38-12.87-12-16.5-17.56-17.51a1.13,1.13,0,1,1,.41-2.23h0C43.58,34,54.23,38,56.85,52.19a33,33,0,0,1-1.09,15.66" transform="translate(32.45 1.93)"/><path class="cls-5" d="M8.38,10.73A60.5,60.5,0,0,0,49.76,124.44h0A60.51,60.51,0,0,0,27,7.1" transform="translate(32.45 1.93)"/></g></svg>