<svg xmlns="http://www.w3.org/2000/svg" width="154" height="67" viewBox="0 0 154 67"><defs><clipPath id="ze48a"><path d="M142.93 0h9.497v9.497h-9.497z"/></clipPath></defs><g><g><g><path fill="none" stroke="#309665" stroke-miterlimit="50" stroke-width="2.54" d="M15.27 18.61a6 6 0 1 1-12.002-.002 6 6 0 0 1 12.002.002z"/></g><g><path fill="none" stroke="#a7d129" stroke-miterlimit="50" stroke-width="2.54" d="M75.73 46.096L147.673 4.56"/></g><g><path fill="none" stroke="#309665" stroke-miterlimit="50" stroke-width="2.54" d="M14.46 21.61l42.3 24.421"/></g><g><path fill="none" stroke="#309665" stroke-miterlimit="50" stroke-width="2.54" d="M77.108 51.38c0 5.97-4.84 10.81-10.81 10.81-5.969 0-10.808-4.84-10.808-10.81 0-5.97 4.839-10.81 10.808-10.81 5.97 0 10.81 4.84 10.81 10.81z"/></g><g><g/><g clip-path="url(#ze48a)"><path fill="#309665" d="M152.428 4.748a4.75 4.75 0 1 1-9.499 0 4.75 4.75 0 0 1 9.499 0"/></g></g></g></g></svg>