<svg xmlns="http://www.w3.org/2000/svg" width="184" height="114" viewBox="0 0 184 114"><g><g><g><path fill="none" stroke="#a7d129" stroke-miterlimit="50" stroke-width="2.54" d="M70.13 67.815l99.583-57.545"/></g><g><path fill="none" stroke="#309665" stroke-miterlimit="50" stroke-width="2.54" d="M70.82 78.37l47.38 27.528"/></g><g><path fill="none" stroke="#a7d129" stroke-miterlimit="50" stroke-width="2.54" d="M4.81 40.02l47.377 27.528"/></g><g><path fill="none" stroke="#309665" stroke-miterlimit="50" stroke-width="2.54" d="M71.888 73.689c0 5.97-4.839 10.81-10.809 10.81-5.969 0-10.809-4.84-10.809-10.81 0-5.97 4.84-10.809 10.809-10.809 3.731 0 7.021 1.89 8.963 4.766a10.755 10.755 0 0 1 1.846 6.043z"/></g><g><path fill="#309665" d="M8.236 40.198a3.118 3.118 0 1 1-6.236 0 3.118 3.118 0 0 1 6.236 0"/></g><g><path fill="#309665" d="M122.947 105.898a4.749 4.749 0 1 1-9.497 0 4.749 4.749 0 0 1 9.497 0"/></g><g><path fill="none" stroke="#309665" stroke-miterlimit="50" stroke-width="2.54" d="M180.91 7.27a6 6 0 1 1-12.002-.002 6 6 0 0 1 12.002.002z"/></g></g></g></svg>