<svg xmlns="http://www.w3.org/2000/svg" width="7" height="17" viewBox="0 0 7 17"><g><g><path fill="#acacac" d="M7 .74c-.002.052-.007.104-.007.154 0 .832-.002 1.664.002 2.496.001.117-.029.146-.124.145-.385-.005-.77-.005-1.155.004a2.002 2.002 0 0 0-.391.055c-.243.054-.42.286-.43.607-.019.586-.017 1.172-.026 1.758-.001.107.059.089.112.089h2.022l-.25 2.789H4.872v.174l-.002 7.773c0 .052-.003.103-.004.155H2.292l.002-.724V8.841H.579c-.003-.057-.006-.099-.006-.14C.572 7.864.574 7.027.57 6.19c0-.115.029-.144.125-.143.491.005.983-.002 1.474.005.104 0 .127-.041.127-.156.003-.75 0-1.501.023-2.25a4.219 4.219 0 0 1 .328-1.569c.237-.541.604-.91 1.091-1.092.271-.101.556-.144.835-.214L4.69.74z"/></g></g></svg>