<svg xmlns="http://www.w3.org/2000/svg" width="16" height="16" viewBox="0 0 16 16"><g><g><path fill="#acacac" d="M13.523.1c1.079-.023 1.926.776 1.92 1.908-.021 3.876-.004 7.752-.011 11.628-.001 1.227-.73 1.94-1.954 1.94H1.918c-1.227 0-1.955-.717-1.956-1.933-.002-3.853-.003-7.706 0-11.559C-.035 1.054.395.41 1.243.176c.208-.057.435-.06.653-.06C3.833.11 5.77.111 7.709.111c1.938 0 3.877.03 5.814-.012zM1.777 6.701v6.301c0 .572.2.772.772.772h10.3c.565 0 .769-.207.769-.778V7.044c0-.11-.012-.222-.02-.336h-1.232c.719 3.3-1.84 5.734-4.26 5.888-1.285.082-2.454-.226-3.454-1.077-1.498-1.277-1.947-2.916-1.61-4.818zm8.895 1.127c.026-1.59-1.345-2.959-2.968-2.959-1.627 0-2.976 1.338-2.977 2.956-.001 1.617 1.35 2.963 2.973 2.962 1.634 0 2.946-1.305 2.972-2.959zm2.943-4.48c0-.29.008-.58-.002-.87-.012-.347-.246-.587-.593-.594a50.605 50.605 0 0 0-1.698 0c-.382.006-.631.246-.64.628a40.45 40.45 0 0 0 0 1.704c.007.36.253.622.605.632.577.016 1.156.015 1.733 0 .36-.009.588-.264.597-.632.006-.29 0-.58 0-.869z"/></g></g></svg>