<svg xmlns="http://www.w3.org/2000/svg" width="20" height="16" viewBox="0 0 20 16"><g><g><path fill="#acacac" d="M19.846 1.958a7.854 7.854 0 0 1-1.318 1.519c-.082.073-.157.16-.252.209-.341.174-.383.457-.386.812-.029 2.87-1.018 5.38-2.924 7.517-1.793 2.007-4.054 3.14-6.722 3.467-2.558.314-4.963-.142-7.199-1.441a1.454 1.454 0 0 1-.275-.201c2.068.15 3.95-.325 5.614-1.594-.801-.093-1.534-.337-2.176-.825a3.87 3.87 0 0 1-1.364-1.91c.542.009 1.057.08 1.623-.07-1.882-.64-2.899-1.874-2.98-3.837.528.203 1.042.393 1.669.407-1.112-.847-1.663-1.931-1.668-3.264A3.548 3.548 0 0 1 2.034.832c.119.129.218.234.315.343 1.83 2.03 4.102 3.233 6.804 3.63.223.033.448.055.673.08.228.024.268-.016.236-.24C9.794 2.74 10.79 1.005 12.59.36c1.421-.507 2.755-.272 3.919.706.252.21.472.292.771.173.578-.23 1.157-.457 1.735-.686.078-.032.152-.074.255-.091a2.938 2.938 0 0 1-.573 1.135c-.266.333-.544.655-.755.908.193-.044.533-.108.864-.2.33-.093.65-.216 1.04-.347"/></g></g></svg>