<svg xmlns="http://www.w3.org/2000/svg" width="24" height="17" viewBox="0 0 24 17"><g><g><path fill="#acacac" d="M23.422 4.278s.228 1.845.228 3.689v1.728c0 1.845-.228 3.69-.228 3.69s-.223 1.57-.906 2.261c-.866.909-1.838.913-2.283.965-3.189.232-7.978.239-7.978.239s-5.926-.055-7.749-.229c-.507-.096-1.646-.066-2.513-.975-.683-.691-.905-2.261-.905-2.261S.86 11.54.86 9.695V7.967c0-1.844.228-3.689.228-3.689s.222-1.57.905-2.262c.867-.908 1.838-.913 2.284-.965C7.466.82 12.25.82 12.25.82h.009s4.785 0 7.974.231c.445.052 1.417.057 2.283.965.683.692.906 2.262.906 2.262zm-7.363 4.323L9.901 5.388l.001 6.403z"/></g></g></svg>